<?xml version="1.0" encoding="UTF-8" standalone="no"?>
<!-- Created with Inkscape (http://www.inkscape.org/) -->

<svg
   width="238.38205mm"
   height="77.534447mm"
   viewBox="0 0 238.38205 77.534447"
   version="1.1"
   id="svg1"
   inkscape:version="1.4 (86a8ad7, 2024-10-11)"
   sodipodi:docname="welcome.svg"
   xmlns:inkscape="http://www.inkscape.org/namespaces/inkscape"
   xmlns:sodipodi="http://sodipodi.sourceforge.net/DTD/sodipodi-0.dtd"
   xmlns="http://www.w3.org/2000/svg"
   xmlns:svg="http://www.w3.org/2000/svg">
  <sodipodi:namedview
     id="namedview1"
     pagecolor="#505050"
     bordercolor="#ffffff"
     borderopacity="1"
     inkscape:showpageshadow="0"
     inkscape:pageopacity="0"
     inkscape:pagecheckerboard="1"
     inkscape:deskcolor="#505050"
     inkscape:document-units="mm"
     inkscape:zoom="0.99150695"
     inkscape:cx="482.09445"
     inkscape:cy="178.01186"
     inkscape:window-width="1920"
     inkscape:window-height="1001"
     inkscape:window-x="-9"
     inkscape:window-y="-9"
     inkscape:window-maximized="1"
     inkscape:current-layer="svg1" />
  <defs
     id="defs1" />
  <g
     id="bienvenido_i2"
     style="display:inline"
     transform="translate(-1.6817848,-2.2911713)">
    <path
       d="m 168.7204,11.63805 c 1.34995,0.06909 2.01211,0.381159 2.82669,1.683306 0.35222,1.144648 0.29074,2.106035 0.15626,3.40701 l 0.76142,0.185603 c 0.81842,0.355983 0.82098,0.357154 1.15591,0.920403 0.23566,1.613631 0.12295,2.860156 -0.50719,4.493694 -2.83437,3.880093 -7.82303,4.796397 -10.56454,1.055067 -0.35542,-1.42276 -0.19148,-2.333794 0.10246,-3.881264 0.17547,-0.853656 0.17675,-0.864195 0.0384,-1.785768 -0.0467,-0.758219 -0.0474,-0.747095 0.35862,-1.721949 0.55971,-1.127083 1.00542,-1.586698 1.92758,-1.801576 1.04704,-0.246494 1.05345,-0.248836 1.82256,-1.322639 0.82866,-0.921573 0.97019,-1.084342 1.92117,-1.231887 z m -2.7255,18.18907 c 0.2632,-0.01757 0.78896,-0.05504 0.78896,-0.05504 0.66921,0.0059 0.66857,0.0059 1.19113,0.318511 0.48092,-0.06816 0.96064,-0.143307 1.43896,-0.225417 1.12068,-0.08958 1.44728,-0.08548 2.36496,0.699084 0.79025,1.689161 0.55778,3.942742 0.34709,5.925822 -0.26256,0.982465 -0.55714,1.891743 -0.86388,2.832638 -0.24848,0.781639 -0.24848,0.792178 0.18251,1.662813 1.33393,1.932142 1.36787,7.164149 0.92985,9.740925 -0.0916,1.172751 2.1722,6.815778 2.40531,8.576955 l -0.3836,0.601306 c 0.14985,0.73597 0.1665,0.805059 0.41626,1.620657 0.27537,1.145819 0.37463,1.654617 0.15497,2.679237 -0.95098,1.339619 -3.07964,1.589041 -4.71776,1.78167 -1.14374,0.01405 -1.87507,-0.343102 -2.88817,-1.147576 -1.16871,-1.085512 -1.4793,-2.131797 -1.79245,-3.657018 l -0.006,-0.544513 c -0.0339,-0.694985 -0.19916,-1.286924 -0.39768,-2.010599 -0.26833,-1.069118 -0.3234,-1.490091 -0.10182,-2.516469 0.0519,-0.28338 0.15817,-0.85307 0.15817,-0.85307 -0.16458,-0.262888 -0.49118,-0.791007 -0.49118,-0.791007 -1.06561,-1.730146 -1.35122,-3.762408 -1.18152,-5.775934 0.0391,-0.289236 0.12167,-0.868293 0.12167,-0.868293 0.13257,-0.833163 0.12552,-0.757634 0.16587,-1.526393 -0.43547,-0.879417 -0.39897,-0.819111 -0.94138,-1.62417 -0.32596,-1.545714 -0.34133,-2.874794 0.17034,-4.333854 0.0929,-0.386428 0.28562,-1.159871 0.28562,-1.159871 -0.36271,-0.670084 -0.72902,-1.338535 -1.09891,-2.005329 -0.30291,-1.850173 -0.17798,-3.420003 0.66088,-5.106711 0.83941,-1.68782 1.61635,-2.149947 3.08221,-2.237772 z"
       style="fill:#f8f9f4;stroke-width:0.61233"
       id="path1-18" />
    <path
       d="m 171.83305,18.617869 c 0.51871,0.204924 1.42423,0.642291 1.95895,0.803302 0.25616,2.616004 -0.83635,4.575079 -2.67811,5.654151 -0.84148,0.494746 -1.48763,0.909278 -2.26059,1.615974 -1.05664,0.283381 -2.096,0.467227 -2.95092,-0.214878 -0.3868,-0.610674 -0.94138,-0.731872 -1.52221,-0.926257 -1.1066,-0.439709 -1.52029,-1.111275 -1.94231,-2.523495 0.009,-1.007056 0.77359,0.279868 0.77359,0.279868 1.48891,0.993004 1.76941,0.339588 2.38226,0.136421 l 0.0525,-0.707867 2.71526,-0.601892 c 0.36375,-1.298048 0.36503,-1.300975 0.18123,-2.485437 0.70764,-0.399309 2.53467,0.0023 3.29098,-1.030476 z m 0.52384,15.203617 c 0.25615,2.005915 -0.0288,3.059811 -0.65897,4.977315 -0.28561,0.842532 -0.30098,0.901081 -0.4598,1.682135 1.89428,3.283471 1.96728,7.097403 1.32817,10.632637 -0.0871,1.167483 0.32852,1.827339 0.95227,2.795166 0.95226,1.734244 1.24172,3.981384 1.47674,5.730266 l -0.38167,0.596036 c 0.15113,0.731872 0.16714,0.796863 0.41753,1.607777 0.27601,1.134694 0.37463,1.639979 0.15434,2.654061 -0.95227,1.326152 -3.08157,1.573817 -4.71969,1.765275 -1.17896,0.02401 -1.90645,-0.40575 -2.9458,-1.217835 l -0.38103,-0.327293 c 0.21004,-1.052725 0.82546,-0.89347 1.40566,-1.001201 0.58275,-0.108317 1.10787,-0.469569 1.16103,-2.675724 2.65762,-1.262919 2.61535,-3.678097 1.29999,-7.254316 -0.89271,-0.163354 -2.67684,-0.491818 -2.67684,-0.491818 -0.34901,-0.955532 -0.38295,-1.066777 -0.61669,-2.202642 0.73773,-0.973683 0.95098,-1.866567 0.86709,-3.319772 -0.31123,-0.424486 -0.92601,-1.278727 -0.92601,-1.278727 0.89655,-0.52402 1.71817,-1.43564 2.77097,-1.508242 0.23375,-0.02635 0.58788,-3.693319 -1.82575,-3.642966 0.59748,-3.22375 1.6727,-2.356628 2.30797,-5.730266 0.48144,-0.59801 0.96494,-1.194638 1.45049,-1.789866 z"
       style="fill:#b2e1eb;stroke-width:0.61233"
       id="path1-54" />
  </g>
  <g
     id="bienvenido_o"
     transform="matrix(0.64039155,0,0,0.58549765,14.025321,-0.93830834)"
     style="display:inline">
    <path
       d="m 331.95968,26.816087 c -2.36,0.317 -4.475,0.96 -6.553,2.925 l -1.266,1.023 c -1.18706,-0.42787 -2.36946,-0.86857 -3.547,-1.322 -2.515,0.13 -4.123,0.93 -6.268,3.177 -1.413,2.192 -2.369,4.245 -3.479,6.718 -0.64,0.884 -1.284,1.762 -1.934,2.632 -2.055,3.034002 -2.15,5.348002 -2.308,9.090002 -0.213,2.514 -1.04,4.067 -2.18,6.14 -1.648,4.702 -0.62,9.09 0.453,13.24 -1.656,4.103 -2.158,5.385 -1.653,11.045 -0.863,2.353 -1.85,4.029 -2.205,6.247 -0.356,2.226 -0.092,5.054 1.654,9.443 -0.675,0.26 0.542,2.353004 2.05,4.262001 1.513,1.916 3.317,3.652 3.787,3.502 3.207,0.953 4.055,1.534 7.236,0.925 l 1.265,-0.233 c 3.27,-0.689 22.905,-3.547 25.084,-4.052 2.235,-0.843 3.537,-2.423001 4.741,-4.655001 1.602,-3.99 2.299,-9.552 1.637,-14.397 -0.339,-1.09 -1.044,-5.217 -1.73,-10.416 -0.67433,-5.15035 -1.22815,-10.31576 -1.661,-15.492 -0.213,-3.12 -0.253,-5.162 0.757,-8.292 0.19,-3.882 -0.023,-7.587002 -1.455,-10.692002 -1.808,-2.48 -3.173,-3.067 -5.65,-4.042 -1.37,-1.075 -2.057,-2.224 -3.087,-3.938 -1.324,-1.974 -1.79,-2.413 -3.688,-2.838 z m -0.279,27.484002 c 0.582,4.965 1.497,9.614 -0.756,14.166 -1.259,2.33 -1.734,3.682 -1.742,6.375 -0.418,2.563 -1.2,7.566 -1.2,7.566 -4.642,0.017 -4.809,-3.242 -6.877,-1.784 -0.174,-1.42 -0.502,-4.3 -0.502,-4.3 -0.253,-2.27 -0.54,-4.085 0.06,-6.409 0.562,-1.581 0.558,-1.57 0.543,-3.517 0.025,-3.721 0.04,-5.679 2.01,-8.833 2.504,-2.196 2.477,-2.18 8.464,-3.264 z"
       style="fill:#f8f9f4"
       id="path1-1" />
    <path
       d="m 313.47585,106.83723 1.404,-0.244 c 4.6,4.686 11.653,4.61 17.21,3.021 5.685,-1.626 10.306,-5.021 10.691,-7.332 2.493,-0.859 3.947,-2.433996 5.29,-4.655996 1.787,-3.97 2.552,-9.487 1.799,-14.293 0.85,-2.38 0.455,-8.058 -0.396,-13.618 -0.85,-5.561 -2.185,-10.932 -3.491,-12.099 -0.25,-3.105 -0.305,-5.138 0.807,-8.283 0.195,-3.876 -0.057,-7.573 -1.661,-10.643 -3.094,-3.725 -3.62,-3.319 -3.887,-3.24 0.975,2.37 2.911,7.127 2.911,7.127 0.661,2.156 1.24,4.316 -0.077,6.387 1.128,5.56 -0.39,14.48 -0.611,13.99 0.713,3.06 3.59,6.566 2.163,9.643 0,0 -0.628,2.324 -1.012,4.555 -0.386,2.237 -0.526,4.38 0.394,4.214 l 1.234,-0.266 c -0.437,4.025 -2.33,10.927 -3.907,14.02 -0.889,2.174 -2.57,1.83 -4.078,1.93 0,0 -2.305,-1.524 -2.89,-0.826 -1.217,1.23 -2.043,2.71 -2.75,4.293996 -2.07,0.812 -2.565,1.62 -4.596,2.135 0,0 -1.602,-0.956 -3.427,-1.539 -1.825,-0.582 -3.882,-0.77 -4.768,0.767 -2.09,3.41 -5.184,-0.403 -7.474,-3.039996 -1.638,0.122 -4.737,-2.617 -6.076,-2.16 -0.143,0.623 -0.421,1.854 -0.421,1.854 -0.227,1.058 0.775,3.368996 2.297,5.254996 1.522,1.887 3.556,3.367 5.322,3.047 z m 14.277,-61.260996 c -1.433,1.704 -1.362,1.613 -2.945,3.846 -2.075,2.948 -2.131,3.01 -4.585,5.197 -0.19,4.61 0.208,9.401 -1.954,13.302 l -1.064,2.845 c -0.23,1.04 -0.682,3.101 -0.682,3.101 1.483,4.322 1.423,1.428 1.894,6.154 1.077,0.206 6.888,3.95 7.645,2.664 -0.57,-0.759 -3.251,-3.217 -3.786,-6.106 -0.253,-2.264 -0.54,-4.076 0.06,-6.395 0.56,-1.578 0.556,-1.568 0.54,-3.511 0.025,-3.717 0.04,-5.673 2.009,-8.825 2.266,-1.987 2.504,-2.17 6.995,-2.992 -0.473,-1.423 -0.851,-2.365 -0.851,-2.365 -0.26,-2.193 -0.472,-6.024 -3.276,-6.914 z"
       style="fill:#b2e1eb"
       id="path1-5" />
  </g>
  <g
     id="bienvenido_d"
     transform="translate(-5.6299368,-19.682186)"
     style="display:inline">
    <path
       d="m 208.48204,19.727511 c -1.69767,0.288065 -2.67427,1.877691 -4.52564,2.278757 -1.69384,0.31207 -2.74856,0.999445 -4.06009,2.452064 -0.71916,1.310344 -0.9529,2.008843 -1.0861,3.631257 0.16842,1.227203 0.15049,1.195586 0.71724,2.037532 l 0.55522,0.507626 c -0.46557,1.178607 -0.9132,2.398198 -1.28911,3.646479 -0.53601,2.543988 -0.66793,5.283531 0.0512,7.562288 0.34901,0.847801 0.34837,0.846044 0.46685,1.805089 -0.42074,1.251209 -0.42266,1.254136 -0.96315,2.304519 -0.66153,-0.864194 -1.5395,-1.28224 -2.44182,-1.618901 -2.12994,-0.191458 -3.79111,0.248837 -5.68795,1.974298 l -0.33749,1.120057 c -2.15172,0.132908 -2.97142,0.905179 -4.56663,2.910509 -0.87093,1.326152 -1.24877,2.195616 -1.28591,3.814517 0.0147,0.42917 0.0506,1.285167 0.0506,1.285167 l -0.54945,0.03981 c -1.07458,1.065606 -1.9327,2.110134 -2.52443,3.658775 -0.3695,1.627684 -0.37399,3.734304 0.317,5.183411 0.38423,0.626482 0.37014,0.600135 0.63591,1.313857 -0.13577,0.40048 -0.40089,1.196757 -0.40089,1.196757 l -0.24335,0.704353 c -0.3932,1.812701 -0.0166,3.921078 0.72236,5.596187 0.22414,0.242981 0.67434,0.726603 0.67434,0.726603 0.67241,0.680933 0.66985,0.673322 0.64999,1.337276 -0.0826,0.638778 -0.0845,0.670395 0.0769,1.700285 0.45468,2.068564 1.44857,3.757724 3.0489,5.010689 1.13478,0.433269 1.91862,0.401652 3.02073,0.298604 l 0.50079,-0.06265 0.11527,0.534559 c 0.6231,0.49943 1.15014,0.872392 1.83152,1.233644 1.83152,0.696742 3.61949,0.932693 5.27682,0.261717 0.65961,-0.559736 1.23148,-1.062678 2.06591,-1.414562 0.63847,-0.259376 1.11428,-0.531632 1.6663,-0.927428 l 0.73453,-0.552125 0.096,0.544513 c 0.92153,1.074974 1.71305,1.601336 3.02265,1.979568 1.87379,0.09778 3.46132,-0.426828 4.81767,-1.562108 0.73389,-1.132938 0.79985,-2.236601 0.59876,-3.72962 -0.1396,-0.854827 -0.21389,-1.339033 -0.002,-2.186834 0.42586,-1.591382 0.13,-3.269419 -0.51679,-4.890076 -0.35734,-0.798619 -0.69803,-1.558009 -0.8498,-2.460261 0.42394,-0.848386 0.83891,-1.661057 1.13797,-2.611905 0.37015,-2.070906 0.53153,-5.09383 -0.2965,-7.002552 l -0.43034,-0.786909 c -0.26256,-0.860682 -0.33685,-1.204369 -0.0282,-2.112476 0.35222,-0.767002 0.34261,-0.744753 0.69162,-1.643492 0.68714,-2.404053 0.82611,-5.472646 0.12168,-7.74262 l -0.38232,-1.041015 c -0.0154,-1.405195 -0.0141,-1.40578 0.3503,-2.277586 0.7928,-1.910479 1.12581,-3.580904 1.22699,-5.630731 l 0.0288,-0.87005 c 0.048,-1.399339 0.11014,-2.67748 -0.30739,-3.915222 -0.34069,-0.620628 -0.33813,-0.614187 -0.0493,-1.604264 0.97019,-3.334994 1.74699,-6.713901 0.60389,-9.884371 -0.69675,-1.108933 -1.16744,-1.833193 -2.27147,-2.159901 -0.26044,-0.01868 -0.52243,-0.0063 -0.77936,0.03689 h 6.4e-4 m -14.27368,36.316078 c 0.42778,0.04274 0.85556,0.09017 1.28078,0.157498 1.52285,0.121784 3.08092,-0.101876 4.62299,-0.244152 0.003,0.254691 0.01,0.762903 0.01,0.762903 0.12616,3.769434 0.83251,4.619577 1.15463,5.079192 0.35413,0.506456 0.38039,0.69323 -0.53153,3.253611 -0.0954,1.730731 0.14921,3.378321 0.54818,4.980828 -1.20202,0.441466 -2.32975,0.985978 -3.11487,2.122429 -1.5459,-0.584326 -2.77225,-0.923329 -4.70047,-0.685032 -0.27281,-2.4708 -0.75886,-3.854331 -2.41428,-6.132502 1.64261,-2.213767 1.6695,-7.316379 3.14433,-9.294775 z"
       style="fill:#f8f9f4;stroke-width:0.61233"
       id="path1-16" />
    <path
       d="m 194.35198,52.614813 c 1.39542,1.008812 2.64482,1.738928 4.36235,1.579673 l 0.97596,-0.08197 c 0.84787,-0.07143 2.1325,-1.076145 2.8222,-1.063264 0,0 0.0467,2.06505 -0.0775,2.912851 -1.25644,0.598379 -1.57664,0.813842 -2.01211,2.307446 0.004,-0.47718 0.0166,-1.434469 0.0166,-1.434469 -1.78285,1.056238 -4.06648,0.697913 -5.90697,0.441465 -0.45852,1.522294 -0.87029,3.018826 -1.18985,4.537607 -0.35861,1.549227 -0.8831,2.495977 -1.69063,3.68278 1.43064,2.435671 2.33359,4.543462 2.26699,7.43582 -0.40089,1.405195 -1.14566,2.300421 -2.3464,2.628299 0.22926,-3.555141 1.35123,-4.589716 -2.60575,-5.890106 0.44571,-1.81797 1.8059,-4.416409 -0.41177,-5.681669 1.54975,-4.113121 0.79921,-5.697478 4.35018,-9.331076 0.88758,-0.862438 0.88118,-0.855998 1.44728,-2.043387 z m 17.88166,-27.566986 c 0.30098,3.09377 0.64231,5.712115 -0.27665,8.783636 -0.29779,0.993589 -0.30035,0.98832 0.0365,1.611875 0.40985,1.244182 0.33941,2.525837 0.28561,3.928104 l -0.0314,0.872391 c -0.10886,2.05334 -0.44251,3.720252 -1.23595,5.627804 -1.34803,3.222579 2.35024,5.902987 -0.73645,12.647334 -0.41946,1.249452 0.1063,2.006501 0.56482,3.303964 0.46621,1.319711 0.83892,3.132412 0.25616,6.492583 -0.29202,0.936796 -0.69995,1.737757 -1.1162,2.572091 0.15753,0.8882 0.50335,1.635881 0.86581,2.419862 0.65704,1.592554 0.96443,3.237802 0.55073,4.793469 -0.20556,0.829065 -0.12872,1.301562 0.016,2.135896 0.21005,1.456132 0.1505,2.530521 -0.57635,3.630085 -1.34738,1.101907 -2.93299,1.609533 -4.80294,1.515268 -1.30832,-0.365351 -3.85195,-1.912235 -3.85195,-1.912235 -0.94394,0.661027 -1.30576,0.747095 -1.70344,0.907521 -0.41626,0.168038 -0.85108,0.405164 -2.01916,1.365966 -1.65541,0.649902 -3.44338,0.423315 -5.26914,-0.250593 -0.78704,-0.451419 -2.44245,-1.653445 -2.44245,-1.653445 -1.12453,0.103047 -1.88403,0.135835 -3.03802,-0.320268 -0.86453,-0.644047 -1.35443,-1.248866 -1.92822,-2.191517 0.77423,-0.206681 1.47162,-0.354226 2.30989,-0.360667 1.16039,0.02576 1.28719,-1.973712 4.81767,-0.562663 0.72364,1.103663 0.89719,2.121258 2.10048,2.655817 1.20906,0.106561 3.66881,-0.336075 3.77575,-2.3941 0.51232,-0.221318 0.51103,-0.220732 1.00926,-0.33549 0.0781,0.468398 0.23951,1.38763 0.23951,1.38763 0.63526,-0.0849 1.61634,-1.483651 2.52762,-1.889401 l 0.86901,-0.261132 c 0.43291,0.860681 1.31473,2.522324 1.31473,2.522324 4.0684,0.196727 4.05816,-0.40575 4.30023,-2.407567 -0.42266,-1.045113 -1.10084,-1.278726 -2.04285,-1.767032 l 0.0999,-0.583155 c 0.62374,-1.413977 1.5363,-5.339739 -0.40985,-5.595601 1.2558,-0.620628 3.05466,-2.00006 1.76748,-3.395887 0.10374,-0.870635 0.28945,-1.5059 0.62758,-2.323254 0.47837,-1.375334 0.55522,-2.436841 0.65768,-3.947425 -1.65797,-0.480108 -3.09949,-0.572617 -4.81702,-0.361838 0.21005,-4.098484 1.76043,-2.44738 1.84305,-5.631902 -0.39769,-0.528704 -1.18729,-1.588455 -1.18729,-1.588455 4.18688,-6.614952 4.53845,-10.795406 0.47645,-11.52435 l 0.33685,-1.155773 c 2.00314,-0.936796 2.49624,-2.160486 2.73895,-4.78937 l -1.41847,0.152229 0.0365,-1.128839 c 2.53595,-2.294566 1.63171,-2.772332 3.48437,-5.977931 0.89334,-1.612461 0.32468,-2.444453 0.3394,-4.320973 0.54754,-0.440294 0.37335,-0.65927 0.65577,-0.694986 z"
       style="fill:#b2e1eb;stroke-width:0.61233"
       id="path1-7" />
  </g>
  <g
     inkscape:label="Capa 1"
     inkscape:groupmode="layer"
     id="layer1"
     transform="translate(22.045871,-38.239474)" />
  <g
     id="bienvenido_n2"
     style="display:inline"
     transform="translate(9.0602061,15.66687)">
    <path
       d="m 128.56884,10.519316 c -1.61315,0.07904 -2.96501,1.243597 -4.0825,3.433944 -0.64039,1.688575 -0.8261,3.486053 -0.333,5.237276 0.30867,0.707281 0.51231,1.229545 0.64487,2.029335 -0.46492,1.983666 -0.35541,3.94684 0.4137,5.934604 0.16842,0.224246 0.50783,0.670981 0.50783,0.670981 0.52512,1.185632 0.51295,1.134694 0.51936,2.371265 0.007,2.270894 0.44645,4.523327 1.29999,6.655937 0.28049,0.628239 0.55778,1.248281 0.83699,1.868909 -0.58083,1.157529 -0.56867,2.78814 -0.27345,4.281159 0.63848,2.227233 1.64709,3.849061 3.32236,5.329199 1.06625,0.52285 1.88531,0.466642 2.87087,0.292749 0.69803,-0.322024 0.69547,-0.322024 1.55935,-0.302702 0.63015,0 0.63143,0 1.18665,-0.06323 0.95418,-1.330836 0.2536,-4.114877 -0.60837,-7.137216 -0.86133,-3.017655 -1.78413,-6.020087 -1.42807,-7.295301 0.31379,-1.84139 0.20812,-1.296877 -0.67754,-6.14187 -0.39384,-0.884102 -0.39896,-0.912206 -0.43739,-1.612461 0.12808,-0.780468 0.13449,-0.792764 0.72813,-1.477796 0.88886,-0.716063 1.46009,-0.806816 2.53595,-0.730115 0.53202,0.30673 1.0644,0.612945 1.59714,0.918645 -0.18572,0.668639 -0.18892,0.693815 -0.14217,1.489506 0.11143,1.272872 0.28818,2.515884 0.77231,3.697418 0.37335,0.723675 0.66217,1.197343 0.84019,1.995376 -0.31059,0.807987 -0.34773,0.914547 -0.6295,1.950878 0.14985,1.662814 0.55266,3.188035 1.51517,4.591473 0.44891,0.561492 0.43354,0.538658 0.78127,1.17041 l -0.18955,1.046869 c -0.33365,1.753566 0.18059,3.597883 1.11556,5.294656 0.84532,1.213736 1.65605,1.887059 2.9362,2.393514 1.62915,0.120027 3.26663,-0.169794 4.26372,-1.263504 0.41177,-0.974853 0.70764,-1.9298 0.40537,-3.225506 -0.16231,-0.552699 -0.31368,-1.108037 -0.45404,-1.665741 0.13577,-0.479523 0.26256,-0.97017 0.38168,-1.471356 -0.1902,-1.308002 -0.48414,-2.541645 -1.10788,-3.835009 -0.62118,-0.984222 -0.91704,-1.557424 -0.85749,-2.706171 0.21966,-1.842561 0.29587,-3.520011 0.0833,-5.536465 -0.0307,-0.245909 -0.0877,-0.737727 -0.0877,-0.737727 -2.96629,-3.535235 -2.24905,-9.139619 -2.45078,-12.419577 -0.18699,-0.376475 -0.37078,-0.754121 -0.55137,-1.132938 -0.55266,-1.801576 -1.17832,-3.096111 -2.45911,-3.978456 -1.1098,-0.203168 -2.05822,0.04098 -3.15457,0.593695 l -0.51615,0.384086 c -0.47453,-0.596037 -1.0496,-0.733043 -1.67655,-0.943237 -2.13506,-0.163939 -3.60028,1.640565 -5.03027,3.496592 -0.68522,-1.38236 -1.13798,-2.40054 -2.23753,-3.1652 -0.61542,-0.218976 -1.19113,-0.313241 -1.7329,-0.286894 z"
       style="fill:#f8f9f4;stroke-width:0.61233"
       id="path1-3" />
    <path
       d="m 146.43905,17.187729 c 0.05,1.352499 0.0999,2.389416 -0.12488,3.700345 -0.073,0.590767 0.78512,1.84139 1.47738,4.052229 0.69867,2.231917 1.21675,5.367257 0.71596,9.672422 -0.0801,3.042831 3.21413,3.734304 1.60098,7.967452 0.14473,0.559735 0.29074,1.111274 0.45404,1.654616 0.30098,1.285167 0.004,2.233088 -0.40985,3.199159 -1.0003,1.084342 -2.64034,1.371821 -4.26821,1.254136 -1.35443,-0.531632 -2.06783,-1.247695 -2.98999,-2.47724 -0.33941,-0.621213 3.47412,-0.745924 4.64732,-2.107792 0.17739,-0.870635 0.17611,-0.866537 0.0397,-1.697358 -0.0865,-0.348956 -0.25743,-1.053895 -0.25743,-1.053895 0.11975,-0.266402 0.88054,-2.168098 -1.49532,-3.003603 -0.1428,-3.099039 1.59458,-7.160637 -1.53053,-9.801231 0.31251,-2.605465 1.53438,-5.570425 0.11527,-8.117925 -0.93241,-0.193215 -0.92921,-0.193215 -1.81871,-0.227173 0.6897,0.316168 1.30191,-1.565621 1.94999,-2.975499 0.6596,-1.437397 1.28334,-2.289882 1.89428,-0.03864 z m -7.78012,5.403557 0.78256,0.292164 c 0.4028,1.604263 0.41433,1.557424 0.19724,2.349016 -0.5533,0.459616 -0.92601,0.433269 -1.4761,-0.0644 -0.87926,-0.717234 -1.40374,-0.601306 -2.35024,-0.392869 -0.9862,0.776956 -1.00926,0.796863 -1.49339,2.100181 0.0448,0.696742 0.0499,0.724846 0.45211,1.605435 0.92665,4.81279 1.02591,4.284672 0.72493,6.10674 -0.17803,1.104834 0.005,1.641736 0.52704,2.754767 0.12936,0.199069 0.38936,0.594865 0.38936,0.594865 0.17546,0.58784 0.33876,1.173338 0.4931,1.751224 0.0858,0.312655 0.25872,0.933283 0.25872,0.933283 0.17546,0.854827 0.1428,1.284582 0.0192,2.01821 0.22734,0.565591 0.46876,1.121814 0.71659,1.667498 1.07458,2.870695 0.64232,3.606665 -0.36502,4.550487 -0.96123,0.08607 -1.91157,-0.01405 -2.75112,0.36418 -1.02142,0.177991 -1.82063,0.231857 -2.91186,-0.330806 -0.58084,-0.501186 -0.97788,-0.915133 -1.4063,-1.577331 0.2363,-0.411019 0.63079,-0.37706 1.09635,-0.474253 2.80427,-0.809743 -0.0749,-2.478412 2.94516,-2.679237 -0.11975,-0.20551 -0.35862,-0.619457 -0.35862,-0.619457 0,0 0.23502,-3.331481 -0.006,-4.264179 -0.08,-0.314998 -0.23695,-0.949092 -0.23695,-0.949092 -0.28561,-0.894055 -0.54433,-1.302732 -1.05472,-2.084957 -0.57315,-2.041045 -0.2901,-2.84669 -0.0397,-3.491908 0.26128,-0.673322 0.49182,-1.194415 -0.0384,-2.863083 -0.5629,-0.639949 -0.93945,-1.242426 -1.08674,-2.155803 -0.91384,-0.604233 -0.4867,-2.927489 1.95447,-4.847921 1.6093,-2.086128 3.17762,-1.634709 5.01811,-0.292749 z"
       style="fill:#b2e1eb;stroke-width:0.61233"
       id="path1-8" />
  </g>
  <g
     id="g5bienvenido_e2"
     style="display:inline"
     transform="translate(-9.1970588,6.0570267)">
    <path
       d="m 128.15386,22.096362 -0.79792,0.07611 v -0.0012 c -0.95419,0.07553 -1.64901,0.161598 -2.4527,0.930941 -0.55971,0.729531 -1.06177,1.317956 -1.7329,1.792794 -0.80498,0.533389 -1.61379,1.009398 -2.2561,1.843732 -0.90424,1.666912 -1.24236,3.359586 -0.94138,5.460351 0.17291,0.984222 0.24719,1.371821 -0.0102,2.231332 -0.9132,2.048071 -0.45917,4.1301 0.21453,6.602657 0.17162,0.409263 0.34132,0.819111 0.50591,1.231302 -0.0919,0.620492 -0.16108,1.243614 -0.20749,1.868323 0.23054,1.553325 0.54497,2.691532 1.51196,3.991923 0.95675,1.541615 0.93946,1.493604 1.41399,3.226092 0.54433,2.067977 1.36019,3.573292 2.6128,5.263038 0.88694,0.922159 1.58496,1.286338 2.632,1.50063 l 0.70892,0.02752 0.14601,0.529875 c 0.69162,0.581399 1.42359,0.936796 2.17477,1.289266 1.81743,0.736556 3.46452,0.54744 4.91884,-0.224831 0.36054,-0.35891 0.72109,-0.720162 1.0797,-1.080243 0.75182,0.23537 0.75759,0.23537 1.20522,0.254106 l 0.46941,-0.01932 c 0.92408,-0.02928 1.41526,-0.175649 1.89364,-0.955532 0.37655,-0.710794 0.74989,-1.423345 1.14245,-2.133553 0.43547,-0.533974 0.45853,-0.565591 0.82483,-1.138208 0.39128,-1.436225 0.0199,-2.851373 -0.63783,-4.597913 -0.80241,-1.346644 -1.62275,-1.981909 -2.81772,-2.610148 -0.91512,-0.106561 -1.79758,-0.158085 -2.45462,0.393454 -0.27153,0.41746 -0.54306,0.82965 -0.81586,1.236571 -0.30099,0.304459 -0.59749,0.613016 -0.88887,0.926257 -0.18763,0.710209 -0.18763,0.710209 -0.56995,1.200271 l -0.91255,-0.190873 c -1.08547,-0.363008 -1.87507,-0.374718 -2.86704,-0.275183 l -0.58788,0.312655 -0.20748,-0.737727 c -0.0916,-0.322023 -0.27345,-0.970169 -0.27345,-0.970169 -0.16906,-0.61126 -0.34581,-1.227789 -0.53152,-1.84666 -0.1569,-0.298604 -0.46941,-0.898153 -0.46941,-0.898153 1.01566,-0.01171 1.96088,-0.0059 2.85102,-0.404579 1.09571,-0.822039 2.04541,-1.094881 3.48373,-1.119472 0.45916,0.0018 0.91768,5.86e-4 1.37684,-0.0029 l 0.66601,-0.01 c 0.7198,0 1.12325,-0.04274 1.7393,-0.375889 0.96635,-1.15226 1.20266,-2.340234 1.13734,-4.324486 -0.3599,-3.726107 -0.2331,-7.444017 -2.21832,-10.568818 -0.52256,-0.25352 -0.52576,-0.255862 -1.00093,-0.604819 -0.0531,-0.221318 -0.15625,-0.663369 -0.15625,-0.663369 -0.0768,-1.14172 -0.0935,-2.052169 -0.51808,-3.035805 l -0.43034,-0.55271 c -0.58148,-0.832578 -0.54882,-0.791007 -1.21355,-1.573818 -1.23915,-1.060921 -2.39634,-0.987734 -3.84106,-0.711965 -0.47005,0.285138 -0.46941,0.284552 -0.95483,0.396968 -0.70699,-0.538658 -1.11108,-0.888786 -1.94295,-0.957874 z m 1.3,8.087479 c 1.00285,0.101291 1.42295,0.418045 2.25418,1.231887 0.50398,0.490061 0.51039,0.494745 1.43768,1.001201 0.12167,1.193829 0.44507,3.576219 0.44507,3.576219 -1.55807,0.486549 -2.89457,0.880589 -4.57432,0.542171 -0.73773,0.1534 -0.73837,0.1534 -1.31921,0.383501 -0.10182,-1.408707 -0.016,-2.643522 0.22478,-3.9767 0.0608,-0.344273 0.18828,-1.033403 0.18828,-1.033403 0.27921,-1.195587 0.42137,-1.490677 1.34354,-1.724876 z"
       style="fill:#f8f9f4;stroke-width:0.61233"
       id="path1-79" />
    <path
       d="m 131.8749,28.366613 c 0.79024,0.72309 0.66152,2.222549 1.57152,2.597853 0.63526,1.87652 -0.1204,2.100766 -1.80591,0.656929 -1.04512,0.314412 -1.93974,0.124125 -2.83821,-0.628239 -0.22094,1.679207 0.0371,1.501216 -0.87862,2.527593 0.40152,2.061537 0.30034,3.67107 -0.45212,3.898244 -0.65384,0.107731 -0.97723,-0.456689 -1.19433,-1.255893 0.19404,-1.276385 0.1633,-1.18856 -0.11847,-1.799234 -0.86133,-1.045699 -0.70891,-2.002402 -0.17098,-2.627714 0.37783,-0.596036 0.36246,-0.570274 0.47773,-1.711995 0.30739,-1.139964 0.3234,-1.151088 1.07522,-1.639979 0.30118,-0.09658 0.60599,-0.183483 0.91383,-0.260546 l 0.46109,-0.146375 c 1.05664,-0.313241 2.00442,-0.502357 2.95925,0.389356 z m 11.45212,23.404683 c 0.99645,2.738373 0.47901,2.133554 0.0756,3.206771 -0.4028,1.252965 -0.72492,1.415148 -0.96571,1.481309 -0.25039,0.06909 -0.42458,0.04157 -0.60004,0.897568 -0.2869,0.945579 -0.58404,1.233644 -1.40694,1.623585 -0.85557,0.133493 -1.64517,0.12354 -2.57822,-0.16511 -0.36246,0.357153 -0.7262,0.714307 -1.09059,1.070289 -1.46329,0.765246 -3.11422,0.954362 -4.92461,0.228344 -0.74798,-0.348371 -1.4761,-0.699669 -2.16388,-1.274628 L 128.82155,58.2873 c -1.15655,-0.233614 -1.59202,-0.554466 -2.62305,-1.485993 -0.52191,-0.757049 -0.52191,-0.757049 -0.83443,-1.356013 0.88246,-0.02693 1.32049,0.16394 2.03837,0.281039 1.16039,0.14052 1.80975,-0.09778 2.92531,-0.155157 1.35763,2.656403 4.29831,3.054541 5.23456,0.928014 0.24655,-0.830821 0.23823,-0.825552 0.73645,-1.138793 0.88694,0.166281 3.93521,2.123015 3.17186,-0.62941 0.34709,-1.498874 2.27531,-1.889986 3.34156,-2.685092 l 0.51488,-0.275184 z m -6.56722,-24.04873 0.26128,-0.47601 c 1.21995,1.022279 2.60447,4.292869 2.56285,5.214442 0.7864,3.334995 1.29679,8.209849 0.70827,11.030776 -0.76334,1.973713 -1.87827,2.004744 -3.29161,1.875935 -1.4031,-0.127639 -3.0726,-0.415118 -4.84392,0.91162 -0.88951,0.397552 -1.83472,0.392283 -2.85039,0.402822 0.93113,1.781084 1.47291,4.05867 1.51901,5.308122 -0.49054,0.40692 -1.03039,0.340174 -1.70216,0.34193 -0.10246,-1.969028 -0.57315,-3.783486 -1.46649,-5.90006 -0.81971,-0.613601 -1.11621,-0.573787 -1.94487,-0.546269 -0.0608,-0.509383 -0.17547,-1.531662 -0.17547,-1.531662 0.37015,-0.113001 0.56867,-0.378231 0.43867,-0.944993 1.29295,0.815598 2.44117,1.357184 3.59644,0.803303 0.86965,0.375304 3.29033,-1.35894 2.99255,-1.840219 1.25068,0.310313 2.13378,0.401651 3.26087,0.03747 l 0.83507,0.597207 c 0.85684,-0.125296 1.40886,-0.423315 1.81679,-1.339618 -0.001,-0.898739 -0.11335,-1.596653 -0.26384,-2.55277 -0.54241,-0.368278 -0.70827,-1.912821 -0.65128,-3.503033 0.0576,-1.605434 0.33685,-3.185107 0.5136,-3.672826 -0.29907,-0.354812 -0.89079,-1.062679 -0.89079,-1.062679 -0.16266,-1.120642 -0.36374,-2.022894 -0.42458,-3.152905 z"
       style="fill:#b2e1eb;stroke-width:0.61233"
       id="path1-6" />
  </g>
  <g
     id="bienvenido_v"
     transform="translate(-26.934035,3.7737677)">
    <path
       d="m 120.04162,29.418781 c 1.52541,1.277556 1.52733,2.816244 1.72905,5.041135 0.33365,1.690332 0.6833,1.856027 0.96379,2.239528 0.32532,0.444393 0.52704,1.041601 0.9465,3.919322 0.29458,2.017625 0.5834,3.111334 1.86034,4.719111 0.3631,0.710208 0.63078,1.37709 0.94394,2.121258 1.28718,-3.419307 -0.86773,-3.778802 0.3266,-8.731527 0.064,-0.974268 -0.016,-1.458474 -0.19212,-2.453235 -0.31828,-1.945609 0.48862,-3.489566 0.90999,-5.209172 0.33621,-1.279898 0.68778,-2.112476 1.5235,-2.909924 1.12068,-0.616529 2.09728,-0.662198 3.23525,-0.151644 0.88567,0.722504 1.243,1.348987 1.64261,2.684507 0.25808,2.292809 0.35542,3.968503 -0.10503,6.097373 -0.16458,1.573232 -0.26256,3.164614 -0.13256,4.783515 0.99709,1.826753 0.95227,4.367813 0.7736,5.615508 l -0.35094,0.80506 c -0.46492,1.223104 -0.13,2.720807 0.0864,4.227293 0.43803,3.44741 0.45276,3.420477 -0.11078,4.411724 -0.53793,1.518781 1.53886,4.457394 -0.40281,7.285933 -0.9433,1.060336 -2.10625,1.207296 -3.54649,1.073217 -0.20941,-0.06499 -3.36846,-1.093124 -3.98323,-4.167572 -0.6833,-2.754181 -2.10369,-1.863053 -2.86768,-4.795226 -0.62438,-2.590241 -0.7262,-2.863083 -2.31821,-4.457393 -0.85173,-1.435055 -1.43064,-2.911095 -1.45497,-4.483156 0.023,-0.515238 0.0666,-1.024035 0.11655,-1.529905 -0.94138,-0.468398 -1.41399,-0.861853 -2.35792,-2.973743 -0.55971,-1.742441 -0.64296,-3.046929 -0.25936,-4.610208 -0.61222,-0.06265 -1.22059,-0.240054 -2.27852,-2.341991 -1.24812,-5.261867 1.84753,-8.475078 5.30245,-6.209788 z"
       style="fill:#f8f9f4;stroke-width:0.61233"
       id="path1-60" />
    <path
       d="m 121.34215,31.483414 c 0.0884,0.264645 0.26896,0.79452 0.26896,0.79452 0.0295,0.358325 0.0961,1.076145 0.0961,1.076145 0.032,0.353055 0.10118,1.059751 0.10118,1.059751 0.23375,1.127668 0.57636,1.709067 1.13542,2.633568 0.53793,1.114202 0.63014,2.32911 0.8133,3.54753 0.30226,2.014698 0.59428,3.112506 1.87826,4.715598 0.76207,1.597238 1.13798,2.88182 1.58369,4.53468 -0.68842,0.02108 -1.07265,-0.165111 -1.79501,-0.550368 l -0.60902,-0.322609 -0.46364,-0.251179 c -0.23823,-0.905765 -0.69162,-2.72432 -0.69162,-2.72432 l -0.99197,-0.579057 c -0.29074,-2.633569 -0.27857,-2.987209 -0.23566,-4.065111 0.016,-1.393484 -0.21261,-2.599609 -0.75054,-3.955036 -0.48734,-0.35247 -0.48606,-0.351299 -0.95098,-0.573788 -0.25424,-1.14172 -0.34197,-1.68799 0.023,-2.652304 0.11847,-0.266987 0.3599,-0.800961 0.3599,-0.800961 0.16778,-1.10542 0.14473,-0.89991 0.22862,-1.886474 z m 12.73419,-0.268158 c 0.23374,2.329695 0.36694,3.802807 -0.0807,5.967978 -0.14473,1.525806 -0.30099,2.714952 -0.16843,4.287599 0.15242,0.368278 0.46429,1.103077 0.46429,1.103077 0.51743,1.864225 0.68137,4.428119 0.0941,4.994295 -0.8863,1.349572 -0.13448,3.286399 0.20109,5.146525 0.44571,3.413451 0.39896,3.468488 -0.17547,4.461492 -0.76911,2.378291 2.26378,3.972601 -0.84019,7.002552 -0.95867,1.051553 -2.1261,1.199099 -3.56442,1.068533 -1.38325,-0.425657 -2.08063,-1.009398 -3.16546,-2.330281 -0.41433,-0.644047 -0.54817,-1.22369 -0.73261,-1.962588 -0.0744,-0.439123 -0.15019,-0.878053 -0.22734,-1.316784 0.46237,0.457859 1.38325,1.363038 1.38325,1.363038 0.14345,0.550368 0.41561,1.640565 0.41561,1.640565 0.85301,0.303288 1.42808,0.339589 2.21576,0.206095 0.10887,-0.453761 0.20941,-0.912205 0.30226,-1.375919 0.40601,-0.333734 0.82867,-0.591353 1.28335,-0.841946 0.45019,-0.388185 0.4963,-0.678006 0.48478,-1.437982 -0.16937,-0.664107 -0.35793,-1.323998 -0.56547,-1.978982 0,0 -0.28754,-1.583771 0.3029,-1.995962 0.50976,-0.546269 0.3868,-1.226617 0.32917,-2.202642 -0.13769,-0.92333 -0.39128,-1.745954 -0.6833,-2.692118 -0.26576,-0.898739 -0.27857,-0.955532 -0.41818,-1.71785 0.42202,-0.778127 0.42586,-0.782225 0.98492,-1.260577 0.43291,-0.856583 -0.27152,-4.522384 -1.28334,-4.619576 -0.26768,-0.702012 -0.27409,-0.727774 -0.31187,-1.558009 0.25103,-0.398139 0.50591,-0.795692 0.78128,-1.170996 0.40729,-0.761147 0.75502,-4.268863 0.75502,-4.268863 0.54817,-0.471326 0.70315,-0.971926 0.9862,-1.800405 0.0897,-0.254692 0.27281,-0.764075 0.27281,-0.764075 0.29906,-0.742411 0.4995,-1.371821 0.95931,-1.946194 z"
       style="fill:#b2e1eb;stroke-width:0.61233"
       id="path1-50" />
  </g>
  <g
     id="bienvenido_n1"
     transform="translate(-25.378721,19.46196)">
    <path
       d="m 97.582068,16.360364 c 0.527683,0.626482 0.86645,1.063849 1.211621,1.895841 1.376841,0.07143 2.509051,-0.456688 3.310821,-1.903453 0.60197,-0.960216 1.48251,-0.912205 2.39187,-0.961973 1.3461,0.06206 2.29708,0.873563 3.32619,2.250653 0.4835,0.796863 0.58019,1.225447 0.77872,2.234259 0.24334,1.11713 0.25359,1.122985 0.99068,1.583772 1.09827,0.87122 1.52862,1.68916 2.0832,3.298108 0.25167,0.978952 0.4694,1.951464 0.68842,2.936856 l 0.17098,0.751779 c 0.3298,1.553911 0.37335,2.49949 0.19916,3.893559 0.3631,0.894055 0.77488,1.625927 1.26414,2.439769 1.25516,2.504759 1.71368,5.240204 1.62915,7.566386 0.27153,0.807987 0.50463,1.283411 0.95547,1.987765 0.64359,1.871836 0.87797,3.4357 0.29586,4.922279 -0.36054,0.495916 -0.72429,0.581399 -1.28399,0.720747 -0.72492,0.177406 -0.72172,0.17682 -1.35827,0.551539 -1.08226,0.142861 -1.7931,0.0012 -2.87984,-0.733629 -0.70379,-0.634679 -0.99389,-0.944993 -1.446,-1.89994 -0.14188,-0.55172 -0.27808,-1.104652 -0.40857,-1.658714 -0.0704,-0.295677 -0.21582,-0.8882 -0.21582,-0.8882 -0.17867,-0.843117 -0.17418,-0.806231 -0.22157,-1.469599 0,-0.526948 -6.4e-4,-0.528705 -0.39256,-1.067363 -0.48222,-1.382945 -0.77488,-2.455577 -0.49951,-3.644137 0.0307,-0.337247 0.0897,-1.012911 0.0897,-1.012911 -0.31571,-0.626482 -0.66921,-1.129425 -1.05665,-1.695016 -0.81458,-1.351328 -1.10403,-2.884747 -1.17704,-4.331511 -0.003,-0.453761 0.004,-0.904009 0.0224,-1.350158 -0.0372,-0.731872 -0.14986,-1.103663 -0.50976,-1.78811 -0.68457,-0.343687 -0.68393,-0.343687 -1.34866,-0.544512 l -0.26896,-0.288651 c -0.42522,-0.05269 -0.42587,-0.05269 -0.89783,-0.03513 l -0.4867,-5.85e-4 c -0.53473,0.147545 -0.63143,0.360666 -0.82419,1.032818 0.0768,0.650488 0.0813,0.671566 0.2869,1.385873 l 0.21069,0.815012 c 0.15177,0.562078 0.463,1.686234 0.463,1.686234 0.43803,1.637637 0.61734,2.623615 0.41434,4.085017 0.23886,1.154016 0.2395,1.157529 0.82994,2.012941 0.91128,1.548055 1.19561,3.250097 1.56256,4.904128 0.0935,0.379402 0.27665,1.136451 0.27665,1.136451 l 0.27216,0.278111 c 0.44892,1.550398 0.44315,2.620102 -0.0679,3.79988 -0.4931,1.01174 -0.89462,1.255307 -1.90836,1.358355 -0.31059,0.01464 -0.6199,0.0281 -0.92985,0.03981 l -0.46621,0.03103 c -0.94714,0.03513 -1.56063,-0.05035 -2.47575,-0.850143 -1.202657,-1.279898 -1.671424,-2.202642 -2.112013,-4.068037 -0.289457,-1.306831 -0.484776,-2.212596 -0.276649,-3.359 0.146009,-0.744754 0.144728,-0.751779 -0.105024,-1.585528 -0.208768,-0.376475 -0.422018,-0.750608 -0.63719,-1.122985 -0.936893,-1.833193 -1.205857,-3.981969 -1.277581,-5.839753 -0.137044,-0.816184 -0.461082,-1.299805 -0.85108,-2.045143 -0.667929,-2.164585 -0.972755,-3.885363 -0.747978,-5.860832 -0.206846,-0.810914 -0.459801,-1.179192 -0.889504,-1.86481 -0.816499,-1.305074 -1.132852,-2.634739 -1.298714,-4.174598 0.08453,-1.598994 0.60453,-2.659331 1.419748,-3.619547 1.181523,-0.943822 2.824127,-1.172751 4.175353,0.06558 z"
       style="fill:#f8f9f4;stroke-width:0.61233"
       id="path1-13" />
    <path
       d="m 98.781474,18.16763 0.993243,0.16394 C 99.652406,18.716242 99.4129,19.485 99.4129,19.485 c -0.289457,1.00003 -0.47389,0.943822 -0.339408,2.117745 l -0.629505,0.190287 c -0.484136,-0.05562 -0.215812,0.991833 -0.701869,0.907521 -0.08709,-0.646389 -0.09029,-0.683861 -0.07493,-1.483651 0.259359,-0.418045 0.525122,-0.831407 0.796648,-1.241255 0.219654,-0.995346 0.201723,-0.889956 0.317634,-1.808017 z m 5.786566,7.891338 c 0.49503,0.089 0.99069,0.169794 1.48379,0.231857 0.19212,0.906935 0.1934,0.891127 0.0468,1.623585 -0.14024,0.868293 -1.07714,0.813841 -1.81359,0.567932 -3.60668,-1.378847 -2.13891,2.369509 -1.50876,4.590887 0.44059,1.637052 0.62118,2.62303 0.41754,4.08209 0.2395,1.15343 0.24014,1.155772 0.83058,2.010599 0.91128,1.546885 1.19369,3.245999 1.55615,4.896517 0.0922,0.378817 0.27281,1.134109 0.27281,1.134109 l 0.27217,0.27694 c 0.44443,1.552154 0.48029,2.833223 -0.0442,4.012416 -1.00542,2.015868 -4.46289,1.788109 -6.220123,-0.0486 -0.536003,-0.685032 -0.925361,-1.213736 -1.307675,-2.069148 -0.07236,-0.839604 -0.06276,-0.67625 -0.09478,-1.413392 0.485417,0.713136 0.933051,1.347816 1.588168,1.620658 0.8927,0.02927 1.72585,-0.139934 2.56989,-0.314413 -0.0596,-0.281038 -0.18187,-0.842531 -0.18187,-0.842531 0.86452,0.213121 1.72457,-1.831436 0.95866,-2.963203 -0.10502,-1.651104 -0.42586,-3.256538 -1.43319,-4.798154 l -0.7531,-0.563248 -0.47518,-2.628885 c 0.57316,-0.07494 1.1098,-0.06792 1.27631,-0.835505 -0.048,-1.24711 -0.3138,-2.227233 -1.08931,-3.188035 -0.56034,-0.699669 -0.56355,-0.705524 -0.73709,-1.384116 0.0461,-1.578502 0.21581,-3.015313 1.00413,-3.985482 1.08355,-0.824381 2.00571,-0.601892 3.38191,-0.01347 z m 6.23998,-3.12363 c 1.12965,1.265846 1.34674,2.957934 1.73738,4.724966 1.10916,3.070935 0.93049,3.699759 0.69163,4.077991 -0.22094,0.348956 -0.45981,0.396382 0.73261,2.15873 1.16295,1.696186 1.32689,4.257739 1.76235,6.147725 0.066,0.824381 0.0384,1.543372 0.008,2.325597 0.27024,0.805644 0.50206,1.279312 0.95162,1.981324 0.63847,1.865981 0.86453,3.42399 0.27281,4.904713 -0.36439,0.49416 -0.72941,0.579643 -1.29039,0.718992 -0.72685,0.17682 -0.72364,0.176234 -1.36404,0.550367 -1.32689,0.175064 -2.21255,-0.146374 -3.4626,-1.243597 -0.48413,-0.577886 -0.6327,-0.923915 -0.91063,-1.655202 1.34738,-0.09778 2.35664,-0.521092 2.86575,-2.041044 0.84404,0.680933 2.59807,-0.639364 0.95162,-2.409909 -0.6231,-0.654001 -0.77295,-1.310343 -0.99133,-2.196201 -0.064,-0.566762 -0.064,-0.562078 0.21646,-1.302733 0.43675,-0.451418 0.43547,-0.451418 1.05729,-0.467812 -0.20621,-2.029921 -0.64232,-3.463804 -1.84305,-5.299925 l -0.56547,-0.58257 c -0.57379,-0.885858 -1.69832,-2.656403 -1.69832,-2.656403 l 0.0813,-0.740654 c 0.21838,-2.254166 0.77103,-4.563955 0.79665,-6.994355 z"
       style="fill:#b2e1eb;stroke-width:0.61233"
       id="path1-4" />
  </g>
  <g
     id="bienvenido_e1"
     transform="translate(-19.151911,9.8387069)">
    <path
       d="m 72.852892,27.06548 c -0.661524,0.06089 -1.27566,0.295676 -1.761717,0.874734 -0.448915,0.67742 -0.445713,0.676835 -1.066252,0.678006 -1.497235,0.08665 -2.259942,1.276385 -2.993831,2.772331 -0.477091,1.141135 -0.548175,2.050998 -0.233742,3.523525 l 0.259358,1.0053 -0.762066,0.05679 c -0.389358,0.887029 -0.641032,1.736 -0.699307,2.872451 0.210688,1.522294 0.459801,3.019997 1.307679,4.359616 l 0.429703,0.625897 c 0.231822,0.800961 0.232462,0.801546 0.140246,1.321468 -0.105666,0.594725 -0.168135,1.1952 -0.186995,1.797478 0.301625,1.983666 0.810736,3.67107 1.973687,5.301095 l 0.641032,0.260547 c -0.118472,0.645804 -0.146009,1.117129 -0.05251,1.857784 0.448274,2.180393 0.814578,3.467317 2.133785,5.128959 0.797287,0.726017 0.795366,0.726017 2.352158,0.567933 l 0.380392,-0.05972 c 0.03202,0.18736 0.09286,0.560322 0.09286,0.560322 0.750539,0.934454 1.570881,1.668668 2.466788,2.14175 1.392212,0.567933 2.824127,0.480108 3.978113,-0.355397 0.397683,-0.603063 0.57379,-0.846044 1.219946,-0.914547 0.631426,0.04391 1.238517,0.04684 1.857135,-0.0094 0.806893,-0.367107 1.244281,-1.029305 1.47162,-2.125357 0.05635,-0.340174 0.117832,-0.676835 0.183152,-1.009983 0.657682,-1.300976 1.082262,-2.251824 0.787681,-4.133614 -0.489259,-1.588455 -1.009257,-2.634154 -2.113292,-3.688635 -0.899109,-0.511725 -1.338418,-0.583741 -2.136346,-0.385843 -0.598766,0.4239 -1.043198,0.891128 -1.235956,1.840805 l 0.0064,0.502942 c -0.815859,0.02401 -0.881178,0.01639 -1.266054,0.755292 l -0.381673,0.726017 c -1.050242,-0.643462 -1.918613,-0.636436 -2.87856,-0.485963 l -0.329161,0.295677 c 0.01281,-1.261748 -0.200443,-2.559211 -0.858765,-3.763579 l -0.30867,-0.489442 c 1.200094,-0.32905 2.074868,-0.762904 2.902254,-1.833194 L 78.03366,47.064909 c 1.152705,0.887029 1.884672,1.224861 3.011121,1.17685 0.153694,-0.01171 0.459801,-0.03689 0.459801,-0.03689 0.893346,-0.03337 1.791175,0.05094 2.351518,-0.771101 0.335565,-1.022864 0.384875,-1.811529 0.149211,-3.107821 -0.142167,-0.636436 -0.145369,-0.652245 -0.236945,-1.272287 0.151773,-1.207296 -0.05507,-2.132382 -0.352856,-3.471415 L 83.216989,38.71161 C 82.899995,37.199269 82.704035,35.74665 81.841428,34.498369 L 81.294533,33.796947 C 80.711777,32.333788 80.173848,31.141715 79.406019,29.870599 L 79.04868,29.292713 c -0.496303,-0.831407 -0.493101,-0.830236 -1.036153,-1.364795 -0.895908,-0.276355 -1.608664,-0.259961 -2.372651,0.175649 l -0.325319,0.332563 c 0,0 -0.601327,-0.98305 -1.229552,-1.327323 -0.418816,-0.05269 -0.83443,-0.07904 -1.232113,-0.04274 z m 1.767481,9.595136 c 0.723642,-0.0281 1.4729,0.21839 2.314375,0.710208 0.168423,1.049212 0.525761,3.161102 0.525761,3.161102 l -1.578565,0.279868 c -0.487338,0.07319 -0.487338,0.07377 -0.800489,0.421558 -0.406649,-0.01347 -0.403447,-0.01347 -0.885021,-0.07963 -0.518718,-0.06909 -0.990046,-0.108318 -1.491472,-0.0808 -0.352856,-1.819141 -0.349014,-1.825582 0.05571,-2.658159 l 0.379752,-0.525777 c 0.06404,-0.292164 0.194039,-0.874734 0.194039,-0.874734 0.429062,-0.220732 0.853001,-0.336661 1.286546,-0.35364 z"
       style="fill:#f8f9f4;stroke-width:0.61233"
       id="path1-184" />
    <path
       d="m 75.697184,33.868162 c 0.39128,1.021693 1.200094,3.083816 1.200094,3.083816 0.650638,0.909278 -3.66304,0.933869 -2.872796,1.187389 0.06724,0.83492 -1.180882,3.261222 -1.180882,3.261222 -0.381674,0.0322 -0.744776,0.711965 -1.131572,0.720162 -0.08325,-0.449662 -0.484777,-0.551539 -0.563545,-0.999444 -0.427141,-1.651104 -0.184433,-1.451449 0.411772,-2.51764 1.244921,-2.139994 -0.649357,-0.594866 1.109799,-3.264735 1.06433,0.190872 1.061769,0.192043 1.940386,-0.257619 0.774233,-1.192659 0.779997,-1.192659 1.086104,-1.213737 z m 10.54853,19.56616 0.399604,-0.01112 c 0.416255,1.493604 0.529604,2.432157 0.22862,3.707371 -0.235024,0.478351 -0.71916,1.434469 -0.71916,1.434469 -0.06766,0.335069 -0.130207,0.67098 -0.187634,1.007642 -0.233103,1.09488 -0.674973,1.755907 -1.484428,2.122429 -0.619259,0.05621 -1.22635,0.05387 -1.858416,0.01 -0.646796,0.0685 -0.824184,0.310899 -1.22571,0.913376 -1.159108,0.83492 -2.592945,0.92333 -3.981954,0.356568 -0.893347,-0.471911 -1.709846,-1.206125 -2.456542,-2.138823 -0.02946,-0.187359 -0.0903,-0.560321 -0.0903,-0.560321 l -0.381033,0.05972 c -1.558073,0.158084 -1.554231,0.158084 -2.37137,-0.618871 -0.924085,-1.130011 -0.913839,-1.108933 -1.214183,-1.868909 0.01281,-0.282795 0.03586,-0.8478 0.03586,-0.8478 1.483787,0.395211 3.055308,0.881174 4.567273,0.960216 l 0.539209,0.02752 c 0.105665,0.265816 0.313792,0.797448 0.313792,0.797448 0.519358,1.170995 0.876056,1.446179 1.759796,1.966101 1.018223,0.194386 1.872505,-0.04391 2.688364,-0.634679 l 0.173546,-0.455517 c 0.276649,-0.401652 0.274728,-0.401652 0.872213,-0.418631 l 0.709554,0.105389 c 1.159109,0.194971 1.164232,0.194386 2.039647,-0.459615 0.05251,-0.58257 0.862608,-3.089671 0.862608,-3.089671 0.619899,-0.583156 0.741573,-1.226618 0.780637,-2.36424 z M 79.616381,30.693593 c 0.78512,0.763489 1.069454,1.529906 1.522851,2.68158 0.320196,0.744753 0.324678,0.751193 0.888863,1.42393 0.831869,1.375334 1.033592,2.593755 1.371719,4.191578 l 0.200443,0.870635 c 0.300343,1.339033 0.50847,2.264705 0.358619,3.472001 0.09158,0.620627 0.09414,0.634679 0.237585,1.271701 0.236945,1.295706 0.187635,2.084371 -0.148571,3.10665 -0.560983,0.821453 -1.459452,0.736556 -2.354079,0.768759 l -0.460442,0.03747 c -1.127089,0.04684 -1.859697,-0.291577 -3.013042,-1.178606 l 0.138325,0.572031 c -0.829307,1.069704 -1.704723,1.502387 -2.906097,1.830851 0.696105,1.01174 1.018222,2.206155 1.169995,3.395886 -0.09734,1.001201 0.140246,1.1587 -0.176748,1.880033 -0.615416,0.124711 -0.852361,-0.03162 -1.413344,-0.121783 -0.17931,-1.678622 -0.191477,-1.656959 -0.03714,-1.993034 -0.211329,-1.371821 -0.765908,-3.387104 -2.11009,-3.888876 l -0.347092,-0.02225 c 0.04867,-0.974854 0.208768,-1.4696 0.694825,-2.030506 0.397042,-0.228344 2.100484,0.272842 2.778659,0.174478 l 0.183152,-0.871806 c 0.569948,-0.278697 2.569251,-1.551569 2.569251,-1.551569 0.429062,-0.108317 0.429062,-0.108317 0.974675,-0.03981 0.530245,0.706696 0.527043,0.702012 0.936253,1.415148 0.465565,-0.0726 0.465565,-0.0726 0.908716,-0.325537 0.384234,0.114173 1.323048,-4.204458 0.604529,-6.656522 -0.07621,-0.333734 -0.225418,-0.999445 -0.225418,-0.999445 -0.171625,-0.81794 -0.167782,-0.810914 -0.534086,-1.395826 -0.194679,-0.772272 -0.340048,-1.540445 -0.49054,-2.312716 l -0.842115,-0.240054 c -0.112709,-0.521678 -0.221576,-1.043357 -0.32724,-1.56445 -0.0602,-0.292749 -0.178029,-0.878246 -0.178029,-0.878246 -0.118472,-0.718406 -0.116551,-0.722504 0.02562,-1.021694 z"
       style="fill:#b2e1eb;stroke-width:0.61233"
       id="path1-88" />
  </g>
  <g
     id="bienvenido_i1"
     transform="translate(-13.113791,21.914946)">
    <path
       d="m 47.411905,6.1154486 c 0.863248,0.4520041 1.515807,0.8337486 2.003786,1.9368262 l 0.215171,1.0685332 0.5232,-0.130566 c 0.646795,-0.0082 0.649357,-0.0082 1.187926,0.3231947 0.570589,0.8214533 0.738372,1.4192463 0.908076,2.4450383 0.03202,0.925672 -0.203645,1.437397 -0.534727,2.137066 -0.231822,0.544513 -0.323398,1.065606 -0.421378,1.703798 -0.235664,1.131182 -0.635909,1.486579 -1.42231,1.88179 l -0.418816,0.171551 -0.386156,0.176235 c -0.606451,0.233613 -1.017582,0.273427 -1.704082,-0.0088 -0.53985,-0.479523 -0.699307,-0.722504 -0.929848,-1.491262 l -0.458521,-0.03513 c -0.598125,-0.136421 -0.819701,-0.275184 -1.303837,-0.857754 -0.447634,-0.93504 -0.624382,-1.613046 -0.788962,-2.627128 l 0.221575,-0.825552 C 44.307287,11.068173 44.301524,10.971566 43.980687,10.04648 43.632314,9.0370818 43.632314,9.0382528 43.627191,8.4580247 43.850048,7.7208831 44.18049,7.6295455 44.751078,7.368999 45.737281,6.9111399 46.264324,6.0785622 47.411905,6.1160341 Z m 4.03959,12.9313014 c 0.55586,0.200825 0.983001,0.532803 1.427433,1.125912 0.731327,1.440324 1.116202,3.302206 1.048321,4.8245 l -0.08709,0.589011 -0.138325,0.972512 c 0.357339,0.721333 0.761426,1.254135 1.218025,1.892328 1.190488,1.686233 1.485708,3.541675 1.702801,5.562228 0.09478,1.114787 0.01153,2.022308 -0.105024,3.053955 0.26256,0.768759 0.548815,1.292194 0.946499,2.002402 0.898469,1.803333 1.168714,3.862528 1.5062,5.797598 l 0.386157,-0.01171 c 0.682657,1.021693 1.007233,2.130111 0.964429,3.069179 -0.0428,0.939068 -0.389358,1.572061 -0.933691,2.236015 -0.653839,0.364765 -1.177039,0.382916 -1.925017,0.312071 -0.436747,0.01171 -0.435466,0.01171 -0.713396,0.480108 -0.563544,0.726017 -1.247483,0.623555 -2.051814,0.611845 -0.928568,-0.18736 -1.476743,-0.735971 -2.183736,-1.750638 -1.011818,-1.679208 -1.368516,-3.558655 -1.57088,-5.515388 0.07685,-0.75295 0.202364,-1.432713 0.336206,-2.144678 0.07685,-0.960802 -0.205566,-1.586699 -0.612215,-2.529935 -0.796006,-1.867738 -0.770391,-3.206771 -0.58916,-4.928134 0.03202,-0.633509 0.03202,-0.635265 -0.293299,-1.191488 L 49.4317,32.989205 c -0.7531,-1.360696 -1.27566,-2.496562 -1.515166,-4.039934 0.04675,-0.565005 0.108866,-1.121813 0.185713,-1.670424 -0.14857,-0.802132 -0.14857,-0.802718 -0.519997,-1.403438 -0.553939,-1.113031 -0.846598,-2.051584 -0.747978,-3.2056 0.185073,-1.053896 0.334925,-1.750638 1.032311,-2.256508 0.393841,-0.12354 0.395122,-0.124125 0.813298,-0.200826 0.575712,-0.131151 0.807533,-0.209022 1.218665,-0.723089 0.485417,-0.532217 0.857484,-0.554466 1.552949,-0.442636 z"
       style="fill:#f8f9f4;stroke-width:0.61233"
       id="path1-59" />
    <path
       d="m 51.238141,10.366074 0.584038,-0.06616 c 0.576992,2.007086 0.577633,2.000645 0.358619,2.957934 -0.13639,0.327843 -0.280727,0.652871 -0.432905,0.974853 -0.231181,0.544513 -0.321476,1.065606 -0.418816,1.70497 -0.462363,2.231917 -2.905456,2.637666 -3.926241,2.215523 -0.55714,-0.495331 -0.646795,-0.731872 -0.929848,-1.493019 -0.904233,-0.29392 -1.453689,-0.895812 -1.688713,-1.208468 0.562905,-0.391112 1.235956,-0.841945 1.453689,-1.669839 0.267684,-0.777541 0.343891,-0.865365 1.135414,-1.052725 1.556152,1.106591 1.255168,-0.09368 1.426793,-0.711379 0.774233,-0.089 2.318217,-0.262889 2.318217,-0.262889 0.03906,-0.464299 0.07877,-0.926257 0.119753,-1.3888 z m 2.475754,12.766191 c 0.577633,3.75304 -0.429703,2.762378 0.286896,4.175769 1.68551,2.243042 2.533389,3.65292 2.880481,6.876085 0.09478,1.119471 -0.17931,2.063879 -0.296501,3.097868 0.26192,0.769344 0.548175,1.29395 0.945217,2.004158 0.892706,1.796892 1.604181,5.277676 1.604181,5.277676 0.6865,1.028134 1.152705,2.366581 1.234035,3.579733 -0.171625,1.028719 -0.395762,1.571475 -0.942016,2.234844 -1.57024,0.872392 -1.976889,-0.320853 -2.642256,0.791593 -0.566106,0.726017 -1.249404,0.621798 -2.052455,0.614773 -1.081621,-0.201997 -2.064622,-1.194416 -2.612797,-2.579118 0.669849,-0.01756 1.380684,0.06792 2.067184,0.224246 0.407929,-1.51234 1.366595,-2.049242 2.503931,-2.306861 0.01153,-0.655757 0.02113,-1.96493 0.02113,-1.96493 l -0.772953,-0.79979 c 0.09094,-1.466086 0.383595,-2.8947 -0.316353,-4.465005 -0.591722,-0.883516 -0.957386,-1.2354 -1.712407,-1.644077 -0.136404,-1.046284 0.243348,-3.660531 0.243348,-3.660531 l -0.680092,-0.800376 -0.256157,-1.104834 c 0.538569,-0.642291 1.581767,-0.91162 1.6362,-2.06505 -0.190836,-0.937967 -0.357978,-1.59958 -0.767189,-2.475484 -0.643593,-0.295676 -0.651918,-0.298604 -1.262852,-0.468398 -0.633987,-2.7413 -0.628864,-2.745399 -0.307388,-3.483711 0.678815,-1.015253 0.680736,-1.015253 1.198813,-1.05858 z"
       style="fill:#b2e1eb;stroke-width:0.61233"
       id="path1-63" />
  </g>
  <g
     id="bienvenido_b"
     transform="translate(12.170834,17.763739)">
    <path
       d="M -0.37230993,5.9828805 C -1.0267901,6.0941251 -1.6396448,6.3253966 -2.1622043,6.6819647 -2.8973738,7.5543562 -3.445549,8.4560226 -4.6565294,8.2347045 -6.1697746,7.8763799 -7.691345,8.0344643 -8.7729663,9.0661111 c -0.3727079,0.5322174 -0.6999479,1.0948809 -1.1860051,1.4713559 -1.1482216,0.784567 -1.7002396,1.834364 -2.1837356,3.395886 -0.09606,0.997103 0.05635,1.614217 0.420097,2.636496 l 0.335565,0.480108 -0.02754,0.503528 c -0.119113,0.966657 -0.106305,1.937997 -0.0064,2.964375 0.352855,1.648761 0.699307,3.022924 1.8763469,4.17694 0.5981257,0.586669 0.909356,0.825552 1.1603895,1.649932 -0.030098,1.218421 0.030739,2.324426 0.4028063,3.580904 0.348373,0.459616 0.3541365,0.468398 0.6564013,0.939138 l -0.0064,0.506456 c -0.3611808,1.994205 -0.2299006,3.844963 0.7133962,5.940459 0.42522,0.835505 0.6423127,1.405194 1.3774822,1.808602 l 0.4034467,0.142861 c -0.054433,0.516409 -0.054433,0.515238 0.087734,1.144063 l 0.1966002,0.733043 c 0.1184725,0.45259 0.2459104,0.905179 0.3823138,1.356012 l 0.315713,0.475425 c 0.036502,0.728944 0.035862,0.730115 -0.097339,1.197928 -0.1966002,0.742411 -0.3233977,1.390557 -0.2587182,2.252995 0.2689645,1.610118 0.6531994,2.691532 1.7117666,3.98314 l 0.4719686,0.507627 c -0.2170927,0.625897 -0.2164523,0.623555 -0.3182746,1.041014 -0.106305,1.106591 0.315713,2.347261 0.8453169,3.456779 0.82610505,1.232472 1.63491958,2.23543 2.7293487,2.825611 1.502999,0.508212 2.6614673,0.224246 3.7687043,-0.688545 l 0.2612798,-0.231857 c 1.2628521,1.186804 2.571172,1.708482 3.9179155,1.887644 1.5471863,0.03337 2.9381163,-0.117099 3.8999843,-1.659885 0.352216,-0.587255 0.496944,-0.892884 1.084824,-0.93504 0.586598,0.431512 0.888863,0.528704 1.509403,0.573202 l 0.742854,-0.02752 c 1.269896,-0.02927 1.998021,-0.317926 2.84654,-1.48775 0.198522,-0.767587 0.304186,-1.495946 0.765268,-1.96493 0.587239,-0.453175 1.002213,-0.812085 1.4063,-1.562108 0.480934,-1.497703 0.584037,-3.401156 0.165221,-5.224981 -0.265763,-0.926257 -0.265763,-0.91806 -0.201723,-1.545714 0.26256,-1.305659 0.318915,-2.363068 0,-3.853745 -0.689702,-2.715538 -2.048613,-5.0587 -3.835946,-6.785918 -0.651278,-0.538658 -0.756943,-0.569104 -1.440881,-0.471911 l -0.42586,0.275184 C 15.503642,33.734882 15.503002,33.733125 15.182806,33.26824 L 14.800487,32.798087 14.417533,32.322663 14.121672,31.96551 c 0.217093,-0.254692 0.431624,-0.513482 0.632707,-0.789251 0.649357,-1.02989 1.005415,-2.037532 0.849159,-3.601982 -0.09862,-0.849557 -0.115911,-1.15343 0.09734,-1.895256 0.238866,-0.690887 0.238225,-0.686788 0.302264,-1.184461 0.09094,-1.595481 -0.104383,-3.290497 -0.911277,-4.832112 -0.721721,-0.891128 -1.010538,-1.583186 -1.346103,-2.724321 -0.201083,-0.731872 -0.315713,-1.25882 -0.711475,-1.884717 -0.521279,-0.642291 -0.865169,-1.152259 -1.535659,-1.322054 l -0.382954,-0.04274 -0.11399,-0.536901 -0.158817,-0.707867 -0.153694,-0.700255 C 10.251786,10.28219 9.2418884,9.2921132 8.2211043,8.4179652 7.1049018,7.8441775 6.3261857,7.7581094 5.2829878,8.0250963 5.1741213,8.1304859 4.9589497,8.3418505 4.9589497,8.3418505 L 4.8244675,7.8201721 C 4.2269822,7.1767102 3.722994,6.7721313 3.0268884,6.3968273 1.9292573,5.9442377 0.72083845,5.7966923 -0.37230993,5.9828805 Z M 0.8911826,19.047675 c 1.045119,-0.175649 1.679747,-0.05679 2.757526,0.768173 l 0.6621649,0.608918 c 0.6333472,0.558564 1.0182225,0.718405 1.7028011,0.936796 1.1898475,3.626572 1.1860052,3.645894 0.847238,4.826257 -0.3394075,0.514652 -0.3400479,0.515238 -0.7063519,0.930941 -0.3727078,0.367107 -0.3727078,0.366522 -0.448274,0.992419 -0.1933983,0.512896 -0.1933983,0.512896 -0.8100953,0.683275 l -0.7601448,0.04977 C 3.2952125,28.90687 2.5485159,28.97186 1.8101445,29.353605 L 1.6410811,28.623489 1.405417,27.658589 C 1.3298508,27.340078 1.1767972,26.704813 1.1767972,26.704813 0.85468028,25.710053 0.47941083,25.160856 -0.09502039,24.330035 -0.16930581,23.444177 -0.16930581,23.449446 -0.18915795,22.48923 -0.40240833,21.421868 -0.71299823,20.439988 -1.1990554,19.448155 -0.65752496,19.339429 -0.11442406,19.237347 0.43010068,19.14194 L 0.8911826,19.04826 Z m 6.4231272,18.392238 c 0.094138,-0.01756 0.1946791,0.01405 0.395762,0.07846 0.3835946,0.260547 0.7659083,0.524606 1.1482221,0.792179 0.664086,0.484206 0.6564013,0.481279 1.2090591,0.661612 0.810095,0.374719 1.495955,1.042186 2.231765,1.731317 -0.0397,0.125882 -0.121034,0.376475 -0.121034,0.376475 -0.431624,1.610118 -0.198522,2.843762 0.329161,4.727308 l -0.348373,0.150473 c -0.986203,0.467812 -1.494674,0.886443 -1.991618,2.13004 -0.5609828,0.03103 -0.5571404,0.03045 -1.2103398,-0.4643 C 7.8022882,46.841249 6.7302728,47.143365 5.6550553,47.295595 L 5.5148096,46.834223 5.1280131,45.577745 C 4.9371764,44.966485 4.9314129,44.951848 4.6259461,44.287308 4.3659471,43.47171 4.5305278,43.080597 4.694468,42.380927 4.6899853,41.578796 4.5426952,40.852779 4.3403315,40.032496 L 4.1783124,39.3662 C 4.0143722,38.729764 4.0118106,38.722738 3.6282161,38.018384 l 0.4879783,0.08197 c 1.0278285,0.09075 2.0319624,0.161597 2.837575,-0.443807 0.1773885,-0.132908 0.2657625,-0.199069 0.3605404,-0.216634 z"
       style="fill:#f8f9f4;stroke-width:0.61233"
       id="path1-2" />
    <path
       className="nube02"
       fill="#b2e1eb"
       d="m 13.274038,16.171963 0.577633,-0.07494 0.158176,0.58257 c 0.398964,1.406951 0.6865,2.421033 1.583048,3.52938 0.806894,1.543371 1.002213,3.239558 0.911918,4.83621 -0.203004,1.567963 -0.632707,1.072632 -0.398964,3.080303 0.242708,2.447381 -1.09507,4.745459 -2.480877,5.029425 -2.374572,0.566762 -2.957968,-1.104834 -3.072599,-1.572061 0.283053,-0.09661 0.560983,-0.202582 0.840194,-0.307386 0.860046,-0.222489 1.431916,-0.839018 1.467778,-2.09374 4.129244,-2.031677 0.248471,-4.145909 -0.952263,-3.936301 -0.0019,-0.920987 0.217733,-1.250037 0.603249,-1.885302 1.082902,-0.03923 1.442162,-5.919381 0.762066,-7.188155 z M 7.2626818,35.416686 c 1.29167,1.056237 2.187578,1.298633 3.4978192,0.973682 0.602608,-0.285723 0.603889,-0.286894 0.99773,-0.629995 -0.150492,2.382975 3.59836,4.348491 3.439543,4.032908 -6.41e-4,0.541585 -0.0045,1.629439 -0.0045,1.629439 -0.336846,0.122369 -0.674973,0.241811 -1.01374,0.360082 -0.598766,0.251764 -1.213542,0.411019 -1.925017,0.122954 L 11.676244,41.31089 c -0.760145,-0.748266 -3.9172762,-2.056853 -4.5294902,-1.655201 -0.864528,0.179747 -1.738023,0.209608 -2.680679,-0.01464 l 0.313152,0.495917 c 0.544973,1.722534 0.672411,3.044587 0.550736,4.679297 -0.01089,0.805059 -0.01153,0.79979 0.360541,1.548056 0.829307,2.082615 0.826105,2.112475 0.714677,3.086158 -0.361181,1.375334 -1.170636,1.720192 -2.254819,1.705554 l -0.356681,-0.760559 c 0.390639,-0.987735 0.633988,-1.651689 0.09926,-3.645308 -0.39256,-0.889957 -0.741574,-1.847831 -1.475462,-2.227233 -0.174827,-1.094296 0.178028,-1.610119 0.559061,-2.388831 0.256157,-1.097808 0.450196,-2.13531 -1.756594,-3.212625 -0.02369,-1.041015 0.05123,-1.107177 1.235956,-1.957905 0.208768,-0.193214 0.416895,-0.38877 0.62118,-0.591352 l 0.47517,0.456688 c 0.979799,0.635265 2.69861,0.02986 2.69861,0.02986 0.108867,-0.825551 0.322117,-1.401096 1.011819,-1.44208 z m 12.1014792,1.37065 c 1.29103,1.207881 1.789254,2.769403 2.398907,4.666416 0.945858,3.774703 -0.366944,3.587929 0.330442,6.032968 0.657682,2.880648 0.318915,5.32393 -1.584969,6.788845 -1.238517,2.209668 -0.987484,3.330896 -3.620134,3.450923 -0.7531,0.08841 -1.483787,0 -2.250335,-0.548611 -1.615068,0.113001 -0.458521,2.695631 -4.9880102,2.589656 -1.344823,-0.181504 -2.651221,-0.70611 -3.910871,-1.897013 -1.057927,0.937968 -2.245213,1.579088 -4.045354,0.886444 -0.86837098,-0.497673 -1.47289998,-1.083171 -2.17284798,-2.066807 0.525121,-0.283381 0.914479,-0.262303 1.53821998,-0.23537 2.662748,-0.02752 1.588171,-2.073833 2.859989,-2.598438 0.849159,0.255277 1.235955,1.106005 1.4063,1.937411 1.075217,0.110074 1.495954,0.106561 2.169006,-1.108932 0.659603,-0.1171 1.187286,0.649902 1.728417,1.274628 0.667928,0.406921 1.2692562,0.339003 1.8923572,0.220147 0.541771,-0.388185 1.348664,-1.444422 1.348664,-1.444422 0.125517,-0.883516 1.558073,0.02166 1.558073,0.02166 5.308205,-1.240084 0.429062,-0.622384 4.245796,-1.493019 0.47389,-1.050968 -0.502067,-1.607777 -1.546546,-2.131211 -0.05763,-0.524606 -0.057,-0.514067 -0.02946,-1.089026 1.551669,-0.810914 2.624325,-1.994205 3.07388,-4.303408 0.124236,-0.639363 0.363102,-1.112445 0.613495,-1.636466 0.393841,-0.913376 0.331723,-1.851929 0.07941,-3.035805 -0.463003,-0.63468 -0.871573,-0.865366 -1.440881,-1.279312 0.07172,-0.942652 0.01281,-2.214353 0.346452,-3.000676 z M 2.8990538,13.835242 c -2.14403098,4.104339 -3.955699,1.952049 -5.818598,2.854301 -0.339407,0.24708 -0.339407,0.24708 -0.628224,0.580814 -0.514875,1.14172 -0.03586,2.589656 0.27793,3.949182 0.365023,0.10656 0.728766,0.228344 1.091868,0.366521 1.086744,1.549227 0.854282,3.208527 0.0333,4.206215 -0.366304,0.47074 -0.496944,1.402267 -0.496944,1.402267 0.676254,0.04684 1.037435,0.130566 1.71945202,0.546269 0.379111,0.884102 0.117191,2.428059 0.117191,2.428059 -0.06788,0.714307 -0.06788,0.71138 0.320196,1.446765 0.715317,0.203168 0.708273,0.202582 1.95127298,0.01405 l -0.010246,-0.787493 1.252606,-0.421558 c -0.44059,-0.726017 -0.65448,-1.413977 -0.8498,-2.215523 l -0.22862,-0.953776 c -0.321476,-0.99476 -0.69610498,-1.544542 -1.27053598,-2.375364 -0.07365,-0.885858 -0.07365,-0.880588 -0.0935,-1.840219 -0.21261,-1.067362 -0.5232,-2.048656 -1.008616,-3.040489 0.54133,-0.108487 1.084216,-0.210369 1.628515,-0.30563 l 0.46044198,-0.09368 c 1.93014,-0.323195 3.20516,1.039843 4.143974,1.813871 0.941375,0.775199 1.53822,0.950848 2.113292,-1.740684 0.512313,-0.675665 0.625022,-1.17685 0.616056,-2.230161 -0.718519,0.09427 -1.415265,0.14052 -2.170927,0.03045 -0.868371,-0.769344 -1.093789,-1.192073 -1.424871,-2.414592 l -0.204923,-0.843705 c -0.542412,-0.331977 -1.27438,-0.847801 -1.52029,-0.37589 z"
       id="path2-0"
       sodipodi:nodetypes="ccccccccccccccccccccccccccccccccccccccccccccccccccccccccccccccccccccccccccccccccccccccccccccc"
       style="stroke-width:0.61233" />
  </g>
</svg>
