<svg xmlns="http://www.w3.org/2000/svg" width="960.73" height="194.802" viewBox="0 0 254.193 51.541"><g fill="#fefefe"><path d="M116.805 14.393c1.485.713 2.493 5.219 1.891 6.616-.103.146-.179.31-.255.473-.398.718-.107 2.938-.769 3.269.803 4.562.624 7.055-2.575 11.129-.028.012.478-.91.045-.066-.424.825-.109-.157.005.037-.353 1.592-1.793 7.336-3.797 6.074-.118.15-.046-.177-.06.02-.092.998-1.233 1.783-1.87 2.465a8.105 8.105 0 0 1-.83.672l-.122.089c-.62.431-1.293.474-1.998.51l-.244.018c-1.02.056-1.966-.46-2.725-1.258-.35-.4-.912-2.453-1.193-2.974-.28-.222-2.225-1.784-2.533-2.241-.723-1.312-.747-1.68-.631-4.787-.092-.022-.33-.172-.356-.226a5.31 5.31 0 0 0-.347-.114c-.835-.293-1.487-1.028-1.915-1.914l-.208-.462c-.452-1.865-1.008-3.666-1.125-5.625l-.015-.24-.011-.228-.011-.203c.02-.23.1-.345.209-.532-.024-.183-.024-.183-.086-.329l-.167.016c-.588.021-.588.021-.817-.174a3.554 3.554 0 0 1-.303-.516l-.13-.264c-.125-.358-.22-.72-.31-1.092-.038-.199-.187-1.048-.208-1.432l-.023-.322a6.69 6.69 0 0 1 .205-2.066l.05-.314c.038-.178 2.084-3.468 3.769-3.576l.152-.01.32-.021c.163-.01.325-.022.487-.034l.312-.02.146-.011c.3-.017 1.674.615 1.994.948l.115.117c.328.334.613.627.846 1.063l.14.213c.519.888.654 1.656.699 2.717a159.151 159.151 0 0 0 .04.883l.014.314c-.006.363-.07.66-.194.99-.07.165-.07.165-.044.406l.157.068c1.093.518 1.78 1.404 2.332 2.628l.091.185c.64.388 1.828 4.945 1.472 5.245-.134.509.05-1.404 1.35 2.372.938-.794-1.33 2.68 1.144-6.427-.893-.463-1.799-5.986 1.076-7.951-1.714-2.59 2.583-5.088 2.822-4.798 1.338-.345 2.865-.321 3.988.69z" style="stroke-width:.0768662" transform="translate(-1.429 2.506)"/><path d="M74.257 17.544c.446-.106 2.055.406 2.666 2.182.026.178.05.356.071.535.012.095.886.763 1.134.682.155-.187.255-.38.366-.609.14-.283.308-.512.49-.755.095-.127.186-.259.275-.391.146-.185 1.21-1.267 1.464-1.412l.234-.134.217-.122.165-.1c1.097-.57 2.483-.303 3.573.193.259.083.486.18.7.38.245.066.367.206.562.399.446.4 1.182.584 1.708.514.494-.063 3.034 2.127 3.383 2.978l.07.168c.265.896.521 1.738.568 2.674l.014.233c.027.51.02.998-.07 1.498l-.063.083c-.036.278-.065.557-.095.836a4.02 4.02 0 0 1-.219.78c-.026.201-.026.201-.025.39l-.003.19v.14c.321.096.47.473.657.771.42.453.438 1.058.656 1.615 0 0 .531 2.77-.025 4.04a28.87 28.87 0 0 1-.717 1.44c-.239.415-.239.415-.302.887.08.202.183.302.328.445.23.237 1.067 2.251 1.09 2.773l.012.201c-.813 7.283-8.362 4.549-8.79 2.423l-.06-.167c-.842-2.397.684-5.405.213-5.996-.817-1.033-1.213-2.267-1.241-3.673.042-1.006.403-1.739 1.006-2.406l.127-.132c.109-.141.109-.141.093-.358-.008-.06-1.398-1.716-1.672-2.388l-.01-.159-.48.173-.144.052c-.245.09-.482.185-.717.307-.27.137-.54.172-.832.201-.184.05-.235.104-.337.291l-.09.288c-.29.88-1 1.768-1.658 2.273l-.197.011c1.24.386 1.888 5.69.918 6.012.198.179 1.712 3.582.357 5.475-.049.317-.122.6-.229.892-1.281 3.99-10.543 1.24-8.776-5.724-.777-.24-.362-4.47.462-4.574l.08-.713-.13.007c-.346-.651-.612-1.332-.736-2.088-.023-.025-.106-2.58-.106-2.647.07-2.508 1.378-1.988.38-2.744-1.928-.13-1.075-7.33.918-7.806.585-.33 1.503-.433 2.767-.334z" style="stroke-width:.0736865" transform="translate(-1.429 2.506)"/><path d="M57.84 20.989c.271.353-.561-.021-.242-.1 3.12-.764 3.896-1.35 6.906 1.295.331.314.58.61.802 1.027l.11.177c.692 1.107.97 2.104 1.068 3.416l.022.27c.035.458.044.844-.059 1.285-.001.203-.001.203.098.382.12.11.246.208.374.309.498.443.907 1.176.996 1.873.012.142.022.284.031.426l.014.225c.027.585-.028 1.056-.266 1.575l-.095.21c-.483.97-1.23 1.813-2.202 2.148-1.205.37-10.487.669-11.9.764l.088.32.05.18c.052.165.114.309.19.463.114.231.269.45.269.45.072.108.14.22.207.331.318.49.713.857 1.128 1.242l.154.143.14.128c.101.11.101.11.114.26.263.16.482.147.772.137l.144-.005.454-.015c1.963-.448 3.113.041 3.128-.055-.681-1.627 3.903-3.582 5.759-1.559.633.587.874 1.23.975 2.11.02.202.035.404.05.605.042 1.631-4.922 4.884-4.971 3.827-1.506.104.568.064-1.208 1.64-1.93 1.54-6.418.851-6.677-1.238-.46.179-.992.14-1.481.16-.143.006-1.914-.284-2.056-.276-2.018-.63-2.695-1.136-2.98-3.625-.085-.796-.02-.165-.112-1.022-.276-1.41-3.509-2.643-1.99-6.964.231-.43.569-.688.245-1.21a4.717 4.717 0 0 1-.321-.765c-1.437-.697-1.663-8.24 2.211-8.537.238-.042.238-.042.418-.191 2.636-3.055 2.823-4.807 9.642-1.816z" style="stroke-width:.0746592" transform="translate(-1.429 2.506)"/><path d="M39.882 24.747c-.39-.168 3.068 1.436 2.112 5.342a5.186 5.186 0 0 0-.093.345l-.04.171c-.01.043-.715 1.12-.745 1.156.04.207.09.266.261.406l.167.201.174.27.072.172c.088.182.175.333.288.5.533.836.549 1.813.653 2.743.077.776.019 1.476-.256 2.2-.078.47-.642 1.166-.792 1.71.164.034.327.071.49.107.681.226 1.207.904 1.522 1.492.116.274.163.545.202.834l.031.184c.189 1.348-.29 2.675-1.124 3.727-.414.537-.998.87-1.558 1.25-.598.307-1.274.37-1.95.406-.666.103-1.668-.5-2.634-.853-1.094-.4-1.382-1.126-1.107-1.715a50.824 50.824 0 0 1-.034-.396c-.267-.062-.391-.1-.76-.434-.45-.348-.74-.783-1.018-1.252-.232-.451-.267-.884-.32-1.373l-.035-.262c-.086-.785.068-1.378.583-1.986.455-.492.455-.492.737-.508a3.973 3.973 0 0 0-.527-.93c-.344-.515-.348-.797-.695-1.29-.366-.584-.179-.722-.526-1.224-.263-.965-.008-2.905-.03-3.048-.016-.244.237-.717.243-.86.024-.26.126-.873.544-.898l-.175-.271c-.396-.683-.524-1.512-.284-2.253.051-.146.051-.146.043-.373.07-.887.731-1.716 1.366-2.318.706-.54 1.117-.708 1.117-.708 1.065-.563 2.974-.993 4.098-.264z" style="stroke-width:.0744538" transform="translate(-1.429 2.506)"/><path d="M9.855 15.228c.229-.548.938-.78 1.444-.974 1.273-.49 2.506-.197 3.703.371.184.11.184.11.345.075.143-.074.143-.074.267-.206.134-.12 1.695-.619 2.396-.66.805-.196 1.56.055 2.36.26 1.096.288 2.445.938 3.174 1.872.304.543.564 1.07.875 1.617l.086.241c.07.203.135.406.196.612l.284.02c.644.106 1.267.56 1.682 1.086.272.293.438.628.61.991.29.672.386 1.247.454 1.968.09 1.087.115 1.778-.298 2.8l-.006.156c-.055.936-2.705 4.19-3.394 4.287-.997.33-.439.328-1.056.364.292.694 1.484.445 2.045.396.34-.025.606-.043.933.104.386.125.736.253 1.396.745l.199.143c.615.46 1.081 1.003 1.525 1.631.087.114.585.998.635 1.161 1.83 2.996.259 4.642.589 5.55.18.304.241.6.294.94l.027.154c.05.304.063.58.033.883l-.144.008.033.194c.016.275-.032.417-.141.66a9.04 9.04 0 0 1-.432.872c-1.11 1.93-2.37 2.408-2.898 2.584l-.234.128c-.703.302-1.51.27-2.275.31l-.406.02c-.33.018-.659.036-.989.052l-.007.17c-.048.406-.343.7-.644.94-.78.546-1.711.988-2.701.973 0 0-.742.192-1.122.215l-.386.024c-1.735.113-1.735.113-2.585-.168l-.206-.067a8.59 8.59 0 0 1-.91-.622l-.187-.162c-.16-.151-.16-.151-.329-.36a1.12 1.12 0 0 0-.497.203 2.533 2.533 0 0 1-.6.3 5.91 5.91 0 0 1-1.885.41c-.097.003-.097.003-.195.009-.53.022-3.098-.426-3.597-.764l-.24-.105c-.732-.352-1.972-2.105-1.972-2.105-.47-.93-.453-2.29-.258-3.257.148-.457.375-.842.646-1.228.117-.173.117-.173.052-.456-.128-.12-.128-.12-.293-.223a2.92 2.92 0 0 1-.775-.823c-.033-.048-.791-2.27-.683-3.07.063-.57.246-1.247.715-1.729.148-.175.148-.175.098-.434-.18-.555-.47-1.091-.759-1.601-.822-1.503-.73-2.794-.374-4.347.122-.436.293-.857.492-1.258-.038-.15-.169-.422-.242-.567-.033-.073.065.126.03.051 0 0-.749-.372-.944-.561l-.213-.203c-.434-.448-.722-.838-.803-1.463 0 0-.225-.59-.265-.89l-.036-.26-.032-.246c-.032-.177-.058-.332.017-.484.004-.177.149-.542.149-.542l-.002-.157c.074-.653.442-1.075.884-1.5.272-.189.503-.295.832-.358.007-.368-.006-.728-.035-1.098-.04-.614-.065-1.131.195-1.672l.051-.243c.503-2.375 6.307-2.068 6.304-1.687z" style="stroke-width:.0767643" transform="translate(-1.429 2.506)"/><path d="M132.797 17.485c.187.088.187.088.35.13l.066-.23c3.27-3.514 10.763 1.819 9.597 3.194.019.192.036.384.051.576l.161.021c2.672.407 3.787 11.78-3.688 11.04-.125.126-.125.126-.226.26.274.768-6.483 4.041-8.041 1.29-.114.01-.34.166-.34.166a5.664 5.664 0 0 1-1.502.232c.335 1.657 2.08 1.532 2.583 2.843.017.219.017.219.016.454l.001.237c0 .06 0 .12-.002.18.072-.038.172-.042.216-.116.709-1.203 4.684-.553 4.501-.004l.06-.28c.275-.905.983-1.483 1.694-2.005l.122-.092c1.024-.76 2.3-.991 3.51-.919.254.05.465.127.69.254l.212.116c.581.437 1.028.887 1.381 1.547l.078.137c1.576 2.189-2.231 7.213-6.055 5.494l-.04.151c.173 3.243-9.09 3.235-9.147.285l-.248.12c-1.052 1.105-7.4-.383-5.92-2.94a20.117 20.117 0 0 1-.227-.434c-.316-1.01-.342-2.034-.35-3.1l-.139-.002c-3.465-.096-2.804-7.439-1.173-8.426-3.142-2.834 1.044-8.127 2.808-6.859l.156-.008.379-.02.05-.158c-.769-3.317 7.631-5.133 8.417-3.134z" style="stroke-width:.0715697" transform="translate(-1.429 2.506)"/><path d="m166.343 11.573.11.13c.266.32.266.32.263.523l.167-.099c.88-.976 5.05 1.416 5.357 2.681.057.127.113.256.166.386.074.188.074.188.177.38.395.868.474 1.844.457 2.852 0 .089-.003.178-.004.27-.068 2.118-1.138 2.688-1.107 3.13.102.088.208.17.316.248 2.155-.233 1.937 9.09.147 10.012 1.444-.144 2.494 8.295-1.65 9.008-5.266 3.215-10.478-1.528-6.232-7.694l.215-.1c-1.817.32-2.88-7.998-.345-8.865.03-.043.018-.679-.116-.914-.968-.422-1.73-1.344-1.988-2.624-1.565 1.79-4.756 2.234-4.885 1.913.75.31 2.052 7.434-1.565 10.131.135.286.311.513.494.752 1.983 1.378-1.388 12.286-6.94 9.238l-.2-.067c-2.063 1.02-4.076-2.765-2.77-4.093-1.685-1.833.7-6.523 1.393-5.89l-.213-.075c-.369-.497-.724-1.05-.928-1.683l-.08-.238c-1.135-1.786.303-7.218 1.475-7.045-.073-.344-.185-.553-.355-.833l-.144-.167c-.238-.528-.456-1.018-.54-1.625a1.91 1.91 0 0 0-.185-.506c-2.207-11.769 8.625-8.91 8.561-6.345l.068 1.248c.214.031.727-1.297.873-1.575 0 0 .157-.166.163-.247-.984-2.06 6.706-5.005 9.845-2.217z" style="stroke-width:.0787812" transform="translate(-1.429 2.506)"/><path d="M189.742 2.694c-.255.296-.255.296-.3.627.08.197.176.284.347.424.586.552.772 1.275.71 2.053-1.443 5.264-9.798 3.081-9.873 1.883-.035-.045-.444-.171-.835-.146-1.117.046-1.778-.232-2.524-.87-2.415-1.246-.2-6.804 2.883-6.574l.156-.205c2.724-3.422 11.55.228 9.436 2.808z" style="stroke-width:.0900077" transform="translate(-1.429 2.506)"/><path d="M188.86 13.438c.125.365.434 2.496.399 4.296l-.004.268c-.072 2.503-1.538 2.865-1.632 3.5l.142.702c.268.666.523 1.311.664 2.044.063.291.145.534.244.806.186.582.194 1.093.157 1.73l-.014.309c-.048.908 1.433 5.965-.274 9.777 0 0-.162.168-.18.332-.033 5.17-8.787 5.047-8.995 2.706l-.114-.124c-1.17-1.544-.904-3.467-.755-5.407.12-.876.727-1.777 1.212-2.454l.147-.009c-4.06-6.56-.708-11.676-.34-11.752.137-.171.054-.435.054-.435-2.339-9.854 8.245-10.233 9.29-6.289z" style="stroke-width:.0798454" transform="translate(-1.429 2.506)"/><path d="m220.035 6.006.171.165c1.928 3.779-.442 8.88-.507 8.635 0 0-.169.102-.18.15-.095.291-.274.51-.45.756-.114.191-.114.191-.1.402 1.108-.232 1.576 3.592.914 4.443l-.015.248c.362.796.722 8.542-.902 10.169l.069.075c.005.117.004.235.002.353l-.004.225-.006.243-.005.248c1.495 5.823-7.973 10.252-9.668 5.647l-.126.17c-.32 2.144-9.411 2.833-9.576.495-.428.829-7.175-.309-4.92-7.734-4.34-3.42-1.07-11.165.534-10.299-.67-.227-.872-7.03 3.053-7.134l.3-.181c.878-.401 1.76-.41 2.653-.326-.144-1.823 7.422-4.166 8.568.534.323-.01.642-.008.964-.141a2.078 2.078 0 0 0-.516-.717c-.82-1.129.142-4.283.93-5.066.207-.256.251-.401.251-.726-.043-.25-.155-.414-.296-.6-3.029-4.97 9.413-16.433 8.862-.034z" style="stroke-width:.0746416" transform="translate(-1.429 2.506)"/><path d="M246.86 8.927c.236.381.51.663.45 1.152 1.082-.043 2.146-.116 3.07.317.17.075.337.125.52.173 2.908.036 5.58 5.982 4.461 7.363.113 1.168.376 2.222-1.055 3.407l.181-.01c1.135.254 1.106 6.002-.144 7.647.07.22-4.264 5.023-4.956 4.805-.208.117-3.705 3.304-4.53 3.526-.239.069-.459.159-.69.253-1.528.507-3.752.716-5.148.202l-.164-.052c-.234-.074-.428-.147-.617-.286-.155-.113-.155-.113-.382-.064-.221.069-.221.069-.394.167-.182.341-6.017 1.076-6.665-.837 0 0-.118-.195-.184-.213-.686-.247-1.13-.941-1.554-1.459l-.205-.244c-.976-1.166-1.428-2.071-1.362-2.722-1.753-.084-5.272-2.79-3.658-6.47l.021-.26c.057-.528.561-2.29 2.269-3.565l-.08-.139c-4.834-5.098 5.513-14.768 9.582-11.494v-.187c-.92-1.542 9.18-4.098 11.234-1.01z" style="stroke-width:.0831609" transform="translate(-1.429 2.506)"/><path d="M38.507 14.52c.486.335 1.281-1.504 3.86.023.673.52 1.246 1.223 1.423 2.085.02.22.032.435.03.656-.094.415-.291.662-.533.998-.024.091.179.31.154.403 1.054 6.175-7.474 5.415-8.356 3.13-3.641 2.054-7.562-3.132-3.108-5.663l-.022-.155c-.093-.757-.124-1.442.285-2.083.55-.873 1.68-1.057 2.584-1.372.143-.043 2.327-.298 3.683 1.978z" style="stroke-width:.0846994" transform="translate(-1.429 2.506)"/><path d="M18.666 35.612c.35.269.864-1.176 2.712.053.486.417.905.979 1.05 1.662.02.174.034.344.037.518-.055.328-.188.522-.35.786-.014.071.134.246.119.32-6.42-2.273-5.602 3.762-5.803 2.404-2.517 1.597-5.396-2.548-2.319-4.512l-.018-.123c-.083-.6-.12-1.141.152-1.644.367-.685 1.157-.82 1.785-1.061.1-.033 1.629-.214 2.635 1.597zM133.898 23.312c.34.28 1.04-1.232 2.861.05.47.434.853 1.02.934 1.733.002.182-.002.36-.017.542-.094.343-.255.545-.454.822-.023.075.114.257.09.334-6.543-2.36-6.323 3.945-6.39 2.527-2.831 1.674-5.433-2.65-1.97-4.71-.002-.042-.005-.084-.006-.128-.024-.626-.005-1.193.337-1.72.46-.716 1.31-.86 2-1.113.11-.034 1.745-.227 2.616 1.663z" style="fill:#e7f3fc;fill-opacity:1;stroke-width:.0652884" transform="translate(-1.429 2.506)"/><path d="M16.007 21.616c.45.303 1.145-1.358 3.527.023.626.47 1.161 1.107 1.338 1.886.022.2.037.394.038.593-.078.375-.254.598-.47.902-.02.083.17.28.15.365.424 3.96-7.475 3.085-7.589 2.825 1.623.303.492-5.214-2.937-5.123l-.023-.14c-.098-.685-.137-1.304.226-1.883.488-.788 1.519-.954 2.34-1.238.13-.039 2.121-.267 3.4 1.79z" style="fill:#e7f3fc;fill-opacity:1;stroke-width:.0782166" transform="translate(-1.429 2.506)"/><path d="M212.56 23.939c-.259.285-.259.285-.309.606.075.19.169.276.336.411.57.538.74 1.239.664 1.992-6.124-3.341-9.918 2.667-9.816 1.786-.034-.044-.437-.168-.824-.144-1.108.04-1.757-.232-2.483-.853 2.533-.84 5.428-6.173 2.981-6.357l.158-.199c2.763-3.303 11.436.266 9.292 2.758zM246.216 19.285c-.367-.021-.367-.021-.592-.227-.052-.202-.03-.337.023-.567.134-.84-.14-1.505-.639-2.024-9.018-.687-13.012 5.336-8.72 6.083 0 .06-.24.457-.555.731-.883.805-1.224 1.497-1.417 2.508 2.46-1.274 6.2 2.517 6.281 2.527 3.859-5.685 6.091-4.643 5.966-4.627-1.938-3.105-.181-3.54-.347-4.404z" style="fill:#e7f3fc;fill-opacity:1;stroke-width:.0900077" transform="translate(-1.429 2.506)"/><path d="M54.77 26.767c.53-.14-.39-1.209 2.24-2.047.78-.178 1.642-.237 2.395-.03.178.067.347.137.512.215.26.197.332.389.446.637.055.045.338.013.394.06 3.547 1.343-2.194 5.606-2.48 5.567 1.277-.823-3.961-2.386-6.039-.36l-.128-.043c-.618-.218-1.146-.444-1.389-.886-.334-.599.175-1.263.458-1.852.05-.091 1.111-1.339 3.59-1.26z" style="fill:#e7f3fc;fill-opacity:1;stroke-width:.0663984" transform="translate(-1.429 2.506)"/></g></svg>