<?xml version="1.0" encoding="UTF-8" standalone="no"?><!--Uploaded to: SVG Repo, www.svgrepo.com, Generator: SVG Repo Mixer Tools--><svg xmlns="http://www.w3.org/2000/svg" xml:space="preserve" viewBox="0 0 351.151 392.476"><g><path d="m403.302 250.526-8.644 7.797c-4.01 3.618-3.849 10.241.361 14.796 2.228 2.408 5.145 3.754 7.991 3.95 2.532.176 5.008-.558 6.898-2.261l8.641-7.797c4.013-3.618 3.851-10.242-.359-14.795-4.211-4.55-10.872-5.306-14.888-1.69z" style="fill:#883504;fill-opacity:1;stroke-width:1.5526" transform="rotate(-135 236.155 229.744)"/><path d="m247.853 121.461 5.871-5.896c3.071-3.083 2.472-8.66-1.336-12.458-3.809-3.8-9.384-4.377-12.456-1.292l-5.87 5.896c-3.071 3.083-2.472 8.661 1.336 12.458 1.9 1.895 4.24 2.988 6.49 3.225 2.257.239 4.424-.387 5.965-1.933z" style="fill:#f97626;fill-opacity:1;stroke-width:1.29764" transform="rotate(-135 236.155 229.744)"/><path d="M388.255 169.742s-6 5.884-15.558 15.27c-2.224 2.183 47.73 171.104 45.151 173.637-10.188 10.01-4.037 6.57-17.378 19.705-2.28 2.244-75.816-146.1-78.123-143.827-37.78 37.218-77.92 76.936-78.77 78.512-1.61 2.99-8.74 40.252-8.97 42.782-.23 2.53-33.56-7.169-33.56-7.169s-1.213-14.285-4.916-23.497c-2.729-6.79-8.302-9.117-8.101-9.701 2.578-7.5-38.823-17.125-39.217-15.986v-36.112l53.593-1.61c.752 1.437 29.628-23.476 72.471-63.94 1.99-1.878-142.678-70.23-140.18-78.776 2.903-9.939 19.026-16.34 21.817-21.052 3.984-6.73 162.013 55.931 167.693 50.59 21.347-20.07 36.638-33.964 53.468-49.21 9.093-8.238 22.75-14.832 34.731-12.19 7.625 1.68 14.945 8.744 16.791 16.33 2.523 10.365-4.86 21.081-10.12 30.362-7.776 13.716-30.822 35.882-30.822 35.882z" style="fill:#d7d7d7;fill-opacity:1;stroke-width:1.69807" transform="rotate(-135 236.155 229.744)"/><path d="M411.622 88.857c-3.106-3.159-10.989-.187-20.24 7.96-9.19 8.094-14.102 17.241-10.97 20.43l17.322 17.851c3.135 3.19 12.203-1.936 21.393-10.031 9.187-8.092 12.144-22.645 9.013-25.835z" style="fill:#1a5975;fill-opacity:.865168;stroke-width:1.98323" transform="rotate(-135 236.155 229.744)"/><path d="M268.62 278.577c30.498-45.575 3.178-59.623-38.877-37.012l-10.178 6.828c55.74-12.968 47.438 11.828 42.558 36.017 5.194 3.697-7.964 2.577 6.496-5.833z" style="fill:#0514b0;fill-opacity:1;stroke-width:1.62982" transform="rotate(-135 236.155 229.744)"/><path d="M248.15 301.132c29.819-46.256.633-62.17-42.3-40.435l-10.329 6.676c57.67-11.039 50.112 14.501 46.103 39.562 5.595 4.098-8.207 2.334 6.526-5.803z" style="fill:#b00505;fill-opacity:1;stroke-width:1.70176" transform="rotate(-135 236.155 229.744)"/><path d="M153.565 69.557c-10.81-4.118-26.598-4.743-31.238 8.529-9.105 10.311-.15 26.273 9.896 28.243l-28.804 49.626c-30.73-.309-63.437 1.193-90.821 16.455-17.625 8.983-16.237 35.574.917 44.317 29.372 17.355 64.519 14.52 97.367 15.556l29.18 54.106c-12.202.07-17.792 15.872-10.15 24.864 3.273 11.36 14.852 14.693 25.517 13.414 8.386-2.558 8.943 10.072 13.424 15.116 8.988 15.665 16.395 32.446 26.415 47.383 12.399 3.168 25.52 3.357 38.214 5.31 13.413-1.93 3.998-16.52 2.57-24.686l-39.14-133.832 79.992 1.556c27.298 28.256 15.838 14.593 43.449 42.496 5.066-.853 28.79-27.892 29.85-36.77-42.255-42.126-.592-69.359.948-71.996-3.283-9.518-15.899-33.98-23.722-40.128-8.556 6.63-23.87 22.553-42.142 32.445l-96.404-2.97L237.872 8.683c1.241-13.22-14.717-7.398-22.592-7.46-9.325 2.043-22.783-1.958-27.236 8.926l-34.479 59.407Zm36.378 261.924 21.903 1.63 13.088 44.754c-7.159-1.5-15.936-.62-22.12-3.552l-23.525-43.623zM134.49 91.988c-5.98-3.172 2.437-15.227 8.53-11.093 7.225-1.121-2.033 13.346-6.136 11.326zm11.02 219.073c-4.14-4.817-9.04-14.322 1.86-11.002 2.442 5.136 10.379 13.904-.666 11.015l-1.117-.012zm44.8-51.589 8.192 28.012-44.959-4.535-27.161-50.364 56.385 1.097 7.542 25.79zm97-84.346c13.685-5.256 33.87-29.73 39.115-31.631 1.416 3.954 12.342 16.85 14.072 24.685-10.54 13.334-13.675 13.194-20.794 25.607-1.457 2.54 7.48 6.415 6.184 9.032.764 2.27-7.757 4.682-6.873 6.913 5.296 13.37 10.74 17.19 20.297 30.425-7.768 9.333-10.697 12.344-18.618 20.638-12.512-12.593-25.061-26.214-38.131-38.157-34.637-1.875-69.537-1.53-104.275-2.546-38.457-1.092-76.989-.745-115.385-2.947-17.353-3.13-42.4-3.533-49.68-22.637 7.88-21.41 37.7-20.162 56.974-23.904 35.012-2.85 70.132.68 105.202 1.074zm-98.261-60.494-13.844 42.36-56.39-.67 26.618-45.861 43.616 4.171zm32.82-100.435-17.408 53.271-32.926-1.98 28.672-49.398z"/></g></svg>