<?xml version="1.0" encoding="UTF-8" standalone="no"?>
<svg
   xml:space="preserve"
   width="1433.2538"
   height="1069.296"
   viewBox="0 0 378.21527 282.172"
   version="1.1"
   id="svg22"
   sodipodi:docname="publicidad.svg"
   inkscape:version="1.4 (86a8ad7, 2024-10-11)"
   xmlns:inkscape="http://www.inkscape.org/namespaces/inkscape"
   xmlns:sodipodi="http://sodipodi.sourceforge.net/DTD/sodipodi-0.dtd"
   xmlns="http://www.w3.org/2000/svg"
   xmlns:svg="http://www.w3.org/2000/svg"><sodipodi:namedview
     id="namedview22"
     pagecolor="#505050"
     bordercolor="#ffffff"
     borderopacity="1"
     inkscape:showpageshadow="0"
     inkscape:pageopacity="0"
     inkscape:pagecheckerboard="1"
     inkscape:deskcolor="#505050"
     inkscape:zoom="0.51527133"
     inkscape:cx="755.91243"
     inkscape:cy="330.89363"
     inkscape:window-width="1920"
     inkscape:window-height="1001"
     inkscape:window-x="-9"
     inkscape:window-y="-9"
     inkscape:window-maximized="1"
     inkscape:current-layer="svg22"
     inkscape:clip-to-page="true" /><defs
     id="defs4"><filter
       id="b"
       width="1.0848842"
       height="1.1111369"
       x="-0.057477608"
       y="-0.029280791"
       style="color-interpolation-filters:sRGB"><feFlood
         flood-color="#000"
         flood-opacity=".498"
         result="flood"
         id="feFlood1" /><feGaussianBlur
         in="SourceGraphic"
         result="blur"
         stdDeviation="3"
         id="feGaussianBlur1" /><feOffset
         dx="-7.9"
         dy="12.928"
         in="blur"
         result="offset"
         id="feOffset1" /><feComposite
         in="flood"
         in2="offset"
         operator="in"
         result="comp1"
         id="feComposite1" /><feComposite
         in="SourceGraphic"
         in2="comp1"
         result="comp2"
         id="feComposite2" /></filter><filter
       id="c"
       width="1.0234253"
       height="1.1009171"
       x="-0.016472245"
       y="-0.025079999"
       style="color-interpolation-filters:sRGB"><feFlood
         flood-color="#000"
         flood-opacity=".498"
         result="flood"
         id="feFlood2" /><feGaussianBlur
         in="SourceGraphic"
         result="blur"
         stdDeviation=".7"
         id="feGaussianBlur2" /><feOffset
         dx="-2.3"
         dy="3.4"
         in="blur"
         result="offset"
         id="feOffset2" /><feComposite
         in="flood"
         in2="offset"
         operator="in"
         result="comp1"
         id="feComposite3" /><feComposite
         in="SourceGraphic"
         in2="comp1"
         result="comp2"
         id="feComposite4" /></filter><linearGradient
       id="a"><stop
         offset="0"
         style="stop-color:#fff;stop-opacity:1"
         id="stop4" /></linearGradient></defs><g
     style="display:inline"
     id="g11"
     transform="matrix(1.1971533,0,0,1.1623895,-36.297688,-45.909101)"><path
       d="m 149.68,250.86 21.662,15.863 -1.48734,16.16583 28.19507,-0.021 1.15427,-16.0068 24.63,-14.552"
       style="fill:#262626;fill-opacity:1;stroke:none;stroke-width:0.264583;stroke-opacity:1"
       id="path4"
       sodipodi:nodetypes="cccccc" /><path
       d="m 130.601,245.06 55.024,19.923 78.338,-18.428 c -58.116,-6.182 -28.655,-4.116 -86.659,-11.248 z"
       style="fill:#000000;fill-opacity:1;stroke:none;stroke-width:0.264583;stroke-opacity:1"
       id="path5" /><path
       d="m 34.192,232.931 38.294,15.797 268.606,6.749 4.798,-10.804 L 47.686,227.72 Z"
       style="fill:#585858;fill-opacity:1;stroke-width:0.0460985"
       id="path6"
       sodipodi:nodetypes="cccccc" /><path
       d="m 30.32,52.166 0.978,181.605 36.558,-1.18 6.329,-174.95 z"
       style="display:inline;fill:#808080;stroke-width:0.0460985"
       id="path7" /><path
       fill="#191919"
       d="M 315.498,223.52 47.044,49.806 l -5.659,2.226 1.518,177.555 32.494,8.333 239.821,-0.472 0.28,-13.926 z"
       style="display:inline;fill:#191919;fill-opacity:1;stroke:none"
       id="path8" /><path
       d="m 41.503,58.406 -7.18,3.567 0.008,10.976 7.652,-2.855 -1.015,-1.023 -5.662,2.468 -0.024,-8.653 4.908,-2.374 -5.388,11.145 0.955,0.128 5.237,-10.996 0.022,7.179 -5.535,-5.708 -0.672,0.9 6.637,6.831 0.696,-11.622 m -0.669,-10.063 -7.18,3.567 0.009,10.976 7.652,-2.856 -1.015,-1.023 -5.662,2.469 -0.024,-8.653 4.908,-2.375 -5.388,11.145 0.955,0.129 5.237,-10.996 0.021,7.178 -5.534,-5.708 -0.672,0.9 6.637,6.832 0.911,-0.05 -0.215,-11.573 m -0.63,-10.386 -7.18,3.568 0.008,10.976 7.652,-2.856 -1.015,-1.023 -5.662,2.468 -0.024,-8.653 4.908,-2.374 -5.388,11.145 0.955,0.128 5.237,-10.995 0.022,7.178 -5.535,-5.708 -0.672,0.9 6.637,6.831 0.911,-0.049 -0.215,-11.573 m -0.645,-9.968 -7.18,3.567 0.008,10.976 7.652,-2.855 -1.015,-1.024 -5.662,2.469 -0.024,-8.653 4.908,-2.374 -5.387,11.145 0.954,0.128 5.237,-10.996 0.022,7.178 -5.535,-5.708 -0.672,0.9 6.637,6.832 0.912,-0.05 -0.216,-11.573 m -0.63,-10.386 -7.18,3.568 0.008,10.976 7.652,-2.856 -1.015,-1.023 -5.661,2.468 -0.025,-8.653 4.908,-2.374 -5.387,11.145 0.954,0.128 5.237,-10.995 0.022,7.178 -5.535,-5.708 -0.672,0.9 6.637,6.831 0.912,-0.049 -0.216,-11.573 m -0.667,-10.268 -7.18,3.568 0.008,10.976 7.652,-2.856 -1.015,-1.023 -5.662,2.468 -0.024,-8.653 4.908,-2.374 -5.388,11.146 0.955,0.128 5.238,-10.996 0.022,7.178 -5.535,-5.708 -0.672,0.9 6.637,6.831 0.912,-0.049 L 42.098,7.111 M 41.468,-3.275 34.287,0.292 34.295,11.268 41.947,8.413 40.932,7.39 35.27,9.858 35.246,1.205 40.154,-1.169 34.767,9.976 35.721,10.104 40.958,-0.892 40.98,6.287 35.445,0.579 34.773,1.479 41.41,8.31 42.322,8.26 42.106,-3.312 m -0.645,-10.704 -7.18,3.568 0.009,10.975 7.652,-2.855 -1.015,-1.023 -5.662,2.468 -0.024,-8.653 4.908,-2.374 -5.388,11.145 0.954,0.128 5.237,-10.995 0.022,7.178 -5.535,-5.708 -0.672,0.9 6.637,6.831 0.912,-0.05 -0.216,-11.572 m -0.63,-10.386 -7.18,3.567 0.008,10.976 7.652,-2.855 -1.015,-1.023 -5.661,2.468 -0.025,-8.653 4.908,-2.374 -5.387,11.145 0.954,0.128 5.237,-10.996 0.022,7.179 -5.535,-5.708 -0.672,0.9 6.637,6.83 0.912,-0.048 -0.216,-11.573 m -0.715,-10.09 -7.18,3.566 0.008,10.976 7.652,-2.856 -1.015,-1.023 -5.662,2.468 -0.024,-8.652 4.908,-2.375 -5.387,11.145 0.954,0.129 5.237,-10.996 0.022,7.178 -5.535,-5.708 -0.672,0.9 6.637,6.832 0.912,-0.05 -0.216,-11.573 m -0.63,-10.386 -7.18,3.568 0.008,10.975 7.652,-2.855 -1.014,-1.023 -5.662,2.468 -0.025,-8.653 4.909,-2.374 -5.388,11.145 0.955,0.128 5.236,-10.995 0.022,7.178 -5.535,-5.708 -0.671,0.9 6.637,6.831 0.91,-0.049 -0.215,-11.573 m -0.63,-9.948 -7.18,3.567 0.009,10.976 7.651,-2.855 -1.014,-1.023 -5.662,2.468 -0.025,-8.653 4.909,-2.374 -5.388,11.145 0.955,0.128 5.236,-10.996 0.022,7.179 -5.535,-5.708 -0.671,0.9 6.637,6.83 0.911,-0.048 -0.216,-11.573 m -0.63,-10.386 -7.18,3.567 0.009,10.976 7.652,-2.856 -1.015,-1.023 -5.662,2.469 -0.025,-8.653 4.909,-2.375 -5.388,11.145 0.955,0.129 5.237,-10.996 0.021,7.178 -5.535,-5.708 -0.671,0.9 6.637,6.832 0.911,-0.05 -0.215,-11.573 m -0.652,-9.93 -7.18,3.568 0.009,10.976 7.652,-2.856 -1.015,-1.023 -5.662,2.468 -0.025,-8.653 4.909,-2.374 -5.388,11.145 0.955,0.128 5.236,-10.994 0.021,7.178 -5.535,-5.708 -0.671,0.9 6.637,6.831 0.911,-0.049 -0.215,-11.573 m -0.63,-10.386 -7.18,3.568 0.008,10.975 7.652,-2.855 -1.015,-1.023 -5.662,2.468 -0.024,-8.653 4.908,-2.374 -5.388,11.145 0.955,0.128 5.237,-10.996 0.021,7.179 -5.534,-5.708 -0.672,0.9 6.637,6.831 0.911,-0.05 -0.215,-11.572"
       style="fill:#1a1a1a;fill-opacity:1;stroke:none;stroke-width:0.179793"
       transform="matrix(1.4581,0,0,1.14355,-17.26,149.535)"
       id="path9" /><path
       d="m 63.064,233.304 -6.523,10.092 -14.162,-6.012 7.703,-8.254 -0.576,1.403 -5.035,5.912 11.936,4.328 3.108,-6.123 -15.505,2.678 -0.638,-1.74 16.336,-2.464 -10.554,-4.151 7.602,13.171 -2.33,-0.974 c 0,0 -7.908,-12.372 -7.865,-12.406 m 30.414,9.04 -5.776,12.335 -14.85,-6.842 4.574,-9.368 1.202,1.07 -3.542,7.857 11.936,4.328 1.07,-7.024 -13.467,3.579 -0.638,-1.74 14.724,-4.124 -8.942,-2.491 7.602,13.17 -2.33,-0.973 c 0,0 -7.438,-13.411 -7.395,-13.445 m -10.057,-4.325 -7.868,7.923 -10.435,-4.753 9.124,-4.195 18.819579,5.0467 -16.71386,1.79497 L 43,235.063 l 2.7,-2.849 -11.454,1.352 1.843,-1.64 10.327,-1.427 -3.23677,0.83605 0.89577,4.26495 -1.854,1.466 -0.271,-8.328 0.077,-0.751"
       style="fill:#1a1a1a;fill-opacity:1;stroke:none;stroke-width:0.232759"
       id="path10"
       sodipodi:nodetypes="cccccccccccccccccccccccccccccccccccccccccccccc" /><path
       d="m 41.59,60.712 -7.585,2.988 0.01,9.199 8.084,-2.392 -1.072,-0.857 -5.982,2.067 -0.027,-7.252 5.186,-1.988 -5.69,9.339 1.008,0.108 5.53,-9.215 0.025,6.016 -5.849,-4.784 -0.71,0.754 7.014,5.726 0.963,-0.041 -0.23,-9.7 m -0.667,-8.704 -7.585,2.989 0.01,9.198 8.084,-2.391 -1.072,-0.858 -5.982,2.068 -0.027,-7.252 5.185,-1.989 -5.69,9.34 1.009,0.107 5.53,-9.214 0.025,6.016 -5.849,-4.785 -0.71,0.754 7.014,5.727 0.963,-0.042 -0.23,-9.699 m -0.718,-8.266 -7.585,2.988 0.01,9.199 8.085,-2.392 -1.073,-0.857 -5.982,2.067 -0.027,-7.252 5.186,-1.988 -5.69,9.339 1.008,0.107 5.531,-9.214 0.024,6.016 -5.849,-4.785 -0.71,0.755 7.014,5.726 0.963,-0.041 -0.23,-9.7 m -0.667,-8.704 -7.585,2.989 0.01,9.198 8.085,-2.391 L 41,43.88 l -5.982,2.068 -0.027,-7.252 5.186,-1.989 -5.69,9.34 1.008,0.107 5.53,-9.214 0.025,6.016 -5.849,-4.785 -0.71,0.754 7.014,5.727 0.963,-0.042 -0.23,-9.699 m -0.708,-8.434 -7.585,2.989 0.01,9.198 8.085,-2.391 -1.073,-0.858 -5.981,2.068 -0.028,-7.252 5.186,-1.989 -5.69,9.34 1.008,0.107 5.531,-9.214 0.024,6.016 -5.848,-4.785 -0.71,0.754 7.014,5.727 0.963,-0.042 -0.23,-9.699 m -0.668,-8.704 -7.585,2.988 0.01,9.199 8.085,-2.392 -1.073,-0.857 -5.981,2.067 -0.028,-7.252 5.186,-1.988 -5.69,9.339 1.008,0.108 5.531,-9.215 0.024,6.016 -5.849,-4.785 -0.709,0.755 7.014,5.726 0.962,-0.041 -0.23,-9.7 m -0.683,-8.354 -7.585,2.989 0.01,9.199 8.085,-2.392 -1.072,-0.858 -5.982,2.068 -0.028,-7.252 5.186,-1.989 -5.69,9.34 1.008,0.107 5.531,-9.214 0.025,6.016 -5.85,-4.785 -0.709,0.754 7.014,5.727 0.963,-0.041 -0.23,-9.7 m -0.668,-8.703 -7.585,2.988 0.01,9.199 8.085,-2.392 -1.073,-0.857 -5.981,2.067 -0.028,-7.252 5.186,-1.988 -5.69,9.339 1.008,0.108 5.531,-9.215 0.024,6.016 -5.848,-4.784 -0.71,0.754 7.014,5.726 0.962,-0.041 -0.23,-9.7 m -0.706,-8.605 -7.585,2.989 0.01,9.198 8.084,-2.391 -1.072,-0.858 -5.982,2.068 -0.027,-7.252 5.185,-1.989 -5.69,9.34 1.008,0.107 5.532,-9.214 0.024,6.016 -5.849,-4.785 -0.71,0.754 7.014,5.727 0.963,-0.041 -0.23,-9.7 m -0.668,-8.704 -7.585,2.988 0.01,9.199 8.085,-2.392 -1.072,-0.857 -5.982,2.067 -0.027,-7.252 5.185,-1.988 -5.69,9.339 1.008,0.108 5.531,-9.215 0.025,6.016 -5.85,-4.785 -0.709,0.755 7.014,5.726 0.963,-0.041 -0.23,-9.7 m -0.684,-8.97 -7.585,2.989 0.01,9.198 8.085,-2.391 -1.073,-0.858 -5.981,2.068 -0.028,-7.252 5.186,-1.989 -5.69,9.34 1.008,0.107 5.531,-9.214 0.024,6.016 -5.848,-4.785 -0.71,0.754 7.014,5.727 0.963,-0.042 -0.23,-9.699 m -0.668,-8.704 -7.584,2.987 0.01,9.199 8.085,-2.392 -1.073,-0.857 -5.981,2.067 -0.028,-7.252 5.186,-1.988 -5.69,9.339 1.008,0.107 5.531,-9.214 0.024,6.016 -5.848,-4.785 -0.71,0.755 7.014,5.726 0.962,-0.041 -0.23,-9.7 m -0.757,-8.456 -7.585,2.989 0.01,9.198 8.085,-2.391 -1.073,-0.858 -5.981,2.068 -0.028,-7.252 5.186,-1.989 -5.69,9.34 1.008,0.107 5.531,-9.214 0.024,6.016 -5.849,-4.785 -0.71,0.754 7.014,5.727 0.963,-0.042 -0.23,-9.699 m -0.667,-8.704 -7.585,2.988 0.01,9.199 8.085,-2.392 -1.073,-0.857 -5.982,2.067 -0.027,-7.252 5.186,-1.988 -5.69,9.339 1.008,0.107 5.53,-9.214 0.025,6.016 -5.849,-4.785 -0.71,0.755 7.014,5.726 0.963,-0.041 -0.23,-9.7 m -0.667,-8.337 -7.585,2.989 0.01,9.198 8.084,-2.391 -1.072,-0.858 -5.982,2.068 -0.027,-7.252 5.185,-1.989 -5.69,9.34 1.009,0.107 5.53,-9.214 0.025,6.016 -5.849,-4.785 -0.71,0.754 7.014,5.727 0.963,-0.042 -0.23,-9.699 m -0.667,-8.704 -7.585,2.988 0.01,9.199 8.084,-2.392 -1.072,-0.857 -5.982,2.067 -0.027,-7.252 5.185,-1.988 -5.69,9.339 1.009,0.107 5.53,-9.214 0.025,6.016 -5.849,-4.785 -0.71,0.755 7.014,5.726 0.963,-0.041 -0.23,-9.7 m -0.69,-8.321 -7.585,2.988 0.01,9.199 8.085,-2.392 -1.073,-0.858 -5.981,2.068 -0.028,-7.252 5.186,-1.989 -5.69,9.34 1.008,0.107 5.531,-9.214 0.024,6.016 -5.848,-4.785 -0.71,0.755 7.014,5.726 0.963,-0.041 -0.23,-9.7 m -1.45,-8.75 -6.803,3.035 0.01,9.198 8.085,-2.391 -1.073,-0.858 -5.981,2.067 -0.028,-7.251 5.186,-1.99 -5.69,9.34 1.008,0.108 5.531,-9.215 0.024,6.016 -5.849,-4.784 -0.71,0.754 7.014,5.726 0.963,-0.04 -0.23,-9.7"
       style="fill:#1a1a1a;fill-opacity:1;stroke:none;stroke-width:0.169184"
       transform="matrix(0.03592,-1.62825,-1.73397,-0.03836,196.277,308.273)"
       id="path11" /></g><path
     d="m 17.055845,13.23095 1.391092,205.52789 38.626152,8.61563 L 20.25823,11.911638 Z"
     style="fill:#333333;stroke-width:0.0339626"
     id="path12" /><path
     d="m 33.047419,14.750193 0.925399,-5.8572804 c 5.469794,-3.3744174 10.866561,-5.9897934 16.335158,-8.55053737 2.484093,-0.438221 3.589065,-0.239452 5.277052,-0.309196 0,0 1.151661,-0.206905 2.206353,0.412649 1.055889,0.61955297 0.743432,4.59841197 0.743432,4.59841197 l -4.484536,-0.154597 c -0.0012,-1.174014 -0.07422,-3.238417 0.335203,-3.668501 -1.119338,-0.179008 -2.478107,-0.01046 -3.981732,0.36034 -4.676081,2.185292 -9.019353,4.755336 -14.839913,8.2401794 l -0.105349,5.3004964 m 29.93841,4.527507 0.9254,-5.856118 C 71.790892,10.41913 77.18766,7.8025916 82.657453,5.2430092 c 2.484093,-0.438221 3.587869,-0.239452 5.275855,-0.310358 0,0 1.151661,-0.206905 2.207551,0.413811 1.054692,0.619553 0.742235,4.5972504 0.742235,4.5972504 l -4.484537,-0.154598 c 0,-1.174013 -0.07422,-3.2372544 0.335203,-3.6685014 -1.118141,-0.177846 -2.478107,-0.0093 -3.980535,0.362666 -4.677278,2.1841294 -9.019353,4.7541728 -14.841109,8.2378548 l -0.104153,5.300496 m 36.215087,3.866107 0.9254,-5.85728 c 5.46979,-3.374417 10.86656,-5.989793 16.33515,-8.5505374 2.4841,-0.438221 3.58907,-0.239453 5.27706,-0.310358 0,0 1.15166,-0.205743 2.20635,0.41381 1.05589,0.6195544 0.74343,4.5984134 0.74343,4.5984134 l -4.48453,-0.15576 c -10e-4,-1.172851 -0.0742,-3.237255 0.3352,-3.667339 -1.11934,-0.179008 -2.47931,-0.01046 -3.98173,0.360341 -4.67728,2.185292 -9.01936,4.755335 -14.83992,8.240179 l -0.10535,5.300496 m 36.17439,4.617011 0.9254,-5.857281 c 5.46859,-3.373254 10.86536,-5.989793 16.33396,-8.550537 2.48529,-0.437058 3.58906,-0.23829 5.27705,-0.309195 0,0 1.15166,-0.206906 2.20755,0.412648 1.05469,0.620716 0.74223,4.598413 0.74223,4.598413 l -4.48453,-0.154598 c -0.001,-1.174014 -0.0742,-3.237255 0.3352,-3.668501 -1.11814,-0.177846 -2.47811,-0.01046 -3.98053,0.361503 -4.67728,2.185292 -9.02055,4.754173 -14.84111,8.239016 l -0.10535,5.300496 m 38.19398,4.31479 0.9254,-5.858443 c 5.46859,-3.373254 10.86656,-5.989793 16.33515,-8.549374 2.4841,-0.438221 3.58907,-0.239453 5.27706,-0.310358 0,0 1.15046,-0.206906 2.20635,0.41381 1.05589,0.619554 0.74343,4.59725 0.74343,4.59725 l -4.48573,-0.154597 c 0,-1.174014 -0.0742,-3.237255 0.3352,-3.668501 -1.11814,-0.177846 -2.47811,-0.0093 -3.98053,0.362665 -4.67728,2.18413 -9.01936,4.754173 -14.83992,8.237854 l -0.10535,5.300496 m 138.37058,15.966582 0.9254,-5.858443 c 5.46859,-3.373254 10.86536,-5.989793 16.33396,-8.549375 2.48409,-0.43822 3.58906,-0.239452 5.27705,-0.310358 0,0 1.15166,-0.206905 2.20635,0.413811 1.05589,0.619554 0.74463,4.59725 0.74463,4.59725 l -4.48573,-0.154597 c -0.001,-1.174014 -0.0742,-3.237255 0.3352,-3.668502 -1.11814,-0.177845 -2.47811,-0.0093 -3.98173,0.361504 -4.67608,2.185292 -9.01935,4.754172 -14.83991,8.239016 l -0.10535,5.300496 m -39.33846,-4.850651 0.9254,-5.857281 c 5.46859,-3.374416 10.86656,-5.989793 16.33516,-8.550537 2.48409,-0.43822 3.58906,-0.239452 5.27705,-0.309195 0,0 1.15046,-0.206906 2.20635,0.412648 1.05589,0.620716 0.74343,4.598413 0.74343,4.598413 l -4.48573,-0.154598 c 0,-1.174013 -0.073,-3.237255 0.3352,-3.668501 -1.11814,-0.177846 -2.4781,-0.01046 -3.98053,0.361503 -4.67728,2.185292 -9.01936,4.754173 -14.83991,8.239016 l -0.10535,5.300496 m -36.28333,-3.825423 0.9254,-5.858443 c 5.4686,-3.374417 10.86537,-5.989793 16.33396,-8.550537 2.4841,-0.438221 3.58907,-0.239452 5.27705,-0.309196 0,0 1.15167,-0.206905 2.20755,0.412649 1.0547,0.620716 0.74224,4.598412 0.74224,4.598412 L 274.1948,32.10583 c -10e-4,-1.174013 -0.0742,-3.237254 0.33521,-3.668501 -1.11814,-0.179008 -2.47811,-0.01046 -3.98174,0.361503 -4.67608,2.185293 -9.01935,4.754173 -14.83991,8.239017 l -0.10535,5.300496 m -34.5666,-4.298516 0.9254,-5.857281 c 5.46859,-3.374416 10.86536,-5.989793 16.33396,-8.550537 2.48409,-0.438221 3.58906,-0.239452 5.27705,-0.309195 0,0 1.15166,-0.206906 2.20755,0.412648 1.05469,0.620716 0.74223,4.598413 0.74223,4.598413 l -4.48453,-0.154598 c -0.001,-1.174013 -0.0742,-3.237255 0.3352,-3.668501 -1.11814,-0.177846 -2.47811,-0.01046 -3.98173,0.361503 -4.67608,2.185292 -9.01935,4.754173 -14.83991,8.239016 l -0.10535,5.300496"
     style="fill:#000000;fill-opacity:1;stroke:none;stroke-width:0.392884"
     id="path13" /><path
     d="M 20.016405,11.977895 21.14532,215.76801 351.06162,225.91916 351.4088,51.553769 Z"
     style="fill:#d1c5ff;fill-opacity:1;stroke-width:0.130338"
     id="path14"
     sodipodi:nodetypes="ccccc" /><path
     fill="#191919"
     d="m 379.21508,223.13175 -325.187549,-13.52324 0.210699,20.57313 324.64284,9.13871 z"
     style="stroke:none;stroke-width:1.17964"
     id="path15" /><g
     style="fill:#000000;fill-opacity:0.501961;stroke:none;stroke-width:0.619089;stroke-dasharray:none;stroke-opacity:1"
     transform="matrix(0.31904136,0,0,0.28704045,256.2736,50.297642)"
     id="g17"><path
       d="M 138.344,15.957 1.77,125.443 l 137.993,136.409 -29.54,-91.77 29.079,-24.562 -26.506,-27.44 -0.734,-0.76 -27.85,22.803 c 0,0 -1.926,-4.86 -1.398,-5.305 18.565,-15.668 38.298,-32.706 56.5,-47.92 z"
       style="fill:#000000;fill-opacity:0.501961;stroke:none;stroke-width:0.619089;stroke-dasharray:none;stroke-opacity:1"
       id="path16" /><path
       d="m 138.337,15.968 126.144,136.752 -28.35,23.836 -58.494,-63.862 -0.87,72.3 9.396,-10.073 -4.716,-6.218 0.193,-44.885 50.88,55.48 -92.844,82.4 z"
       style="fill:#000000;fill-opacity:0.501961;stroke:none;stroke-width:0.619089;stroke-dasharray:none;stroke-opacity:1"
       id="path17" /></g><path
     d="m 283.15669,43.434478 c 2.85282,3.374417 5.17889,7.003397 8.6626,9.564141 2.1453,0.43822 3.40351,0.239452 5.03643,0.310358 0,0 0.99124,0.205743 2.52719,-0.413811 1.53595,-0.619554 1.2175,-4.598413 1.2175,-4.598413 -3.37597,-0.0023 -4.01644,0.313845 -4.76586,0.700921 -0.26577,0.342905 -0.0922,0.68581 -0.0335,1.051963 0.14366,0.886903 0.72308,1.765669 0.77695,2.070215 -1.25701,0.179008 -2.48769,0.01162 -3.7016,-0.360341 -2.9833,-2.185292 -4.2906,-4.560053 -7.41038,-8.044897 m -37.07584,-4.384533 c 2.85282,3.374417 5.17889,7.003396 8.6626,9.56414 2.14411,0.438221 3.40351,0.239453 5.03643,0.309196 0,0 0.99124,0.206905 2.52719,-0.412648 1.53595,-0.620716 1.2175,-4.598413 1.2175,-4.598413 -3.37717,-0.0023 -4.01644,0.312683 -4.76586,0.700921 -0.26577,0.341742 -0.0934,0.68581 -0.0335,1.051962 0.14246,0.886904 0.72308,1.764508 0.77695,2.070216 -1.25701,0.179008 -2.48769,0.01046 -3.7016,-0.361503 -2.9833,-2.185292 -4.2906,-4.560054 -7.41038,-8.043735 m -34.10809,-4.282243 c 2.85401,3.374417 5.17888,7.003397 8.66379,9.564141 2.14411,0.437058 3.40231,0.239452 5.03643,0.309195 0,0 0.99124,0.206905 2.52599,-0.412648 1.53715,-0.620716 1.2187,-4.598413 1.2187,-4.598413 -3.37716,-0.0023 -4.01644,0.312683 -4.76706,0.700921 -0.26457,0.341743 -0.0922,0.68581 -0.0335,1.0508 0.14366,0.888066 0.72428,1.766832 0.77815,2.071378 -1.25701,0.177846 -2.48769,0.01046 -3.7016,-0.361503 -2.9845,-2.185292 -4.2906,-4.560054 -7.41038,-8.043735 m 102.0262,12.289944 c 2.85401,3.373254 5.17888,7.003396 8.6638,9.562978 2.1441,0.438221 3.40231,0.239452 5.03642,0.310358 0,0 0.99124,0.206905 2.52599,-0.413811 1.53715,-0.619553 1.21871,-4.59725 1.21871,-4.59725 -3.37717,-0.0035 -4.01645,0.31152 -4.76707,0.699758 -0.26577,0.342905 -0.0922,0.68581 -0.0335,1.051963 0.14366,0.886903 0.72428,1.765669 0.77815,2.071378 -1.25701,0.177845 -2.48768,0.0093 -3.7016,-0.362666 -2.9845,-2.18413 -4.29059,-4.558891 -7.41038,-8.043735 M 178.02269,30.758621 c 2.85281,3.374417 5.17888,7.003397 8.6626,9.564141 2.1453,0.43822 3.40351,0.239452 5.03642,0.310358 0,0 0.99125,0.206905 2.52719,-0.413811 1.53595,-0.619554 1.21751,-4.598413 1.21751,-4.598413 -3.37597,-0.0023 -4.01645,0.313845 -4.76587,0.700921 -0.26577,0.342905 -0.0922,0.68581 -0.0335,1.051963 0.14366,0.886903 0.72308,1.765669 0.77695,2.070215 -1.25701,0.179008 -2.48768,0.01162 -3.70159,-0.360341 -2.98331,-2.185292 -4.2906,-4.560053 -7.41038,-8.043735 M 137.58287,25.9905 c 2.85401,3.373254 5.17888,7.003396 8.6638,9.562978 2.1441,0.43822 3.40231,0.239452 5.03642,0.310358 0,0 0.99124,0.206905 2.52599,-0.413811 1.53715,-0.619554 1.21871,-4.59725 1.21871,-4.59725 -3.37717,-0.0035 -4.01645,0.31152 -4.76707,0.699758 -0.26457,0.342905 -0.0922,0.68581 -0.0335,1.051963 0.14366,0.886903 0.72428,1.766832 0.77815,2.071378 -1.25701,0.177845 -2.48768,0.0093 -3.7016,-0.362666 -2.9845,-2.18413 -4.2906,-4.558891 -7.41038,-8.043735 M 98.89804,21.421147 c 2.85281,3.374416 5.17888,7.003396 8.66379,9.562978 2.1441,0.43822 3.40231,0.239452 5.03643,0.310358 0,0 0.99124,0.206905 2.52599,-0.413811 1.53715,-0.619554 1.2187,-4.59725 1.2187,-4.59725 -3.37717,-0.0035 -4.01645,0.31152 -4.76706,0.699758 -0.26577,0.342905 -0.0922,0.68581 -0.0335,1.051963 0.14366,0.888065 0.72308,1.766832 0.77815,2.071378 -1.25701,0.177845 -2.48769,0.0093 -3.7016,-0.361504 -2.9845,-2.185292 -4.2906,-4.560053 -7.41038,-8.043735 M 60.404767,16.875041 c 2.854014,3.374417 5.178885,7.003397 8.663799,9.564141 2.144101,0.438221 3.402309,0.239452 5.036424,0.309195 0,0 0.991243,0.206906 2.525993,-0.412648 1.537145,-0.619553 1.218702,-4.598413 1.218702,-4.598413 -3.377169,-0.0023 -4.016449,0.312683 -4.767064,0.700921 -0.264571,0.341743 -0.09218,0.68581 -0.03352,1.051963 0.143658,0.886903 0.724277,1.765669 0.778149,2.070215 -1.257011,0.179008 -2.487684,0.01046 -3.701598,-0.36034 -2.984503,-2.185292 -4.290597,-4.560054 -7.410379,-8.044898 M 28.397675,12.982199 c 2.854014,3.374417 5.178886,7.003397 8.663799,9.564141 2.144102,0.437058 3.403507,0.238289 5.036424,0.309195 0,0 0.991243,0.206905 2.527191,-0.412648 1.535948,-0.620716 1.217505,-4.598413 1.217505,-4.598413 -3.37717,-0.0023 -4.01645,0.312683 -4.765868,0.700921 -0.265768,0.341743 -0.09338,0.68581 -0.03352,1.0508 0.142461,0.888066 0.723081,1.766832 0.776953,2.071378 -1.257011,0.177846 -2.487685,0.01046 -3.701599,-0.361503 -2.983306,-2.185292 -4.290597,-4.560054 -7.410379,-8.043735"
     style="fill:#000000;fill-opacity:0.50365;stroke:none;stroke-width:0.392884"
     id="path18" /><path
     d="m 40.779965,94.318805 -1.332115,-0.10689 -0.499927,-3.27171 -3.018985,-0.25556 -0.568424,3.19495 -1.308601,-0.10591 v -0.0369 l 2.865633,-14.318961 1.329048,0.129236 z m -1.994595,-4.53395 -1.250328,-7.98543 -1.419015,7.75611 z m 8.986413,5.10142 -1.263619,-0.103 0.07361,-7.85327 -2.797136,-0.17685 -0.07361,7.80275 -1.275886,-0.103 0.08588,-8.98628 1.274864,0.11563 -0.002,0.24876 c 0.497882,-0.0165 0.998831,-0.036 1.502847,-0.0583 0.61034,-0.0175 1.112312,-0.009 1.504892,0.0272 0.703374,0.0641 1.050971,0.42949 1.044837,1.09608 z m 7.204465,0.58302 -1.225792,-0.0991 0.002,-0.24681 c -0.493793,0.0272 -0.988608,0.0505 -1.484445,0.0719 a 12.411268,11.796432 0 0 1 -1.478311,-0.01 c -0.685993,-0.0564 -1.026434,-0.41395 -1.0203,-1.07373 l 0.03067,-3.25325 c 0.0051,-0.68408 0.363955,-0.99599 1.074485,-0.9338 l 2.941286,0.25458 0.02351,-2.67217 -2.6857,-0.24098 -0.01329,1.51876 -1.21659,-0.10688 0.01329,-1.50225 c 0.0061,-0.68991 0.36191,-1.0028 1.066306,-0.93866 l 3.00365,0.27207 c 0.698261,0.0641 1.043814,0.43921 1.03768,1.12523 z m -1.197166,-1.20199 0.0276,-3.13859 -2.788957,-0.23904 -0.02965,3.20272 z m 4.518765,1.47115 -1.215568,-0.0981 0.123703,-14.21985 1.215569,0.11661 z m 3.482107,-10.44868 -1.243172,-0.11563 0.01227,-1.51974 1.243172,0.11757 z m -0.109391,10.72173 -1.206367,-0.0972 0.07463,-8.81137 1.206367,0.1098 z m 6.85789,-0.45961 c -0.0051,0.6763 -0.349642,0.98724 -1.032568,0.93186 l -2.780779,-0.22544 c -0.688038,-0.0554 -1.030523,-0.42366 -1.024389,-1.10385 l 0.01636,-1.99393 1.198189,0.10106 -0.01636,1.97352 2.451583,0.20115 0.01329,-1.74323 -3.15189,-2.83737 a 1.3351826,1.2690395 0 0 1 -0.449832,-0.9785 l 0.01227,-1.46046 c 0.0061,-0.68019 0.353731,-0.98822 1.042791,-0.92506 l 2.739885,0.24876 c 0.684971,0.0622 1.022345,0.43143 1.017233,1.10676 l -0.01329,1.74031 -1.170585,-0.103 0.01431,-1.72476 -2.450561,-0.21961 -0.01227,1.5314 3.173358,2.84028 c 0.294436,0.25847 0.439609,0.58788 0.436542,0.98919 z m 5.047318,1.42451 -1.697093,-0.13701 c -0.671681,-0.0554 -1.004965,-0.41978 -0.999854,-1.09413 l 0.05214,-6.65032 -1.05506,-0.0943 0.0082,-1.04846 1.05506,0.0972 0.02147,-2.71105 1.178764,0.11078 -0.02045,2.70618 1.524316,0.13895 -0.0082,1.04361 -1.525339,-0.13604 -0.05112,6.60464 1.525338,0.12632 z m 6.404991,0.518885 -1.158317,-0.0943 0.002,-0.239035 c -0.467212,0.02718 -0.934423,0.05148 -1.402657,0.07288 -0.580692,0.0243 -1.046882,0.0214 -1.397546,-0.007 -0.648167,-0.05249 -0.970206,-0.39936 -0.965094,-1.04068 l 0.02454,-3.16385 c 0.0051,-0.66465 0.343508,-0.96782 1.015189,-0.90952 l 2.778734,0.24099 0.02045,-2.59833 -2.539505,-0.22835 -0.01022,1.47699 -1.150138,-0.10203 0.01022,-1.4595 c 0.0061,-0.67047 0.341463,-0.97655 1.007009,-0.91534 l 2.839052,0.2575 c 0.660435,0.0602 0.987586,0.42366 0.982474,1.09025 z m -1.132758,-1.166035 0.02249,-3.05114 -2.636627,-0.22738 -0.02351,3.11527 z m 11.375633,-6.52788 -2.080472,8.284705 -0.863882,3.24645 -1.139915,-0.0875 0.87615,-3.25033 -2.030377,-8.669495 1.194099,0.10786 1.395501,6.85825 1.500802,-6.59492 z m 10.398273,6.91656 c -0.004,0.715165 -0.23821,1.284575 -0.70133,1.708235 -0.45903,0.41978 -1.03768,0.60051 -1.73799,0.54416 l -3.041474,-0.24682 0.08792,-13.620305 3.039434,0.29443 c 0.70542,0.068 1.28304,0.35467 1.73492,0.85995 0.45187,0.49946 0.67577,1.1058 0.67168,1.81999 z m -1.17059,-0.21961 0.0511,-8.42658 c 0.004,-0.44406 -0.1329,-0.81622 -0.40587,-1.11259 a 1.5232941,1.4478322 0 0 0 -1.05506,-0.51695 l -1.63575,-0.15644 -0.07361,11.464105 1.570322,0.12924 c 0.456988,0.0379 0.828098,-0.0651 1.110268,-0.30803 0.28932,-0.24778 0.43552,-0.605365 0.43859,-1.072755 z m 4.31225,-7.30329 -1.12969,-0.10494 0.0102,-1.44784 1.12866,0.10689 z m -0.0777,10.221305 -1.09697,-0.0894 0.0511,-8.397425 1.09595,0.0991 z m 6.22915,-0.4635 c -0.004,0.6452 -0.3159,0.94254 -0.93749,0.89202 l -2.52519,-0.20406 c -0.6267,-0.0515 -0.93749,-0.40034 -0.93442,-1.04944 l 0.0112,-1.900635 1.0888,0.0913 -0.0102,1.882175 2.22666,0.18268 0.0102,-1.66258 -2.86972,-2.692575 a 1.2983782,1.2340583 0 0 1 -0.41099,-0.93088 l 0.008,-1.39342 c 0.004,-0.64715 0.31897,-0.94255 0.94465,-0.88619 l 2.49145,0.2264 c 0.62159,0.0564 0.93034,0.40715 0.92625,1.05138 l -0.0102,1.65967 -1.06323,-0.0933 0.0102,-1.64411 -2.22667,-0.20017 -0.008,1.45949 2.88915,2.69549 c 0.26785,0.24584 0.40076,0.5597 0.39871,0.942545 z m 6.17394,0.50722 c -0.003,0.64132 -0.30772,0.93575 -0.91499,0.88716 l -2.6121,-0.21183 c -0.61136,-0.0495 -0.91602,-0.39645 -0.91193,-1.03971 l 0.0348,-6.379205 c 0.003,-0.64327 0.31079,-0.93672 0.92216,-0.88133 l 2.61004,0.23709 c 0.60728,0.0554 0.90887,0.40229 0.90478,1.04166 l -0.0153,2.9734 -0.36804,0.36731 -3.01592,-0.25848 -0.0164,3.002555 2.33402,0.19239 0.008,-1.51391 1.04892,0.0875 z m -1.02847,-3.964525 0.0133,-2.49241 -2.333,-0.20892 -0.0133,2.49824 z m 7.29954,5.433735 -1.06426,-0.0865 0.0348,-7.210005 -2.35446,-0.14381 -0.0358,7.163365 -1.07346,-0.0875 0.0409,-8.247775 1.07346,0.0972 v 0.22835 c 0.41916,-0.0185 0.83934,-0.0389 1.26362,-0.0632 a 9.5108756,9.0397202 0 0 1 1.2677,0.0136 c 0.59296,0.0544 0.88638,0.38771 0.88331,0.99988 z m -0.45699,-9.574145 c -0.002,0.41005 -0.20038,0.59759 -0.59603,0.56164 -0.229,-0.0214 -0.58273,-0.15547 -1.0571,-0.40131 l -0.97941,-0.54707 -0.004,0.74432 -0.85468,-0.0787 0.005,-1.04167 c 0.002,-0.412 0.20038,-0.59954 0.59296,-0.56358 0.23003,0.0224 0.58376,0.15741 1.06018,0.40422 l 0.97634,0.54804 0.004,-0.74335 0.85775,0.0807 z m 6.53074,10.066795 -1.03257,-0.0845 v -0.22641 c -0.41609,0.0282 -0.83321,0.0525 -1.25033,0.0748 a 9.6018643,9.1262014 0 0 1 -1.24726,0 c -0.57762,-0.0466 -0.86592,-0.37313 -0.86286,-0.97947 l 0.0143,-2.98798 c 0.003,-0.628685 0.30466,-0.916305 0.90273,-0.864805 l 2.48021,0.21572 0.0102,-2.45549 -2.26449,-0.20308 -0.006,1.39439 -1.02541,-0.0904 0.006,-1.37982 c 0.003,-0.63257 0.3016,-0.92311 0.89558,-0.8687 l 2.53337,0.2303 c 0.58887,0.0534 0.88228,0.39548 0.87922,1.02514 z m -1.01212,-1.09802 0.0123,-2.88303 -2.35242,-0.20211 -0.0143,2.9423 z m 7.04396,1.58679 -1.02542,-0.0836 v -0.22446 c -1.11231,0.0923 -1.7298,0.13409 -1.85044,0.12438 a 1.4415065,1.3700963 0 0 1 -1.0704,-0.56359 c -0.27092,-0.34495 -0.40484,-0.75695 -0.4028,-1.236 l 0.0205,-4.753545 c 0.002,-0.5014 0.15846,-0.90174 0.46823,-1.20297 0.30977,-0.30511 0.69622,-0.43726 1.16036,-0.39548 l 1.70732,0.15547 0.0204,-4.92166 1.02643,0.0991 z m -1.02235,-1.09122 0.0266,-6.114895 -1.43537,-0.12924 c -0.57251,-0.0515 -0.86082,0.23709 -0.86388,0.86481 l -0.0184,4.339605 c -0.003,0.62286 0.28319,0.9581 0.85672,1.00571 0.13495,0.0107 0.61341,0.0224 1.43537,0.034 z m 7.02453,0.64424 c -0.002,0.62188 -0.29136,0.90951 -0.86899,0.86287 l -2.57018,-0.20892 c -0.5766,-0.0466 -0.86388,-0.38285 -0.86081,-1.00765 l 0.0245,-6.194585 c 0.002,-0.6248 0.29239,-0.91048 0.86899,-0.85801 l 2.56813,0.23321 c 0.57763,0.0525 0.86388,0.38868 0.86184,1.01057 z m -1.01825,-0.11661 0.0235,-6.104205 -2.25427,-0.20212 -0.0235,6.120735 z m 6.55323,-3.8557 -0.99065,-0.0865 0.006,-1.648975 -1.8576,-0.10008 -0.0256,6.957365 -1.01212,-0.0826 0.0286,-8.010685 1.01212,0.0913 v 0.22252 c 0.3343,-0.0243 0.67066,-0.0515 1.01007,-0.0816 0.40383,-0.0292 0.74018,-0.0311 1.00701,-0.007 0.55411,0.0505 0.83015,0.37313 0.8281,0.96878 z m 8.373,6.03231 -0.97736,-0.0797 v -0.2196 c -1.05915,0.0933 -1.64699,0.13603 -1.7615,0.12632 a 1.3627859,1.2952754 0 0 1 -1.01928,-0.54804 c -0.25763,-0.33621 -0.38644,-0.73849 -0.3844,-1.20491 l 0.0143,-4.638885 c 0.002,-0.48877 0.14926,-0.88036 0.44369,-1.17479 a 1.2697525,1.2068507 0 0 1 1.10414,-0.38868 l 1.62552,0.14867 0.0153,-4.80311 0.97634,0.0943 z m -0.97429,-1.06207 0.0174,-5.968175 -1.36585,-0.12243 c -0.54594,-0.0486 -0.81992,0.23321 -0.82095,0.845375 l -0.0133,4.23466 c -0.002,0.60829 0.2699,0.93478 0.81583,0.97948 0.12882,0.01 0.58479,0.0204 1.36688,0.0311 z m 6.57981,0.60537 c -0.002,0.60731 -0.27603,0.88813 -0.81992,0.84441 l -2.34526,-0.19046 c -0.549,-0.0447 -0.82401,-0.37118 -0.82196,-0.98141 l 0.0174,-6.045915 c 0.002,-0.60925 0.27705,-0.8891 0.82605,-0.83954 l 2.34424,0.21377 c 0.54491,0.0486 0.81583,0.37702 0.81481,0.98336 l -0.007,2.817925 -0.32919,0.34981 -2.70922,-0.23126 -0.008,2.8461 2.09581,0.17199 0.004,-1.4352 0.94158,0.0777 z m -0.93238,-3.75465 0.006,-2.361225 -2.09581,-0.18851 -0.005,2.368035 z m 9.92186,4.50869 c 0,0.26042 -0.0746,0.46642 -0.22185,0.61994 a 0.63998797,0.60828387 0 0 1 -0.56433,0.20115 l -2.82474,-0.22835 a 0.81583132,0.77541618 0 0 1 -0.58274,-0.2954 1.0755069,1.0222278 0 0 1 -0.22185,-0.65978 l 0.007,-3.1794 1.00088,0.0865 -0.007,3.08028 2.42296,0.19823 0.006,-2.9734 -3.08952,-4.444545 a 1.8259082,1.7354553 0 0 1 -0.32204,-0.98142 l 0.006,-2.53614 c 0,-0.26235 0.0756,-0.46835 0.22492,-0.61897 0.15335,-0.15061 0.34759,-0.21377 0.58273,-0.19142 l 2.82168,0.27304 a 0.77698221,0.7384916 0 0 1 0.56433,0.30123 c 0.1462,0.17879 0.2198,0.3984 0.21878,0.65784 l -0.006,2.89567 -0.99168,-0.0904 0.006,-2.80433 -2.42092,-0.23126 -0.006,2.63719 3.09771,4.442605 c 0.20446,0.29443 0.3067,0.61314 0.30465,0.95907 z m 5.58405,0.44309 c 0,0.59663 -0.26581,0.87259 -0.79641,0.82984 l -2.35855,-0.19143 c -0.52957,-0.0427 -0.79436,-0.36341 -0.79334,-0.96198 l 0.0123,-5.93708 c 0,-0.5976 0.26581,-0.872585 0.79539,-0.82498 l 2.35752,0.21378 c 0.5306,0.0486 0.79437,0.37021 0.79334,0.96587 z m -0.93544,-0.10785 0.0102,-5.84963 -2.06821,-0.18657 -0.0112,5.86615 z m 5.04016,-10.053205 -1.30861,-0.12535 -0.006,3.740075 1.15627,0.10494 -10e-4,0.9202 -1.15525,-0.10397 -0.0112,6.74456 -0.91499,-0.0739 0.0102,-6.75331 -0.79027,-0.07 v -0.92311 l 0.79129,0.0709 0.006,-3.775045 c 0.001,-0.59371 0.26274,-0.86482 0.78413,-0.81526 l 1.44151,0.13993 z m 3.23061,11.650675 -1.30452,-0.10689 c -0.5173,-0.0418 -0.77596,-0.35855 -0.77493,-0.95032 l 0.008,-5.83505 -0.81175,-0.0729 0.001,-0.9202 0.81174,0.0739 0.003,-2.377745 0.90682,0.0855 -0.003,2.374825 1.17365,0.10689 -0.001,0.91631 -1.17365,-0.10591 -0.008,5.79716 1.17365,0.0972 z m 7.11347,-6.9768 -1.36994,7.45682 -0.80867,-0.0651 -0.96919,-5.83895 -0.98349,5.68056 -0.80152,-0.0651 -1.37097,-7.74055 0.85877,0.0777 0.93238,5.94 0.97736,-5.76606 0.7913,0.0719 0.961,5.92154 0.93647,-5.74955 z m 4.79787,7.94073 -0.87717,-0.0709 v -0.20794 a 69.78527,66.328206 0 0 1 -1.06018,0.0758 c -0.4396,0.0262 -0.79129,0.0292 -1.0571,0.008 -0.4897,-0.0398 -0.73404,-0.33912 -0.73404,-0.89687 l 0.002,-2.75283 c 0,-0.57816 0.25559,-0.84538 0.76267,-0.80165 l 2.10296,0.18268 v -2.26212 l -1.91996,-0.17199 v 1.28459 l -0.87002,-0.0768 v -1.27098 c 0.001,-0.58302 0.25355,-0.85218 0.75654,-0.80651 l 2.14795,0.19531 c 0.50095,0.0457 0.74937,0.35953 0.74937,0.93964 z m -0.86286,-1.00474 0.002,-2.65663 -1.99561,-0.17102 -0.002,2.71104 z m 5.69446,-3.60889 -0.86593,-0.0758 v -1.54208 l -1.62348,-0.0845 -0.003,6.50553 -0.88535,-0.0709 0.004,-7.49083 0.88433,0.0807 v 0.20698 c 0.29239,-0.0243 0.58683,-0.0515 0.88228,-0.0807 0.35374,-0.0292 0.64715,-0.033 0.88024,-0.0126 0.48459,0.0447 0.72689,0.34496 0.72587,0.90174 z m 4.67518,4.52326 c 0,0.5733 -0.24331,0.84149 -0.73097,0.80165 l -2.09581,-0.17005 c -0.49073,-0.0389 -0.73609,-0.34787 -0.73609,-0.92408 v -5.71748 c 0,-0.57622 0.24639,-0.8415 0.73609,-0.7968 l 2.09581,0.19046 c 0.48766,0.0437 0.73097,0.35272 0.73097,0.92603 v 2.66537 l -0.29341,0.33329 -2.42193,-0.20794 v 2.6916 l 1.87395,0.1545 v -1.35843 l 0.84139,0.0709 z m -0.84139,-3.54671 v -2.23393 l -1.87293,-0.16811 v 2.23977 z"
     aria-label="Analista y Diseñador de Software"
     style="font-size:16.0523px;font-family:'Agency FB';-inkscape-font-specification:'Agency FB';fill:#181e00;fill-opacity:1;stroke-width:0.181411"
     id="path19" /><path
     d="m 47.682,35.093097 -9.027484,-1.13266 0.0061,14.253968 7.729027,0.900013 0.0073,6.23096 -7.732657,-0.869437 0.0097,21.392918 -5.282167,-0.523789 V 26.917206 l 14.283029,1.847884 z m 17.072352,39.554031 c 0.0073,2.53785 -0.92574,3.71438 -2.802634,3.528263 l -8.67655,-0.860131 c -1.902306,-0.187447 -2.85588,-1.56339 -2.86072,-4.125169 l -0.03388,-23.304613 c -0.0036,-2.549815 0.943892,-3.711722 2.841358,-3.485722 l 8.654767,1.026307 c 1.870844,0.222012 2.808685,1.595296 2.815946,4.12384 l 0.03025,11.262789 -1.366224,1.768119 -8.122315,-0.877413 0.01694,8.661127 4.719462,0.483907 -0.0121,-5.127547 4.777547,0.505177 z m -4.812641,-14.97584 -0.01694,-7.367608 -4.712201,-0.545059 0.01331,7.391537 z m 22.810734,20.566022 -4.864677,-0.482577 -0.0036,-1.056883 c -3.313304,0.495871 -5.178097,0.72586 -5.579856,0.685977 -1.236742,-0.122306 -2.210887,-0.725859 -2.920016,-1.808002 -0.71034,-1.103413 -1.068535,-2.53785 -1.074586,-4.299322 L 68.25404,54.323059 c -0.0073,-2.482015 0.620791,-4.131816 1.884154,-4.949405 0.91727,-0.616848 2.306486,-0.813601 4.167649,-0.592919 0.41507,0.04919 1.014079,0.140918 1.799446,0.273859 0.784157,0.132942 1.339601,0.219354 1.667543,0.257907 l -0.06293,-16.660207 4.845314,0.627483 z m -4.886459,-6.43303 -0.07261,-18.746056 -3.016825,-0.346976 c -1.086687,-0.126295 -1.62882,0.576965 -1.623979,2.10579 l 0.04962,14.600945 c 0.0048,1.494261 0.525191,2.293238 1.556212,2.399591 0.243234,0.02526 1.280305,0.02127 3.107584,-0.01329 z m 22.093134,4.416311 c 0.0133,2.482014 -0.87371,3.634614 -2.667101,3.456474 l -8.289312,-0.82025 c -1.816388,-0.180798 -2.732448,-1.523506 -2.743339,-4.026791 l -0.10407,-22.786142 c -0.01089,-2.49132 0.891857,-3.629298 2.703405,-3.415262 l 8.26874,0.981107 c 1.788557,0.212706 2.688887,1.554084 2.702197,4.025463 l 0.0629,11.014188 -1.29967,1.730896 -7.76049,-0.83753 0.04235,8.468362 4.510112,0.462636 -0.02662,-5.014547 4.564568,0.482577 z m -4.643225,-14.631522 -0.03751,-7.20542 -4.502851,-0.518471 0.0363,7.225361 z m 21.063325,2.685415 -4.62871,-0.511825 -0.0448,-6.806595 -3.7078,-0.307095 0.15368,24.104916 -4.72672,-0.46795 -0.1791,-29.950349 4.71462,0.559683 0.007,1.091448 c 0.97052,-0.140917 1.93135,-0.281835 2.88493,-0.424082 1.15566,-0.156871 2.12133,-0.188777 2.89581,-0.09705 1.69538,0.200742 2.55093,1.504896 2.56787,3.909805 z m 7.19415,-15.753547 -4.61781,-0.559683 -0.0508,-6.899654 4.6154,0.580953 z m 0.22024,33.783048 -4.54883,-0.45067 -0.21782,-29.644586 4.53794,0.539742 z m 16.37654,-1.99944 c 0.023,2.41688 -0.80231,3.54289 -2.47591,3.37671 l -7.89723,-0.78169 c -1.722,-0.17017 -2.59328,-1.47565 -2.61386,-3.91379 l -0.17788,-22.19057 c -0.0194,-2.428838 0.83135,-3.540227 2.54972,-3.336827 l 7.87787,0.935907 c 1.66996,0.198082 2.51462,1.499578 2.53641,3.908474 l 0.0641,6.938208 -4.40483,-0.491883 -0.0448,-5.046452 -4.06963,-0.467954 0.15368,18.312667 4.07689,0.418765 -0.0484,-5.610124 4.40483,0.469283 z m 16.18775,1.64316 c 0.0242,2.39161 -0.78052,3.50699 -2.41781,3.3448 l -7.98074,-0.791 c -1.68448,-0.16751 -2.54004,-1.45704 -2.56182,-3.86859 l -0.20693,-21.95659 c -0.023,-2.40225 0.80836,-3.503004 2.48922,-3.303592 l 7.96258,0.943883 c 1.63366,0.195424 2.46138,1.482296 2.48558,3.864604 z m -4.35279,-2.31052 -0.18394,-18.066728 -4.21606,-0.485236 0.17789,18.118574 z m 30.36429,4.44423 c 0.0351,2.6894 -0.83619,3.94569 -2.61628,3.76888 l -9.25377,-0.91729 c -1.75588,-0.17283 -2.65016,-1.61923 -2.68284,-4.33389 l -0.41628,-36.273039 c -0.0315,-2.715991 0.84709,-3.957663 2.63564,-3.726345 l 9.16665,1.185836 c 1.77282,0.229989 2.67436,1.688355 2.71066,4.377758 l 0.1186,9.365716 -4.37942,-0.526448 -0.0968,-7.790361 -5.71902,-0.717883 0.39087,32.909626 5.73475,0.59159 -0.15369,-12.368864 -3.26248,-0.364259 -0.0678,-5.623418 7.6419,0.88273 z m 15.65409,5.57954 -4.16644,-0.41212 -0.0133,-0.97977 c -0.96325,0.14623 -1.93256,0.29247 -2.91033,0.43737 -1.18713,0.16219 -2.16974,0.20473 -2.94543,0.12896 -1.54048,-0.15289 -2.32827,-1.40253 -2.35973,-3.74762 l -0.32431,-25.011578 4.18701,0.495871 0.30616,22.950987 3.98492,0.26987 -0.31221,-22.747586 4.15796,0.491883 z m 6.76456,-31.271784 -4.13255,-0.502518 -0.0944,-6.534066 4.13135,0.52113 z m 0.43323,31.985684 -4.06963,-0.40414 -0.40297,-28.062587 4.06237,0.482577 z m 15.10228,8.195825 c 0.0363,2.29324 -0.7055,3.37006 -2.22904,3.23047 l -7.09372,-0.65141 c -1.54169,-0.14225 -2.3319,-1.36929 -2.36578,-3.68247 l -0.0678,-4.492085 3.95829,0.38553 0.0508,3.346125 3.68844,0.35097 -0.0896,-5.763005 -4.18701,-0.41478 c -1.14477,-0.11432 -2.06567,-0.70325 -2.76149,-1.76811 -0.68493,-1.06354 -1.0407,-2.47271 -1.06732,-4.22754 l -0.25534,-17.085617 c -0.0242,-1.600614 0.25049,-2.826333 0.82167,-3.677157 0.57118,-0.850824 1.36743,-1.213754 2.3924,-1.092778 0.51067,0.06115 2.06084,0.620836 4.64081,1.675061 l -0.0157,-1.015672 4.02969,0.478589 z M 216.0954,88.225755 215.82918,71.149442 c -1.36502,-0.376224 -2.21452,-0.583613 -2.54609,-0.620836 -0.87855,-0.101036 -1.30693,0.518471 -1.28757,1.85719 l 0.20451,13.344649 c 0.0218,1.39854 0.48405,2.14434 1.38801,2.2374 z m 18.60678,3.67716 c 0.0387,2.26532 -0.67524,3.32619 -2.14191,3.18128 l -7.1518,-0.70858 c -1.51022,-0.15022 -2.2847,-1.36796 -2.32221,-3.65322 l -0.33642,-20.796013 c -0.0375,-2.275956 0.69824,-3.323533 2.20484,-3.145392 l 7.13728,0.848166 c 1.46424,0.172823 2.21573,1.389236 2.25445,3.64658 z m -3.91594,-2.16695 -0.28801,-17.118851 -3.7792,-0.434718 0.28317,17.164049 z m 18.30667,6.98607 -3.8748,-0.3842 -0.0181,-0.94388 c -0.89306,0.14357 -1.7946,0.28848 -2.70219,0.43205 -1.10121,0.15953 -2.01364,0.20606 -2.73487,0.13295 -1.43278,-0.14092 -2.17095,-1.34271 -2.20968,-3.60404 l -0.42112,-24.128853 3.89174,0.462636 0.3945,22.140047 3.70296,0.24594 -0.3957,-21.945951 3.86632,0.458647 z"
     aria-label="Federico Guigou"
     style="font-weight:700;font-size:30.2749px;font-family:'Agency FB';-inkscape-font-specification:'Agency FB Bold';fill:#2e3a00;stroke-width:0.435398"
     id="path20" /><path
     d="m 41.035031,107.00578 -6.491513,-0.48931 0.269931,28.55003 -3.74875,-0.20291 -0.279149,-28.63035 -6.646888,-0.50093 -0.02633,-2.46028 16.90032,1.30412 z m 17.407263,16.66184 -3.412982,-0.2177 -0.0316,-3.91869 -6.430943,-0.27266 0.140891,16.56144 -3.513055,-0.19023 -0.165909,-19.10204 3.517005,0.24095 0.0053,0.52842 c 1.158728,-0.0507 2.324041,-0.10886 3.495937,-0.17121 1.397058,-0.0613 2.557103,-0.0592 3.480135,0.004 1.911903,0.13104 2.870487,0.90358 2.882338,2.31761 z m 18.500155,13.68373 -3.314227,-0.17966 -0.0026,-0.51785 c -1.337804,0.0676 -2.676926,0.12894 -4.018681,0.18495 -1.668306,0.0634 -3.008744,0.0676 -4.017365,0.0127 -1.869766,-0.1004 -2.811233,-0.84863 -2.821767,-2.24046 l -0.05004,-6.87462 c -0.01185,-1.44574 0.954634,-2.10836 2.894188,-1.98683 l 7.995227,0.49988 -0.03818,-5.63286 -7.30394,-0.48825 0.02238,3.20957 -3.320811,-0.21454 -0.0237,-3.17892 c -0.01053,-1.46052 0.948051,-2.12421 2.870487,-1.99316 l 8.172986,0.56011 c 1.893468,0.12894 2.842835,0.91627 2.852053,2.362 z m -3.278675,-2.49833 -0.04345,-6.60513 -7.584405,-0.46289 0.05004,6.75943 z m 22.60179,3.54669 -3.266824,-0.17754 -0.08427,-16.16091 -7.263121,-0.33185 0.09217,16.09962 -3.320811,-0.17966 -0.110606,-18.56835 3.324761,0.22827 0.0026,0.51467 c 1.294352,-0.0391 2.595288,-0.0845 3.901491,-0.13315 1.584035,-0.0444 2.883654,-0.0307 3.902809,0.0391 1.821047,0.1247 2.733546,0.87399 2.738813,2.24786 z M 114.1113,137.2668 c 0.005,1.40029 -0.89011,2.05235 -2.69009,1.95512 l -7.3395,-0.39842 c -1.82499,-0.0993 -2.74408,-0.85603 -2.75066,-2.27111 l -0.0184,-4.15331 3.17728,0.18812 0.0184,4.10575 6.47439,0.36143 -0.0145,-3.6175 -8.41395,-5.84634 c -0.81243,-0.55166 -1.22062,-1.23014 -1.22457,-2.03226 l -0.0132,-3.04893 c -0.008,-1.41826 0.90591,-2.06397 2.73354,-1.93927 l 7.25391,0.49671 c 1.80261,0.12364 2.70457,0.88773 2.70984,2.29119 l 0.0132,3.61432 -3.08512,-0.19762 -0.0132,-3.5858 -6.48098,-0.43329 0.0132,3.1916 8.46136,5.85479 c 0.78214,0.53052 1.17453,1.21111 1.17716,2.04178 z m 13.58346,-23.83872 -4.40712,-0.3329 0.0263,8.79487 3.89096,0.26632 0.005,2.15697 -3.89096,-0.25892 0.0474,15.81427 -3.08379,-0.16697 -0.05,-15.85338 -2.67561,-0.17966 -0.008,-2.17388 2.67561,0.18283 -0.0277,-8.88998 c -0.005,-1.39923 0.87431,-2.03121 2.63479,-1.89488 l 4.85612,0.37411 z m 15.6797,25.47362 c 0.003,1.36859 -0.85456,2.00585 -2.5729,1.91285 l -7.67263,-0.41639 c -1.72887,-0.093 -2.5966,-0.83172 -2.59924,-2.21404 l -0.0342,-13.72494 c -0.004,-1.38443 0.86246,-2.01853 2.59265,-1.90016 l 7.68448,0.5263 c 1.71966,0.1173 2.57817,0.86236 2.5808,2.23412 z m -3.03244,-0.24307 -0.0237,-13.46918 -6.73906,-0.45021 0.0303,13.54422 z m 19.32311,-8.53277 -2.90999,-0.186 -0.001,-3.6175 -5.4829,-0.22193 0.0145,15.28163 -2.99295,-0.16169 -0.0198,-17.62144 2.9969,0.20502 v 0.48826 a 235.56425,189.06532 0 0 0 2.98241,-0.17544 c 1.19164,-0.0634 2.18051,-0.0666 2.96792,-0.0127 1.63012,0.11202 2.44387,0.82009 2.44518,2.12527 z m 24.88896,13.06231 -2.83361,-0.1543 0.0197,-15.04385 -6.23212,-0.27477 -0.0132,14.98044 -2.85468,-0.1543 0.009,-15.15798 -6.32693,-0.279 -0.003,15.09352 -2.92052,-0.15853 v -17.40373 l 2.92315,0.2008 v 0.48191 c 1.13898,-0.0412 2.27796,-0.0877 3.41167,-0.14162 1.37994,-0.0476 2.5176,-0.0412 3.41562,0.0211 0.88089,0.0602 1.53004,0.32339 1.94877,0.78945 1.20876,-0.0476 2.40962,-0.10146 3.59864,-0.1617 1.56033,-0.0581 2.73881,-0.0602 3.53544,-0.005 1.5656,0.10674 2.34379,0.80001 2.34379,2.07877 z m 16.06156,0.86976 -2.71643,-0.14795 10e-4,-0.46817 c -1.09552,0.0676 -2.19368,0.12999 -3.29316,0.186 -1.36809,0.0655 -2.46493,0.075 -3.29184,0.0317 -1.52742,-0.0845 -2.29376,-0.75457 -2.29112,-2.0143 l 0.0132,-6.212 c 0.001,-1.30834 0.79663,-1.91284 2.3833,-1.81244 l 6.5455,0.40899 0.0132,-5.09388 -5.98061,-0.40159 -0.007,2.90203 -2.71643,-0.17438 0.005,-2.8735 c 0.003,-1.32102 0.79136,-1.92658 2.36354,-1.81773 l 6.69298,0.45761 c 1.5498,0.10568 2.32272,0.81375 2.31877,2.11998 z m -2.66902,-2.24574 0.0145,-5.97527 -6.20841,-0.37834 -0.0119,6.1116 z m 18.52912,3.10705 -2.68483,-0.1469 0.0527,-14.63908 -5.9635,-0.25998 -0.0461,14.57673 -2.72564,-0.14795 0.0527,-16.80663 2.72564,0.18706 v 0.465 c 1.06261,-0.0423 2.1318,-0.0898 3.20494,-0.14267 1.30094,-0.0486 2.37013,-0.0433 3.20626,0.0137 1.49581,0.10251 2.23977,0.7757 2.23582,2.01958 z m 15.26361,0.82644 -2.59528,-0.14056 0.003,-0.45655 c -2.81913,0.21876 -4.38605,0.32022 -4.69153,0.30437 -1.12581,-0.0613 -2.03436,-0.4333 -2.72302,-1.11706 -0.68997,-0.69645 -1.03232,-1.53239 -1.02837,-2.5089 l 0.0395,-9.69739 c 0.005,-1.02406 0.40161,-1.84415 1.19033,-2.46239 0.78873,-0.62775 1.77365,-0.90147 2.95345,-0.8201 l 4.33601,0.29591 0.0487,-10.03451 2.59924,0.20079 z m -2.58607,-2.18551 0.0606,-12.43456 -3.64077,-0.24307 c -1.45763,-0.0972 -2.18974,0.49459 -2.19501,1.77652 l -0.0395,8.84242 c -0.005,1.26819 0.72157,1.9435 2.17789,2.02487 0.34235,0.019 1.5577,0.0307 3.63682,0.0338 z m 17.65745,1.12234 c -0.008,1.25339 -0.73079,1.84099 -2.17394,1.76278 l -6.44147,-0.34875 c -1.44973,-0.0793 -2.17262,-0.75034 -2.16604,-2.01641 l 0.0658,-12.56244 c 0.007,-1.26818 0.73737,-1.85261 2.18842,-1.75432 l 6.44938,0.44281 c 1.44446,0.0983 2.16076,0.77676 2.15418,2.03226 z m -2.54657,-0.20925 0.0724,-12.33838 -5.65539,-0.37729 -0.0685,12.39968 z m 16.99249,-16.64493 -2.52419,-0.18177 0.0197,-2.77416 2.52419,0.18706 z m -0.17645,19.50892 -2.44518,-0.13316 0.11061,-16.03832 2.44913,0.16804 z m 14.3261,0.77676 -2.40173,-0.12999 0.004,-0.43963 c -2.61109,0.21664 -4.06082,0.31704 -4.3426,0.30225 -1.04286,-0.0571 -1.88294,-0.41216 -2.51629,-1.06951 -0.63598,-0.66791 -0.95068,-1.47109 -0.9441,-2.40955 l 0.0698,-9.32433 c 0.008,-0.9839 0.37659,-1.77546 1.10869,-2.37045 0.73211,-0.60556 1.64329,-0.87082 2.73618,-0.79685 l 4.01078,0.27478 0.079,-9.65089 2.40436,0.186 z m -2.38592,-2.09673 0.0948,-11.96005 -3.36821,-0.2251 c -1.34834,-0.0898 -2.02778,0.48085 -2.03699,1.71416 l -0.0658,8.50213 c -0.008,1.22063 0.66232,1.8674 2.00934,1.9435 0.31733,0.0169 1.44183,0.0254 3.3669,0.0254 z m 16.08394,1.02829 c -0.0105,1.20689 -0.67812,1.77546 -2.00408,1.70254 l -5.71727,-0.30965 c -1.34307,-0.074 -2.01066,-0.71864 -2.00012,-1.9361 l 0.1027,-12.08475 c 0.0105,-1.22063 0.68866,-1.78391 2.03305,-1.69197 l 5.72254,0.39102 c 1.32727,0.0919 1.98432,0.74189 1.97247,1.95089 l -0.0514,5.6149 -0.80452,0.7049 -6.60475,-0.40265 -0.0487,5.67935 5.10894,0.28535 0.0263,-2.85765 2.29112,0.13422 z m -2.22397,-7.45271 0.0421,-4.71025 -5.1142,-0.34241 -0.0408,4.73245 z m 15.67575,9.9933 -2.26873,-0.12259 0.004,-0.42801 a 194.08703,155.77545 0 0 1 -2.75198,0.18389 c -1.1403,0.0645 -2.05675,0.0793 -2.7454,0.0423 -1.2746,-0.0697 -1.90927,-0.67848 -1.8961,-1.8283 l 0.0527,-5.66985 c 0.0118,-1.19315 0.67943,-1.74798 2.00144,-1.66555 l 5.46051,0.34136 0.0474,-4.65213 -4.99044,-0.3329 -0.025,2.6484 -2.26479,-0.1469 0.0263,-2.62092 c 0.0105,-1.20478 0.67286,-1.76278 1.98433,-1.67295 l 5.58296,0.38257 c 1.29304,0.0888 1.93297,0.72921 1.92112,1.92342 z m -2.21475,-2.03966 0.0553,-5.45637 -5.18004,-0.31599 -0.0527,5.5779 z m 14.90283,0.96065 c -0.0132,1.1773 -0.65573,1.73213 -1.92902,1.66238 l -5.19058,-0.28111 c -1.2904,-0.0697 -1.92902,-0.69856 -1.91717,-1.88643 l 0.0369,-3.48645 2.24372,0.13316 -0.0369,3.44735 4.5783,0.25575 0.0329,-3.04048 -5.88318,-4.84341 c -0.5662,-0.45655 -0.84798,-1.02194 -0.8414,-1.69514 l 0.0263,-2.55856 c 0.0132,-1.18999 0.66627,-1.74165 1.95667,-1.65287 l 5.12737,0.35086 c 1.27592,0.0877 1.90532,0.72181 1.89215,1.90228 l -0.0329,3.0373 -2.18315,-0.1395 0.0329,-3.01299 -4.58224,-0.30648 -0.0263,2.6801 5.91874,4.84764 c 0.54776,0.44069 0.81637,1.00926 0.80979,1.70888 z m 19.15852,1.07056 c -0.0132,1.15616 -0.6294,1.70148 -1.84738,1.63596 l -5.25246,-0.28534 c -1.23247,-0.0666 -1.84343,-0.68377 -1.83027,-1.84944 l 0.13826,-11.57853 c 0.0132,-1.16885 0.63862,-1.711 1.87372,-1.62645 l 5.25641,0.35932 c 1.2193,0.0845 1.81973,0.7049 1.80525,1.86423 l -0.0658,5.38133 -0.74264,0.67743 -6.06752,-0.36989 -0.0658,5.44263 4.69417,0.26103 0.0342,-2.73822 2.10415,0.12259 z m -2.01724,-7.13777 0.0566,-4.51368 -4.69812,-0.31494 -0.054,4.53482 z m 14.52229,9.55155 -2.11731,-0.11519 0.17118,-12.99151 -4.69944,-0.19022 -0.16722,12.92703 -2.14628,-0.11625 0.19092,-14.90118 2.1476,0.1469 -0.005,0.41216 c 0.83877,-0.0444 1.68148,-0.0941 2.52814,-0.14795 1.02705,-0.0528 1.86977,-0.055 2.52813,-0.01 1.18112,0.0814 1.7618,0.6732 1.74731,1.77758 z"
     aria-label="Transformando ideas en"
     style="font-size:31.3661px;font-family:'Agency FB';-inkscape-font-specification:'Agency FB';fill:#2e3a00;stroke-width:0.419535"
     id="path21" /><path
     d="m 22.955,142.32146 35.353462,3.57328 -0.210002,10.85702 -8.196729,-0.36329 -0.203356,10.30212 7.674382,0.33503 -0.199369,10.33982 -7.679699,-0.32979 -0.235256,11.96785 9.024776,0.38109 -0.211331,10.8968 -21.348446,-0.88468 z m 63.70641,16.25307 c -1.528496,3.76488 -6.120632,15.06162 -7.650458,18.82651 l 6.549941,24.01945 -11.443788,-0.47427 c -1.016783,-5.9164 -2.272808,-10.79002 -2.777877,-15.04593 -0.875895,5.25053 -1.318494,10.054 -2.323314,14.83444 l -9.862126,-0.40832 5.522524,-23.07509 -4.662579,-21.48789 9.843518,0.43658 c 1.400901,9.14 2.14787,14.32771 2.240909,15.56208 1.267988,-7.52767 3.067627,-14.22929 3.700291,-16.92627 z m 13.199566,-1.04173 -0.271142,3.90308 c 1.071276,-1.5359 3.056996,-2.63102 4.327636,-3.35447 1.26932,-0.7245 1.83021,-1.08885 3.3175,-1.02289 1.81426,0.0806 3.36801,0.71717 4.65993,1.91176 1.31317,1.1726 2.11995,2.5012 2.423,3.98579 0.30304,1.4846 0.42532,3.98684 0.36551,7.50883 l -0.31767,18.70402 c -0.0678,4.04128 -0.32962,6.91415 -0.78418,8.61651 -0.43463,1.68038 -1.30786,3.00898 -2.61971,3.98265 -1.29324,0.95274 -2.84965,1.39247 -4.6679,1.31708 -1.4514,-0.0597 -2.78851,-0.50673 -4.01396,-1.34011 -1.22546,-0.83548 -2.336609,-2.04577 -3.336112,-3.63087 l 0.102342,12.78134 -11.742841,-0.71403 4.346247,-50.22288 z m 3.108824,13.05669 c 0.0478,-2.74305 -0.0106,-4.40772 -0.17411,-4.99611 -0.16481,-0.5863 -0.64197,-0.8983 -1.43546,-0.93285 -0.77222,-0.0335 -1.28128,0.27849 -1.524508,0.93703 -0.224622,0.65959 -0.358864,2.27192 -0.404055,4.83803 l -0.324307,18.42238 c -0.04785,2.68232 0.03987,4.36374 0.25918,5.04427 0.220635,0.68053 0.71773,1.0365 1.49261,1.06895 0.75494,0.0314 1.22413,-0.25127 1.40888,-0.84699 0.20468,-0.61771 0.32696,-2.11068 0.36816,-4.47996 l 0.33229,-19.05475 z m 41.81967,11.87781 -15.09889,-0.64807 -0.15683,9.59856 c -0.0332,2.00808 0.0718,3.30736 0.31234,3.89785 0.24057,0.59049 0.71773,0.90039 1.43147,0.9318 1.64812,0.068 2.59047,-0.96739 2.96794,-5.50075 l 0.50507,-6.06611 7.50293,1.44376 1.90862,0.30676 -0.15285,2.69803 c -0.22196,3.89785 -0.93038,8.41969 -2.25685,10.23722 -1.12312,1.62698 -2.31269,3.00374 -4.02061,3.78058 -1.688,0.75696 -3.8053,1.08257 -6.35058,0.97682 -2.46819,-0.1026 -4.64131,-0.60514 -6.51804,-1.50972 -1.87805,-0.90562 -3.33611,-2.09393 -4.37283,-3.56805 a 20.076471,15.814394 0 0 1 -2.09337,-4.84745 c -0.37615,-1.7589 -0.53564,-4.28941 -0.48115,-7.59258 l 0.21798,-12.94676 c 0.0651,-3.87796 0.5702,-6.90997 1.51255,-9.09812 0.94368,-2.2091 2.45623,-3.85702 4.53764,-4.94586 2.08141,-1.10978 4.45922,-1.605 7.13476,-1.48669 3.26965,0.14658 5.9505,0.98834 8.04255,2.52737 2.11198,1.5181 3.57136,3.4843 4.37947,5.90069 0.82805,2.39546 1.20818,5.73946 1.14039,10.03411 z m -11.44379,-5.62429 -0.0771,-5.33429 c -0.0332,-2.2939 -0.0452,-3.77744 -0.24589,-4.45483 -0.2007,-0.67634 -0.62868,-1.02916 -1.28261,-1.05743 -0.80944,-0.0367 -1.31451,0.23033 -1.51521,0.80092 -0.20335,0.54861 -0.3243,2.06881 -0.36418,4.56267 -0.0133,0.69414 -0.0412,2.54622 -0.0532,3.24036 l 3.53681,2.2426 z m 25.1245,-16.70641 -0.0585,5.56566 c 1.75046,-4.07793 5.84284,-5.86405 9.04471,-5.9656 l 1.06995,15.37781 c -2.1266,-0.0932 -6.92741,-0.43135 -7.93489,0.19264 -1.00748,0.62399 -0.83469,2.26144 -1.08324,3.45079 -0.24855,1.16946 -0.48779,4.14179 -0.30969,8.43225 l 0.10899,17.51886 -11.04372,-0.68995 -0.28709,-44.34941 z m 23.63189,-8.66258 -0.0984,7.01256 -11.93556,-0.53186 0.11962,-8.1726 z m -0.13557,9.70535 -0.62203,44.21121 -11.95949,-0.49626 1.96179,-45.80469 z m 15.07363,23.52843 -0.12892,9.55564 c -0.0266,1.99971 0.0797,3.29271 0.32165,3.8811 0.23924,0.58735 0.71374,0.8962 1.42083,0.92656 0.87723,0.0367 1.46603,-0.31618 1.76243,-1.05952 0.31633,-0.76429 0.48779,-2.24574 0.51836,-4.44437 l 0.0758,-5.82635 10.95732,0.46799 -0.0425,3.26025 c -0.0346,2.72838 -0.21266,4.81813 -0.53697,6.27026 -0.3057,1.45319 -1.01146,2.98909 -2.11995,4.60874 -1.10983,1.61965 -2.5094,2.81738 -4.20005,3.59109 -1.67204,0.75381 -3.76807,1.07837 -6.28943,0.97367 -2.44559,-0.1005 -4.60011,-0.60095 -6.46355,-1.50134 -1.8621,-0.90039 -3.30952,-2.08451 -4.34358,-3.5513 a 20.088433,15.823817 0 0 1 -2.08673,-4.82651 c -0.37748,-1.75052 -0.54362,-4.27057 -0.4971,-7.55908 l 0.17943,-12.88918 c 0.0532,-3.8612 0.54495,-6.8796 1.47401,-9.05833 0.92773,-2.19863 2.423,-3.84131 4.48181,-4.92492 2.05882,-1.1056 4.41271,-1.59976 7.06432,-1.48146 3.24174,0.14449 5.90132,0.98206 7.97742,2.51377 2.09603,1.51077 3.54877,3.46859 4.35555,5.87346 0.82672,2.38499 1.21349,5.71434 1.15767,9.99014 z m 3.47434,-7.04083 0.0425,-3.2257 c 0.0306,-2.28238 -0.0545,-3.7607 -0.25652,-4.43494 -0.19937,-0.67425 -0.62469,-1.02603 -1.2733,-1.05325 -0.80147,-0.0356 -1.30255,0.23034 -1.50059,0.79884 -0.19804,0.54442 -0.31367,2.05938 -0.34557,4.54173 l -0.74298,7.12564 z m 27.26971,-14.4523 -0.24855,4.0371 c 0.85463,-1.57673 1.88604,-2.73677 3.09155,-3.47906 1.22546,-0.76429 2.62503,-1.10979 4.20005,-1.04069 1.97375,0.088 3.58067,0.70147 4.81941,1.83847 1.24008,1.13805 2.02958,2.54308 2.37117,4.21613 0.34158,1.65001 0.49045,4.39725 0.44525,8.24379 l -0.35354,30.87812 -11.51955,-0.47742 3.11946,-32.60665 c 0.20203,-1.71283 -3.33611,-4.4496 -4.35688,-4.53964 -0.81741,-0.0356 -1.33444,0.32875 -1.55375,1.09408 -0.21798,0.74334 -1.66407,11.60455 -1.53913,14.92552 l 0.79083,20.98012 -10.01099,-0.64598 1.35571,-43.84058 z m 43.95026,18.53336 -10.76593,-4.37107 0.0133,-1.16423 c 0.0173,-1.76518 -0.093,-2.96291 -0.33228,-3.59108 -0.23925,-0.65122 -0.68982,-0.99148 -1.35173,-1.02079 -0.6619,-0.0283 -1.10982,0.22823 -1.34241,0.76952 -0.23393,0.54232 -0.3602,1.77355 -0.38146,3.69368 l -0.22463,20.75293 c -0.0173,1.57045 0.14089,2.76084 0.47317,3.57224 0.33228,0.78837 0.83071,1.19668 1.49394,1.22495 0.77621,0.0314 1.30255,-0.35597 1.57635,-1.16213 0.2924,-0.80616 0.4519,-2.34939 0.47582,-4.62758 l 1.13774,-0.63237 9.25205,-4.81603 c -0.0532,3.51047 -0.31367,6.7927 -0.54095,8.5516 -0.20602,1.73796 -0.85862,3.51361 -1.95648,5.32591 -1.07792,1.7924 -2.48414,3.12832 -4.21732,4.00777 -1.73318,0.85852 -3.86776,1.23542 -6.40772,1.12968 -3.24307,-0.13401 -5.8043,-0.88259 -7.68768,-2.24574 -1.88204,-1.38618 -3.20984,-3.25815 -3.98073,-5.61696 -0.75096,-2.37975 -1.10318,-5.71643 -1.054,-10.01107 l 0.14222,-12.50599 c 0.0412,-3.73557 0.39608,-6.53829 1.06197,-8.40922 0.66456,-1.87092 2.05882,-3.49895 4.17745,-4.88513 2.1173,-1.40712 4.68118,-2.04368 7.689,-1.91071 2.98788,0.13296 5.53316,0.98519 7.63451,2.55668 2.10002,1.57045 3.48896,3.49686 4.16548,5.77611 0.6752,2.28028 0.99286,5.48295 0.95033,9.60903 z m 13.74982,-26.58661 1.61224,8.01242 -11.76677,-0.52453 0.0691,-6.96964 z m 3.83188,11.43599 -5.95183,44.48656 -8.50509,-1.81753 0.4426,-43.94109 z m 7.3009,14.22301 -6.11665,2.17036 0.0266,-2.94197 c 0.0319,-3.39321 0.38678,-5.98863 1.06331,-7.78941 0.69513,-1.81858 2.05749,-3.38798 4.0844,-4.7082 2.02692,-1.31918 4.64796,-1.90548 7.86445,-1.76309 3.85447,0.1717 6.74931,1.10245 8.68851,2.79435 1.94052,1.66886 3.09687,3.67798 3.47168,6.02528 0.37614,2.32635 0.53298,7.10888 0.47317,14.34864 l -0.18342,22.01452 -10.30606,-0.42716 -0.75361,-3.93868 c -0.71108,1.53694 -1.62552,2.68023 -2.74332,3.42881 -1.10052,0.72764 -2.4137,1.05952 -3.94086,0.99671 -1.99768,-0.0827 -3.83055,-0.81036 -5.49727,-2.18293 -1.64812,-1.39455 -2.45092,-4.31139 -2.40971,-8.74948 l 0.0346,-3.60888 c 0.0306,-3.28747 0.49444,-5.50703 1.39293,-6.66079 0.89583,-1.1527 3.10484,-2.4478 6.62304,-3.88423 3.76143,-1.55684 5.77639,-2.62684 6.04487,-3.21 0.26849,-0.58316 0.41071,-1.78821 0.42665,-3.61516 0.0199,-2.28971 -0.11696,-3.78164 -0.41202,-4.47682 -0.27646,-0.71717 -0.75229,-1.08989 -1.42882,-1.12025 -0.77089,-0.0335 -1.25469,0.24289 -1.44875,0.82919 -0.19272,0.56327 -0.30038,2.06776 -0.32164,4.51137 z m 8.15153,8.80393 c -1.83951,1.48668 -3.70294,2.71896 -4.01396,3.76383 -0.0385,0.14029 0.39874,8.28882 0.65127,8.99656 0.25785,0.6732 0.76292,1.02603 1.51654,1.05744 0.7164,0.0293 1.17893,-0.20521 1.39159,-0.70356 0.22994,-0.52034 0.35488,-1.88244 0.37482,-4.0884 z m 38.5766,-7.31305 -10.03757,-2.81005 c 0.016,-2.02064 -0.0771,-3.30003 -0.27912,-3.83608 -0.18342,-0.55698 -0.66855,-0.85327 -1.45539,-0.88782 -0.63798,-0.0283 -1.11647,0.20415 -1.43945,0.69518 -0.32297,0.46904 -0.48779,1.19877 -0.49576,2.18711 -0.0106,1.34011 0.0571,2.33263 0.20203,2.97652 0.16481,0.62294 0.63798,1.32441 1.41818,2.10649 0.80146,0.78208 2.4323,1.94107 4.89517,3.47592 3.28295,2.03321 5.43215,3.90622 6.45026,5.62115 1.01678,1.71493 1.5152,4.16587 1.49261,7.35388 -0.0266,3.56282 -0.43861,6.242 -1.23875,8.03545 -0.7988,1.77146 -2.13059,3.11472 -3.9927,4.02872 -1.84483,0.89306 -4.07111,1.28567 -6.67886,1.17783 -2.89086,-0.11935 -5.36436,-0.75172 -7.42185,-1.895 -2.04021,-1.14329 -3.43712,-2.63417 -4.1934,-4.47473 -0.75494,-1.83847 -1.11779,-4.5878 -1.08855,-8.24484 0.005,-0.70461 0.0133,-1.40922 0.0173,-2.11487 l 10.05884,3.20266 c -0.0173,2.35567 0.093,3.89052 0.33095,4.60665 0.25653,0.71507 0.76027,1.08884 1.51122,1.12025 1.71724,0.0712 2.17313,-0.79046 2.19439,-3.60784 0.0159,-2.09079 -0.18076,-3.40892 -0.5888,-3.95438 -0.42665,-0.54652 -2.61838,-2.20282 -6.5752,-4.9689 -3.32281,-2.34415 -5.34309,-4.42237 -6.06082,-6.23676 -0.71773,-1.83533 -1.06729,-3.9858 -1.04735,-6.4493 0.0292,-3.49582 0.44393,-6.05041 1.24539,-7.66378 0.80147,-1.63536 2.14389,-2.86135 4.02726,-3.67903 1.90065,-0.81663 4.09504,-1.16946 6.58716,-1.05744 2.47217,0.10889 4.56688,0.57583 6.28278,1.3977 1.73584,0.80198 3.05699,1.82591 3.96479,3.07389 0.9264,1.24798 1.48065,2.39231 1.66008,3.43195 0.19804,1.04068 0.28975,2.65824 0.2738,4.85372 z"
     aria-label="Experiencias"
     style="font-stretch:condensed;font-size:43.9117px;font-family:Impact;-inkscape-font-specification:'Impact Condensed';fill:#000000;fill-opacity:0.501961;stroke:none;stroke-width:0.587339;stroke-opacity:1"
     id="path22" /><g
     style="fill:#f1f1f1;fill-opacity:1;stroke:none;stroke-width:0.619089;stroke-dasharray:none;stroke-opacity:1"
     transform="matrix(0.31904136,0,0,0.28704045,260.99373,45.577503)"
     id="g2"><path
       d="M 138.344,15.957 1.77,125.443 l 137.993,136.409 -29.54,-91.77 29.079,-24.562 -26.506,-27.44 -0.734,-0.76 -27.85,22.803 c 0,0 -1.926,-4.86 -1.398,-5.305 18.565,-15.668 38.298,-32.706 56.5,-47.92 z"
       style="fill:#f1f1f1;fill-opacity:1;stroke:none;stroke-width:0.619089;stroke-dasharray:none;stroke-opacity:1"
       id="path1" /><path
       d="m 138.337,15.968 126.144,136.752 -28.35,23.836 -58.494,-63.862 -0.87,72.3 9.396,-10.073 -4.716,-6.218 0.193,-44.885 50.88,55.48 -92.844,82.4 z"
       style="fill:#f1f1f1;fill-opacity:1;stroke:none;stroke-width:0.619089;stroke-dasharray:none;stroke-opacity:1"
       id="path2" /></g><path
     d="m 27.312052,140.14294 35.353462,3.57328 -0.210002,10.85702 -8.196729,-0.36329 -0.203356,10.30212 7.674382,0.33503 -0.199369,10.33982 -7.679699,-0.32979 -0.235256,11.96785 9.024776,0.38109 -0.211331,10.8968 -21.348446,-0.88468 z m 63.70641,16.25307 c -1.528496,3.76488 -6.120632,15.06162 -7.650458,18.82651 l 6.549941,24.01945 -11.443788,-0.47427 c -1.016783,-5.9164 -2.272808,-10.79002 -2.777877,-15.04593 -0.875895,5.25053 -1.318494,10.054 -2.323314,14.83444 l -9.862126,-0.40832 5.522524,-23.07509 -4.662579,-21.48789 9.843518,0.43658 c 1.400901,9.14 2.14787,14.32771 2.240909,15.56208 1.267988,-7.52767 3.067627,-14.22929 3.700291,-16.92627 z m 13.199568,-1.04173 -0.27114,3.90308 c 1.07127,-1.5359 3.05699,-2.63102 4.32763,-3.35447 1.26932,-0.7245 1.83021,-1.08885 3.3175,-1.02289 1.81426,0.0806 3.36801,0.71717 4.65993,1.91176 1.31317,1.1726 2.11995,2.5012 2.423,3.98579 0.30304,1.4846 0.42532,3.98684 0.36551,7.50883 l -0.31767,18.70402 c -0.0678,4.04128 -0.32962,6.91415 -0.78418,8.61651 -0.43463,1.68038 -1.30786,3.00898 -2.61971,3.98265 -1.29324,0.95274 -2.84965,1.39247 -4.6679,1.31708 -1.4514,-0.0597 -2.78851,-0.50673 -4.01396,-1.34011 -1.22546,-0.83548 -2.33661,-2.04577 -3.33611,-3.63087 l 0.10234,12.78134 -11.742839,-0.71403 4.346249,-50.22288 z m 3.10882,13.05669 c 0.0478,-2.74305 -0.0106,-4.40772 -0.17411,-4.99611 -0.16481,-0.5863 -0.64197,-0.8983 -1.43546,-0.93285 -0.77222,-0.0335 -1.28128,0.27849 -1.52451,0.93703 -0.22462,0.65959 -0.35886,2.27192 -0.40405,4.83803 l -0.32431,18.42238 c -0.0478,2.68232 0.0399,4.36374 0.25918,5.04427 0.22064,0.68053 0.71773,1.0365 1.49261,1.06895 0.75494,0.0314 1.22413,-0.25127 1.40888,-0.84699 0.20468,-0.61771 0.32696,-2.11068 0.36816,-4.47996 l 0.33229,-19.05475 z m 41.81967,11.87781 -15.09889,-0.64807 -0.15683,9.59856 c -0.0332,2.00808 0.0718,3.30736 0.31234,3.89785 0.24057,0.59049 0.71773,0.90039 1.43147,0.9318 1.64812,0.068 2.59047,-0.96739 2.96794,-5.50075 l 0.50507,-6.06611 7.50293,1.44376 1.90862,0.30676 -0.15285,2.69803 c -0.22196,3.89785 -0.93038,8.41969 -2.25685,10.23722 -1.12312,1.62698 -2.31269,3.00374 -4.02061,3.78058 -1.688,0.75696 -3.8053,1.08257 -6.35058,0.97682 -2.46819,-0.1026 -4.64131,-0.60514 -6.51804,-1.50972 -1.87805,-0.90562 -3.33611,-2.09393 -4.37283,-3.56805 a 20.076471,15.814394 0 0 1 -2.09337,-4.84745 c -0.37615,-1.7589 -0.53564,-4.28941 -0.48115,-7.59258 l 0.21798,-12.94676 c 0.0651,-3.87796 0.5702,-6.90997 1.51255,-9.09812 0.94368,-2.2091 2.45623,-3.85702 4.53764,-4.94586 2.08141,-1.10978 4.45922,-1.605 7.13476,-1.48669 3.26965,0.14658 5.9505,0.98834 8.04255,2.52737 2.11198,1.5181 3.57136,3.4843 4.37947,5.90069 0.82805,2.39546 1.20818,5.73946 1.14039,10.03411 z m -11.44379,-5.62429 -0.0771,-5.33429 c -0.0332,-2.2939 -0.0452,-3.77744 -0.24589,-4.45483 -0.2007,-0.67634 -0.62868,-1.02916 -1.28261,-1.05743 -0.80944,-0.0367 -1.31451,0.23033 -1.51521,0.80092 -0.20335,0.54861 -0.3243,2.06881 -0.36418,4.56267 -0.0133,0.69414 -0.0412,2.54622 -0.0532,3.24036 l 3.53681,2.2426 z m 25.1245,-16.70641 -0.0585,5.56566 c 1.75046,-4.07793 5.84284,-5.86405 9.04471,-5.9656 l 1.06995,15.37781 c -2.1266,-0.0932 -6.92741,-0.43135 -7.93489,0.19264 -1.00748,0.62399 -0.83469,2.26144 -1.08324,3.45079 -0.24855,1.16946 -0.48779,4.14179 -0.30969,8.43225 l 0.10899,17.51886 -11.04372,-0.68995 -0.28709,-44.34941 z m 23.63189,-8.66258 -0.0984,7.01256 -11.93556,-0.53186 0.11962,-8.1726 z m -0.13557,9.70535 -0.62203,44.21121 -11.95949,-0.49626 1.96179,-45.80469 z m 15.07363,23.52843 -0.12892,9.55564 c -0.0266,1.99971 0.0797,3.29271 0.32165,3.8811 0.23924,0.58735 0.71374,0.8962 1.42083,0.92656 0.87723,0.0367 1.46603,-0.31618 1.76243,-1.05952 0.31633,-0.76429 0.48779,-2.24574 0.51836,-4.44437 l 0.0758,-5.82635 10.95732,0.46799 -0.0425,3.26025 c -0.0346,2.72838 -0.21266,4.81813 -0.53697,6.27026 -0.3057,1.45319 -1.01146,2.98909 -2.11995,4.60874 -1.10983,1.61965 -2.5094,2.81738 -4.20005,3.59109 -1.67204,0.75381 -3.76807,1.07837 -6.28943,0.97367 -2.44559,-0.1005 -4.60011,-0.60095 -6.46355,-1.50134 -1.8621,-0.90039 -3.30952,-2.08451 -4.34358,-3.5513 a 20.088433,15.823817 0 0 1 -2.08673,-4.82651 c -0.37748,-1.75052 -0.54362,-4.27057 -0.4971,-7.55908 l 0.17943,-12.88918 c 0.0532,-3.8612 0.54495,-6.8796 1.47401,-9.05833 0.92773,-2.19863 2.423,-3.84131 4.48181,-4.92492 2.05882,-1.1056 4.41271,-1.59976 7.06432,-1.48146 3.24174,0.14449 5.90132,0.98206 7.97742,2.51377 2.09603,1.51077 3.54877,3.46859 4.35555,5.87346 0.82672,2.38499 1.21349,5.71434 1.15767,9.99014 z m 3.47434,-7.04083 0.0425,-3.2257 c 0.0306,-2.28238 -0.0545,-3.7607 -0.25652,-4.43494 -0.19937,-0.67425 -0.62469,-1.02603 -1.2733,-1.05325 -0.80147,-0.0356 -1.30255,0.23034 -1.50059,0.79884 -0.19804,0.54442 -0.31367,2.05938 -0.34557,4.54173 l -0.74298,7.12564 z m 27.26971,-14.4523 -0.24855,4.0371 c 0.85463,-1.57673 1.88604,-2.73677 3.09155,-3.47906 1.22546,-0.76429 2.62503,-1.10979 4.20005,-1.04069 1.97375,0.088 3.58067,0.70147 4.81941,1.83847 1.24008,1.13805 2.02958,2.54308 2.37117,4.21613 0.34158,1.65001 0.49045,4.39725 0.44525,8.24379 l -0.35354,30.87812 -11.51955,-0.47742 3.11946,-32.60665 c 0.20203,-1.71283 -3.33611,-4.4496 -4.35688,-4.53964 -0.81741,-0.0356 -1.33444,0.32875 -1.55375,1.09408 -0.21798,0.74334 -1.66407,11.60455 -1.53913,14.92552 l 0.79083,20.98012 -10.01099,-0.64598 1.35571,-43.84058 z m 43.95026,18.53336 -10.76593,-4.37107 0.0133,-1.16423 c 0.0173,-1.76518 -0.093,-2.96291 -0.33228,-3.59108 -0.23925,-0.65122 -0.68982,-0.99148 -1.35173,-1.02079 -0.6619,-0.0283 -1.10982,0.22823 -1.34241,0.76952 -0.23393,0.54232 -0.3602,1.77355 -0.38146,3.69368 l -0.22463,20.75293 c -0.0173,1.57045 0.14089,2.76084 0.47317,3.57224 0.33228,0.78837 0.83071,1.19668 1.49394,1.22495 0.77621,0.0314 1.30255,-0.35597 1.57635,-1.16213 0.2924,-0.80616 0.4519,-2.34939 0.47582,-4.62758 l 1.13774,-0.63237 9.25205,-4.81603 c -0.0532,3.51047 -0.31367,6.7927 -0.54095,8.5516 -0.20602,1.73796 -0.85862,3.51361 -1.95648,5.32591 -1.07792,1.7924 -2.48414,3.12832 -4.21732,4.00777 -1.73318,0.85852 -3.86776,1.23542 -6.40772,1.12968 -3.24307,-0.13401 -5.8043,-0.88259 -7.68768,-2.24574 -1.88204,-1.38618 -3.20984,-3.25815 -3.98073,-5.61696 -0.75096,-2.37975 -1.10318,-5.71643 -1.054,-10.01107 l 0.14222,-12.50599 c 0.0412,-3.73557 0.39608,-6.53829 1.06197,-8.40922 0.66456,-1.87092 2.05882,-3.49895 4.17745,-4.88513 2.1173,-1.40712 4.68118,-2.04368 7.689,-1.91071 2.98788,0.13296 5.53316,0.98519 7.63451,2.55668 2.10002,1.57045 3.48896,3.49686 4.16548,5.77611 0.6752,2.28028 0.99286,5.48295 0.95033,9.60903 z m 13.74982,-26.58661 1.61224,8.01242 -11.76677,-0.52453 0.0691,-6.96964 z m 3.83188,11.43599 -5.95183,44.48656 -8.50509,-1.81753 0.4426,-43.94109 z m 7.3009,14.22301 -6.11665,2.17036 0.0266,-2.94197 c 0.0319,-3.39321 0.38678,-5.98863 1.06331,-7.78941 0.69513,-1.81858 2.05749,-3.38798 4.0844,-4.7082 2.02692,-1.31918 4.64796,-1.90548 7.86445,-1.76309 3.85447,0.1717 6.74931,1.10245 8.68851,2.79435 1.94052,1.66886 3.09687,3.67798 3.47168,6.02528 0.37614,2.32635 0.53298,7.10888 0.47317,14.34864 l -0.18342,22.01452 -10.30606,-0.42716 -0.75361,-3.93868 c -0.71108,1.53694 -1.62552,2.68023 -2.74332,3.42881 -1.10052,0.72764 -2.4137,1.05952 -3.94086,0.99671 -1.99768,-0.0827 -3.83055,-0.81036 -5.49727,-2.18293 -1.64812,-1.39455 -2.45092,-4.31139 -2.40971,-8.74948 l 0.0346,-3.60888 c 0.0306,-3.28747 0.49444,-5.50703 1.39293,-6.66079 0.89583,-1.1527 3.10484,-2.4478 6.62304,-3.88423 3.76143,-1.55684 5.77639,-2.62684 6.04487,-3.21 0.26849,-0.58316 0.41071,-1.78821 0.42665,-3.61516 0.0199,-2.28971 -0.11696,-3.78164 -0.41202,-4.47682 -0.27646,-0.71717 -0.75229,-1.08989 -1.42882,-1.12025 -0.77089,-0.0335 -1.25469,0.24289 -1.44875,0.82919 -0.19272,0.56327 -0.30038,2.06776 -0.32164,4.51137 z m 8.15153,8.80393 c -1.83951,1.48668 -3.70294,2.71896 -4.01396,3.76383 -0.0385,0.14029 0.39874,8.28882 0.65127,8.99656 0.25785,0.6732 0.76292,1.02603 1.51654,1.05744 0.7164,0.0293 1.17893,-0.20521 1.39159,-0.70356 0.22994,-0.52034 0.35488,-1.88244 0.37482,-4.0884 z m 38.5766,-7.31305 -10.03757,-2.81005 c 0.016,-2.02064 -0.0771,-3.30003 -0.27912,-3.83608 -0.18342,-0.55698 -0.66855,-0.85327 -1.45539,-0.88782 -0.63798,-0.0283 -1.11647,0.20415 -1.43945,0.69518 -0.32297,0.46904 -0.48779,1.19877 -0.49576,2.18711 -0.0106,1.34011 0.0571,2.33263 0.20203,2.97652 0.16481,0.62294 0.63798,1.32441 1.41818,2.10649 0.80146,0.78208 2.4323,1.94107 4.89517,3.47592 3.28295,2.03321 5.43215,3.90622 6.45026,5.62115 1.01678,1.71493 1.5152,4.16587 1.49261,7.35388 -0.0266,3.56282 -0.43861,6.242 -1.23875,8.03545 -0.7988,1.77146 -2.13059,3.11472 -3.9927,4.02872 -1.84483,0.89306 -4.07111,1.28567 -6.67886,1.17783 -2.89086,-0.11935 -5.36436,-0.75172 -7.42185,-1.895 -2.04021,-1.14329 -3.43712,-2.63417 -4.1934,-4.47473 -0.75494,-1.83847 -1.11779,-4.5878 -1.08855,-8.24484 0.005,-0.70461 0.0133,-1.40922 0.0173,-2.11487 l 10.05884,3.20266 c -0.0173,2.35567 0.093,3.89052 0.33095,4.60665 0.25653,0.71507 0.76027,1.08884 1.51122,1.12025 1.71724,0.0712 2.17313,-0.79046 2.19439,-3.60784 0.0159,-2.09079 -0.18076,-3.40892 -0.5888,-3.95438 -0.42665,-0.54652 -2.61838,-2.20282 -6.5752,-4.9689 -3.32281,-2.34415 -5.34309,-4.42237 -6.06082,-6.23676 -0.71773,-1.83533 -1.06729,-3.9858 -1.04735,-6.4493 0.0292,-3.49582 0.44393,-6.05041 1.24539,-7.66378 0.80147,-1.63536 2.14389,-2.86135 4.02726,-3.67903 1.90065,-0.81663 4.09504,-1.16946 6.58716,-1.05744 2.47217,0.10889 4.56688,0.57583 6.28278,1.3977 1.73584,0.80198 3.05699,1.82591 3.96479,3.07389 0.9264,1.24798 1.48065,2.39231 1.66008,3.43195 0.19804,1.04068 0.28975,2.65824 0.2738,4.85372 z"
     aria-label="Experiencias"
     style="font-stretch:condensed;font-size:43.9117px;font-family:Impact;-inkscape-font-specification:'Impact Condensed';fill:#fefff8;fill-opacity:1;stroke:none;stroke-width:0.587339;stroke-opacity:1"
     id="path3" /></svg>
